0
SECTION
2
HEADER
9
$INSUNITS
70
4
9
$ACADVER
1
AC1014
9
$HANDSEED
5
FFFF
0
ENDSEC
0
SECTION
2
TABLES
0
TABLE
2
VPORT
5
8
100
AcDbSymbolTable
0
ENDTAB
0
TABLE
2
LTYPE
5
5
100
AcDbSymbolTable
0
LTYPE
5
14
100
AcDbSymbolTableRecord
100
AcDbLinetypeTableRecord
2
BYBLOCK
70
0
0
LTYPE
5
15
100
AcDbSymbolTableRecord
100
AcDbLinetypeTableRecord
2
BYLAYER
70
0
0
ENDTAB
0
TABLE
2
LAYER
5
2
100
AcDbSymbolTable
70
2
0
LAYER
5
50
100
AcDbSymbolTableRecord
100
AcDbLayerTableRecord
2
0
70
0
6
CONTINUOUS
0
ENDTAB
0
TABLE
2
STYLE
5
3
100
AcDbSymbolTable
70
1
0
STYLE
5
11
100
AcDbSymbolTableRecord
100
AcDbTextStyleTableRecord
2
STANDARD
70
0
0
ENDTAB
0
TABLE
2
VIEW
5
6
100
AcDbSymbolTable
70
0
0
ENDTAB
0
TABLE
2
UCS
5
7
100
AcDbSymbolTable
70
0
0
ENDTAB
0
TABLE
2
APPID
5
9
100
AcDbSymbolTable
70
2
0
APPID
5
12
100
AcDbSymbolTableRecord
100
AcDbRegAppTableRecord
2
ACAD
70
0
0
ENDTAB
0
TABLE
2
DIMSTYLE
5
A
100
AcDbSymbolTable
70
1
0
ENDTAB
0
TABLE
2
BLOCK_RECORD
5
1
100
AcDbSymbolTable
70
1
0
BLOCK_RECORD
5
1F
100
AcDbSymbolTableRecord
100
AcDbBlockTableRecord
2
*MODEL_SPACE
0
BLOCK_RECORD
5
1B
100
AcDbSymbolTableRecord
100
AcDbBlockTableRecord
2
*PAPER_SPACE
0
ENDTAB
0
ENDSEC
0
SECTION
2
BLOCKS
0
BLOCK
5
20
100
AcDbEntity
100
AcDbBlockBegin
2
*MODEL_SPACE
0
ENDBLK
5
21
100
AcDbEntity
100
AcDbBlockEnd
0
BLOCK
5
1C
100
AcDbEntity
100
AcDbBlockBegin
2
*PAPER_SPACE
0
ENDBLK
5
1D
100
AcDbEntity
100
AcDbBlockEnd
0
ENDSEC
0
SECTION
2
ENTITIES
0
LWPOLYLINE
5
100
100
AcDbEntity
8
0
100
AcDbPolyline
90
4
70
1
43
0.0
10
3.7500000000000022
20
-26.499999999999982
10
3.7499999999999991
20
-22.999999999999979
42
-0.99999999999999989
10
6.2499999999999991
20
-22.999999999999979
10
6.2500000000000018
20
-26.499999999999982
42
-0.99999999999999989
0
LWPOLYLINE
5
101
100
AcDbEntity
8
0
100
AcDbPolyline
90
4
70
1
43
0.0
10
-6.2499999999999982
20
-26.499999999999986
10
-6.2499999999999947
20
-22.999999999999979
42
-0.99999999999999989
10
-3.7499999999999947
20
-22.999999999999979
10
-3.7499999999999933
20
-26.499999999999979
42
-0.99999999999999989
0
LWPOLYLINE
5
102
100
AcDbEntity
8
0
100
AcDbPolyline
90
8
70
1
43
0.0
10
-1.8229212819040557
20
0.17677669529733131
10
-0.17677669530113027
20
1.8229212818989842
42
-0.41421356237309492
10
0.17677669529214379
20
1.8229212818988478
10
1.8229212818937897
20
0.1767766952959316
42
-0.41421356237309453
10
1.8229212818936527
20
-0.17677669529734222
10
0.17677669529073206
20
-1.8229212818989931
42
-0.41421356237309392
10
-0.17677669530254181
20
-1.8229212818988569
10
-1.8229212819041916
20
-0.17677669529594314
42
-0.41421356237309537
0
LWPOLYLINE
5
103
100
AcDbEntity
8
0
100
AcDbPolyline
90
10
70
1
43
0.0
10
-7.5000000000017542
20
3.4999999999980833
42
0.41421356237320817
10
-6.5000000000021405
20
2.4999999999973133
10
-3.4999999999975167
20
2.4999999999961533
42
0.41421356237298301
10
-2.4999999999971303
20
3.4999999999953824
10
-2.4999999999948175
20
6.4999999999948175
42
0.41421356237309437
10
-3.4999999999940465
20
7.4999999999955875
10
-5.1266028275970097
20
7.4999999999968425
42
0.24153136105890255
10
-5.9388356896648133
20
7.0833333333306969
42
-0.081465292110668774
10
-7.083333333333746
20
5.9388356896626284
42
0.24153136105869583
10
-7.5000000000004992
20
5.1266028275959226
0
LWPOLYLINE
5
104
100
AcDbEntity
8
0
100
AcDbPolyline
90
10
70
1
43
0.0
10
-3.4999999999980833
20
-7.5000000000017542
42
0.41421356237320817
10
-2.4999999999973133
20
-6.5000000000021405
10
-2.4999999999961537
20
-3.4999999999975158
42
0.41421356237298301
10
-3.4999999999953824
20
-2.4999999999971294
10
-6.4999999999948175
20
-2.4999999999948166
42
0.4142135623730962
10
-7.4999999999955875
20
-3.4999999999940457
10
-7.4999999999968416
20
-5.1266028275970124
42
0.24153136105890188
10
-7.0833333333306978
20
-5.9388356896648187
42
-0.08146529211067001
10
-5.938835689662632
20
-7.0833333333337469
42
0.24153136105869263
10
-5.1266028275959252
20
-7.5000000000004992
0
LWPOLYLINE
5
105
100
AcDbEntity
8
0
100
AcDbPolyline
90
10
70
1
43
0.0
10
3.4999999999980829
20
7.5000000000017542
42
0.41421356237320689
10
2.4999999999973128
20
6.5000000000021405
10
2.4999999999961537
20
3.4999999999975162
42
0.41421356237298335
10
3.4999999999953824
20
2.4999999999971303
10
6.4999999999948175
20
2.4999999999948175
42
0.4142135623730962
10
7.4999999999955875
20
3.4999999999940465
10
7.4999999999968399
20
5.1266028275970097
42
0.24153136105890477
10
7.0833333333306978
20
5.9388356896648151
42
-0.081465292110670676
10
5.938835689662624
20
7.0833333333337523
42
0.24153136105869433
10
5.1266028275959226
20
7.5000000000004992
0
LWPOLYLINE
5
106
100
AcDbEntity
8
0
100
AcDbPolyline
90
10
70
1
43
0.0
10
7.5000000000017542
20
-3.4999999999980846
42
0.41421356237320756
10
6.5000000000021423
20
-2.4999999999973133
10
3.4999999999975162
20
-2.4999999999961551
42
0.41421356237298285
10
2.4999999999971299
20
-3.4999999999953841
10
2.4999999999948153
20
-6.4999999999948184
42
0.41421356237309537
10
3.4999999999940457
20
-7.4999999999955893
10
5.1266028275970088
20
-7.4999999999968425
42
0.24153136105890569
10
5.9388356896648133
20
-7.0833333333307005
42
-0.081465292110670454
10
7.0833333333337469
20
-5.9388356896626302
42
0.24153136105869291
10
7.5000000000004983
20
-5.1266028275959279
0
CIRCLE
5
107
100
AcDbEntity
8
0
100
AcDbCircle
10
10.000000000000014
20
27.000000000000021
30
0
40
1.5999999999999996
210
0
220
-0
230
1
0
CIRCLE
5
108
100
AcDbEntity
8
0
100
AcDbCircle
10
-10.000000000000004
20
27.000000000000021
30
0
40
1.600000000000001
210
0
220
-0
230
1
0
CIRCLE
5
109
100
AcDbEntity
8
0
100
AcDbCircle
10
-10.000000000000004
20
-26.999999999999989
30
0
40
1.600000000000001
210
0
220
-0
230
1
0
CIRCLE
5
110
100
AcDbEntity
8
0
100
AcDbCircle
10
9.9999999999999964
20
-26.999999999999986
30
0
40
1.5999999999999996
210
0
220
-0
230
1
0
CIRCLE
5
111
100
AcDbEntity
8
0
100
AcDbCircle
10
-8.0000000000000089
20
19.749999999999964
30
0
40
1.7000000000000004
210
0
220
-0
230
1
0
CIRCLE
5
112
100
AcDbEntity
8
0
100
AcDbCircle
10
10.000000000000004
20
9.9999999999999982
30
0
40
2.25
210
0
220
-0
230
1
0
CIRCLE
5
113
100
AcDbEntity
8
0
100
AcDbCircle
10
-8.0000000000000089
20
-19.750000000000028
30
0
40
1.7000000000000004
210
0
220
-0
230
1
0
CIRCLE
5
114
100
AcDbEntity
8
0
100
AcDbCircle
10
7.9999999999999929
20
19.749999999999964
30
0
40
1.7000000000000004
210
0
220
-0
230
1
0
CIRCLE
5
115
100
AcDbEntity
8
0
100
AcDbCircle
10
-10.000000000000014
20
-10.000000000000002
30
0
40
2.2500000000000009
210
0
220
-0
230
1
0
CIRCLE
5
116
100
AcDbEntity
8
0
100
AcDbCircle
10
9.9999999999999964
20
-10.000000000000007
30
0
40
2.25
210
0
220
-0
230
1
0
CIRCLE
5
117
100
AcDbEntity
8
0
100
AcDbCircle
10
7.9999999999999982
20
-19.750000000000032
30
0
40
1.7000000000000004
210
0
220
-0
230
1
0
CIRCLE
5
118
100
AcDbEntity
8
0
100
AcDbCircle
10
-10.000000000000062
20
10.000000000000075
30
0
40
2.2500000000000009
210
0
220
-0
230
1
0
LWPOLYLINE
5
119
100
AcDbEntity
8
0
100
AcDbPolyline
90
24
70
1
43
0.0
10
16.618539974038221
20
-18.382724989182591
42
0.38107036882758288
10
18.54545454545455
20
-13.778422304511203
42
-0.083143085805344616
10
18
20
-10.520881783207747
10
18
20
10.520881783207763
42
-0.083143085805344505
10
18.545454545454547
20
13.778422304511214
42
0.38107036882758222
10
16.618539974038217
20
18.382724989182584
42
-0.3819660112501056
10
13.541616897115155
20
25.767340373797989
42
0.62609383863565449
10
8.7784223045112171
20
30.545454545454568
42
-0.083143085805344616
10
5.5208817832077628
20
30.000000000000018
10
-5.5208817832077788
20
30.000000000000018
42
-0.083143085805344283
10
-8.7784223045112171
20
30.545454545454565
42
0.62609383863565382
10
-13.541616897115141
20
25.767340373797992
42
-0.38196601125010576
10
-16.618539974038214
20
18.382724989182591
42
0.38107036882758205
10
-18.545454545454547
20
13.778422304511217
42
-0.083143085805344172
10
-18.000000000000004
20
10.520881783207781
10
-18.000000000000004
20
-10.520881783207777
42
-0.083143085805344172
10
-18.545454545454547
20
-13.778422304511214
42
0.38107036882758183
10
-16.618539974038217
20
-18.382724989182584
42
-0.38196601125010476
10
-13.541616897115148
20
-25.767340373797968
42
0.62609383863565338
10
-8.7784223045112135
20
-30.545454545454533
42
-0.083143085805344616
10
-5.520881783207761
20
-29.999999999999982
10
5.5208817832077699
20
-29.999999999999979
42
-0.083143085805344283
10
8.7784223045112082
20
-30.545454545454529
42
0.62609383863565238
10
13.541616897115141
20
-25.767340373797971
42
-0.38196601125010476
0
ENDSEC
0
SECTION
2
OBJECTS
0
DICTIONARY
5
C
100
AcDbDictionary
3
ACAD_GROUP
350
D
3
ACAD_MLINESTYLE
350
17
0
DICTIONARY
5
D
100
AcDbDictionary
0
DICTIONARY
5
1A
330
C
100
AcDbDictionary
0
DICTIONARY
5
17
100
AcDbDictionary
0
ENDSEC
0
EOF
