0
SECTION
2
HEADER
9
$INSUNITS
70
4
9
$ACADVER
1
AC1014
9
$HANDSEED
5
FFFF
0
ENDSEC
0
SECTION
2
TABLES
0
TABLE
2
VPORT
5
8
100
AcDbSymbolTable
0
ENDTAB
0
TABLE
2
LTYPE
5
5
100
AcDbSymbolTable
0
LTYPE
5
14
100
AcDbSymbolTableRecord
100
AcDbLinetypeTableRecord
2
BYBLOCK
70
0
0
LTYPE
5
15
100
AcDbSymbolTableRecord
100
AcDbLinetypeTableRecord
2
BYLAYER
70
0
0
ENDTAB
0
TABLE
2
LAYER
5
2
100
AcDbSymbolTable
70
2
0
LAYER
5
50
100
AcDbSymbolTableRecord
100
AcDbLayerTableRecord
2
0
70
0
6
CONTINUOUS
0
ENDTAB
0
TABLE
2
STYLE
5
3
100
AcDbSymbolTable
70
1
0
STYLE
5
11
100
AcDbSymbolTableRecord
100
AcDbTextStyleTableRecord
2
STANDARD
70
0
0
ENDTAB
0
TABLE
2
VIEW
5
6
100
AcDbSymbolTable
70
0
0
ENDTAB
0
TABLE
2
UCS
5
7
100
AcDbSymbolTable
70
0
0
ENDTAB
0
TABLE
2
APPID
5
9
100
AcDbSymbolTable
70
2
0
APPID
5
12
100
AcDbSymbolTableRecord
100
AcDbRegAppTableRecord
2
ACAD
70
0
0
ENDTAB
0
TABLE
2
DIMSTYLE
5
A
100
AcDbSymbolTable
70
1
0
ENDTAB
0
TABLE
2
BLOCK_RECORD
5
1
100
AcDbSymbolTable
70
1
0
BLOCK_RECORD
5
1F
100
AcDbSymbolTableRecord
100
AcDbBlockTableRecord
2
*MODEL_SPACE
0
BLOCK_RECORD
5
1B
100
AcDbSymbolTableRecord
100
AcDbBlockTableRecord
2
*PAPER_SPACE
0
ENDTAB
0
ENDSEC
0
SECTION
2
BLOCKS
0
BLOCK
5
20
100
AcDbEntity
100
AcDbBlockBegin
2
*MODEL_SPACE
0
ENDBLK
5
21
100
AcDbEntity
100
AcDbBlockEnd
0
BLOCK
5
1C
100
AcDbEntity
100
AcDbBlockBegin
2
*PAPER_SPACE
0
ENDBLK
5
1D
100
AcDbEntity
100
AcDbBlockEnd
0
ENDSEC
0
SECTION
2
ENTITIES
0
CIRCLE
5
100
100
AcDbEntity
8
0
100
AcDbCircle
10
-10.000000000000004
20
27.000000000000021
30
0
40
1.6000000000000014
210
0
220
0
230
1
0
CIRCLE
5
101
100
AcDbEntity
8
0
100
AcDbCircle
10
-10.000000000000004
20
-26.999999999999989
30
0
40
1.6000000000000014
210
0
220
0
230
1
0
LWPOLYLINE
5
102
100
AcDbEntity
8
0
100
AcDbPolyline
90
10
70
1
43
0.0
10
-5.1266028275970097
20
7.4999999999968425
10
-3.4999999999940465
20
7.4999999999955875
42
-0.41421356237309437
10
-2.4999999999948175
20
6.4999999999948175
10
-2.4999999999971303
20
3.4999999999953824
42
-0.41421356237298335
10
-3.4999999999975167
20
2.4999999999961533
10
-6.5000000000021405
20
2.4999999999973133
42
-0.41421356237320817
10
-7.5000000000017542
20
3.4999999999980833
10
-7.5000000000004983
20
5.1266028275959226
42
-0.24153136105869652
10
-7.083333333333746
20
5.9388356896626266
42
0.081465292110668816
10
-5.9388356896648169
20
7.0833333333307005
42
-0.24153136105890344
0
CIRCLE
5
103
100
AcDbEntity
8
0
100
AcDbCircle
10
9.9999999999999964
20
-26.999999999999986
30
0
40
1.6000000000000003
210
0
220
0
230
1
0
LWPOLYLINE
5
104
100
AcDbEntity
8
0
100
AcDbPolyline
90
10
70
1
43
0.0
10
7.4999999999968399
20
5.1266028275970115
10
7.4999999999955875
20
3.4999999999940479
42
-0.41421356237309653
10
6.4999999999948175
20
2.4999999999948175
10
3.4999999999953824
20
2.4999999999971303
42
-0.41421356237298368
10
2.4999999999961537
20
3.4999999999975162
10
2.4999999999973133
20
6.5000000000021405
42
-0.41421356237320706
10
3.4999999999980829
20
7.5000000000017542
10
5.1266028275959217
20
7.5000000000004992
42
-0.24153136105869441
10
5.938835689662624
20
7.0833333333337523
42
0.081465292110670662
10
7.0833333333306978
20
5.9388356896648178
42
-0.24153136105890471
0
LWPOLYLINE
5
105
100
AcDbEntity
8
0
100
AcDbPolyline
90
10
70
1
43
0.0
10
5.1266028275970088
20
-7.4999999999968425
10
3.4999999999940457
20
-7.4999999999955893
42
-0.41421356237309537
10
2.4999999999948153
20
-6.4999999999948184
10
2.4999999999971294
20
-3.4999999999953846
42
-0.4142135623729824
10
3.4999999999975162
20
-2.4999999999961551
10
6.5000000000021423
20
-2.4999999999973133
42
-0.41421356237320689
10
7.5000000000017542
20
-3.4999999999980846
10
7.5000000000004992
20
-5.1266028275959279
42
-0.24153136105869241
10
7.0833333333337469
20
-5.938835689662632
42
0.081465292110670315
10
5.9388356896648178
20
-7.0833333333306978
42
-0.2415313610589066
0
CIRCLE
5
106
100
AcDbEntity
8
0
100
AcDbCircle
10
10.000000000000004
20
9.9999999999999982
30
0
40
1.6000000000000036
210
0
220
0
230
1
0
LWPOLYLINE
5
107
100
AcDbEntity
8
0
100
AcDbPolyline
90
8
70
1
43
0.0
10
-1.8229212819040552
20
0.17677669529733153
10
-0.17677669530113085
20
1.8229212818989837
42
-0.41421356237309542
10
0.17677669529214388
20
1.8229212818988478
10
1.8229212818937892
20
0.17677669529593187
42
-0.41421356237309453
10
1.8229212818936527
20
-0.17677669529734225
10
0.17677669529073253
20
-1.8229212818989926
42
-0.41421356237309481
10
-0.17677669530254184
20
-1.8229212818988569
10
-1.8229212819041911
20
-0.17677669529594331
42
-0.41421356237309692
0
CIRCLE
5
108
100
AcDbEntity
8
0
100
AcDbCircle
10
-10.000000000000062
20
10.000000000000075
30
0
40
1.6000000000000902
210
0
220
0
230
1
0
CIRCLE
5
109
100
AcDbEntity
8
0
100
AcDbCircle
10
10.000000000000014
20
27.000000000000021
30
0
40
1.5999999999999992
210
0
220
0
230
1
0
LWPOLYLINE
5
110
100
AcDbEntity
8
0
100
AcDbPolyline
90
10
70
1
43
0.0
10
-7.4999999999968416
20
-5.1266028275970124
10
-7.4999999999955875
20
-3.4999999999940457
42
-0.4142135623730962
10
-6.4999999999948175
20
-2.4999999999948166
10
-3.4999999999953824
20
-2.4999999999971294
42
-0.41421356237298335
10
-2.4999999999961537
20
-3.4999999999975158
10
-2.4999999999973133
20
-6.5000000000021405
42
-0.41421356237320817
10
-3.4999999999980833
20
-7.5000000000017542
10
-5.1266028275959252
20
-7.5000000000004992
42
-0.24153136105869416
10
-5.938835689662632
20
-7.0833333333337469
42
0.081465292110670134
10
-7.0833333333307014
20
-5.9388356896648187
42
-0.24153136105890224
0
CIRCLE
5
111
100
AcDbEntity
8
0
100
AcDbCircle
10
9.9999999999999964
20
-10.000000000000007
30
0
40
1.6000000000000014
210
0
220
0
230
1
0
CIRCLE
5
112
100
AcDbEntity
8
0
100
AcDbCircle
10
-10.000000000000014
20
-10.000000000000002
30
0
40
1.6000000000000103
210
0
220
0
230
1
0
LWPOLYLINE
5
113
100
AcDbEntity
8
0
100
AcDbPolyline
90
28
70
1
43
0.0
10
-11.749994016716563
20
-13.807897159101174
10
-11.74999401671657
20
-17.591692349760471
42
-0.10511495183328927
10
-13.425730795221888
20
-25.474592343447693
42
0.69773749105320504
10
-8.3786588265813666
20
-30.381383267152259
42
-0.22735297104093113
10
8.3786588265813506
20
-30.381383267152266
42
0.69773749105320504
10
13.425730795221888
20
-25.474592343447679
42
-0.10511495183328927
10
11.749994016716565
20
-17.591692349760461
10
11.749994016716563
20
-13.807897159101145
42
-0.12911778344406721
10
12.395159167222003
20
-11.351189314519765
42
0.26261370554437047
10
12.395159167222003
20
-8.6488106854802496
42
-0.12911778344406732
10
11.749994016716563
20
-6.1921028408988663
10
11.74999401671656
20
6.1921028408988397
42
-0.12911778344406799
10
12.395159167222008
20
8.6488106854802353
42
0.26261370554437191
10
12.395159167222005
20
11.351189314519763
42
-0.12911778344406766
10
11.74999401671656
20
13.807897159101151
10
11.749994016716558
20
17.591692349760354
42
-0.10511495183329084
10
13.425730795221934
20
25.474592343447682
42
0.69773749105320715
10
8.3786588265813418
20
30.38138326715233
42
-0.22735297104093066
10
-8.37865882658134
20
30.381383267152337
42
0.69773749105320659
10
-13.425730795221924
20
25.474592343447682
42
-0.10511495183329073
10
-11.749994016716556
20
17.591692349760361
10
-11.749994016716565
20
13.807897159101332
42
-0.1291177834440716
10
-12.395159167222047
20
11.351189314519877
42
0.26261370554437968
10
-12.395159167222049
20
8.6488106854802762
42
-0.12911778344407171
10
-11.749994016716565
20
6.1921028408988175
10
-11.749994016716565
20
-6.192102840898829
42
-0.12911778344406855
10
-12.395159167222015
20
-8.6488106854802318
42
0.26261370554437302
10
-12.395159167222014
20
-11.351189314519774
42
-0.12911778344406832
0
ENDSEC
0
SECTION
2
OBJECTS
0
DICTIONARY
5
C
100
AcDbDictionary
3
ACAD_GROUP
350
D
3
ACAD_MLINESTYLE
350
17
0
DICTIONARY
5
D
100
AcDbDictionary
0
DICTIONARY
5
1A
330
C
100
AcDbDictionary
0
DICTIONARY
5
17
100
AcDbDictionary
0
ENDSEC
0
EOF
