0
SECTION
2
HEADER
9
$INSUNITS
70
4
9
$ACADVER
1
AC1014
9
$HANDSEED
5
FFFF
0
ENDSEC
0
SECTION
2
TABLES
0
TABLE
2
VPORT
5
8
100
AcDbSymbolTable
0
ENDTAB
0
TABLE
2
LTYPE
5
5
100
AcDbSymbolTable
0
LTYPE
5
14
100
AcDbSymbolTableRecord
100
AcDbLinetypeTableRecord
2
BYBLOCK
70
0
0
LTYPE
5
15
100
AcDbSymbolTableRecord
100
AcDbLinetypeTableRecord
2
BYLAYER
70
0
0
ENDTAB
0
TABLE
2
LAYER
5
2
100
AcDbSymbolTable
70
2
0
LAYER
5
50
100
AcDbSymbolTableRecord
100
AcDbLayerTableRecord
2
0
70
0
6
CONTINUOUS
0
ENDTAB
0
TABLE
2
STYLE
5
3
100
AcDbSymbolTable
70
1
0
STYLE
5
11
100
AcDbSymbolTableRecord
100
AcDbTextStyleTableRecord
2
STANDARD
70
0
0
ENDTAB
0
TABLE
2
VIEW
5
6
100
AcDbSymbolTable
70
0
0
ENDTAB
0
TABLE
2
UCS
5
7
100
AcDbSymbolTable
70
0
0
ENDTAB
0
TABLE
2
APPID
5
9
100
AcDbSymbolTable
70
2
0
APPID
5
12
100
AcDbSymbolTableRecord
100
AcDbRegAppTableRecord
2
ACAD
70
0
0
ENDTAB
0
TABLE
2
DIMSTYLE
5
A
100
AcDbSymbolTable
70
1
0
ENDTAB
0
TABLE
2
BLOCK_RECORD
5
1
100
AcDbSymbolTable
70
1
0
BLOCK_RECORD
5
1F
100
AcDbSymbolTableRecord
100
AcDbBlockTableRecord
2
*MODEL_SPACE
0
BLOCK_RECORD
5
1B
100
AcDbSymbolTableRecord
100
AcDbBlockTableRecord
2
*PAPER_SPACE
0
ENDTAB
0
ENDSEC
0
SECTION
2
BLOCKS
0
BLOCK
5
20
100
AcDbEntity
100
AcDbBlockBegin
2
*MODEL_SPACE
0
ENDBLK
5
21
100
AcDbEntity
100
AcDbBlockEnd
0
BLOCK
5
1C
100
AcDbEntity
100
AcDbBlockBegin
2
*PAPER_SPACE
0
ENDBLK
5
1D
100
AcDbEntity
100
AcDbBlockEnd
0
ENDSEC
0
SECTION
2
ENTITIES
0
LWPOLYLINE
5
100
100
AcDbEntity
8
0
100
AcDbPolyline
90
56
70
1
43
0.0
10
16.652243364893184
20
25.308567048036267
42
0.14505632464684901
10
11.361054457755252
20
29.951276124496783
42
0.4129768342788484
10
7.0544996921309169
20
28.373509350657287
10
6.7742791793773849
20
27.772574521788638
42
-0.2914734195860878
10
3.2070517296011278
20
25.500000000000025
10
-3.2070517296011269
20
25.500000000000025
42
-0.29147341958608791
10
-6.7742791793773849
20
27.772574521788638
10
-7.0544996921309
20
28.373509350657294
42
0.41297683427884885
10
-11.361054457755245
20
29.951276124496783
42
0.14505632464684873
10
-16.65224336489317
20
25.308567048036281
42
0.31373969714776884
10
-15.783637391964939
20
22.587596298110512
42
-0.43664090180173842
10
-15.509288015000138
20
19.666666666666682
42
0.38196601125010532
10
-15.509288015000138
20
16.33333333333335
42
-0.38196601125010471
10
-15.509288015000138
20
13.666666666666686
42
0.38196601125010621
10
-15.509288015000138
20
10.33333333333335
42
-0.38196601125010471
10
-15.509288015000138
20
7.6666666666666838
42
0.38196601125010554
10
-15.509288015000141
20
4.3333333333333499
42
-0.3819660112501061
10
-15.509288015000145
20
1.6666666666666803
42
0.3819660112501056
10
-15.509288015000147
20
-1.6666666666666625
42
-0.38196601125010565
10
-15.50928801500014
20
-4.3333333333333313
42
0.38196601125010565
10
-15.509288015000141
20
-7.6666666666666661
42
-0.38196601125010471
10
-15.509288015000141
20
-10.333333333333332
42
0.38196601125010621
10
-15.509288015000141
20
-13.666666666666668
42
-0.3819660112501056
10
-15.509288015000145
20
-16.333333333333336
42
0.38196601125010554
10
-15.509288015000141
20
-19.666666666666671
42
-0.43664090180173631
10
-15.783637391964939
20
-22.587596298110498
42
0.31373969714777011
10
-16.652243364893174
20
-25.308567048036259
42
0.27288798079741838
10
-10.767647058823597
20
-30.670588235294115
42
0.05953063591317375
10
-9.8812250081548623
20
-30.748118528183475
42
0.27638648861645049
10
-5.3437465144327696
20
-27.833407692101222
42
-0.20806321472041331
10
-4.4285714285714413
20
-27.062527728750148
42
0.33167926656827867
10
-3.0000000000000053
20
-25.145898033750321
10
-3.0000000000000036
20
-24.000000000000014
42
-0.99999999999999989
10
2.9999999999999973
20
-24.000000000000014
10
2.9999999999999964
20
-25.145898033750321
42
0.33167926656827834
10
4.4285714285714386
20
-27.062527728750151
42
-0.2080632147204074
10
5.3437465144327625
20
-27.833407692101222
42
0.27638648861645043
10
9.8812250081548463
20
-30.748118528183468
42
0.05953063591317375
10
10.767647058823581
20
-30.670588235294119
42
0.27288798079741849
10
16.65224336489317
20
-25.308567048036274
42
0.31373969714776961
10
15.783637391964939
20
-22.587596298110512
42
-0.43664090180173876
10
15.50928801500014
20
-19.666666666666679
42
0.38196601125010621
10
15.509288015000141
20
-16.333333333333336
42
-0.38196601125010515
10
15.509288015000141
20
-13.666666666666675
42
0.38196601125010471
10
15.509288015000138
20
-10.333333333333339
42
-0.38196601125010488
10
15.50928801500014
20
-7.6666666666666732
42
0.38196601125010426
10
15.50928801500014
20
-4.3333333333333401
42
-0.38196601125010587
10
15.509288015000147
20
-1.6666666666666696
42
0.38196601125010715
10
15.509288015000147
20
1.6666666666666772
42
-0.38196601125010582
10
15.509288015000145
20
4.3333333333333437
42
0.38196601125010471
10
15.509288015000141
20
7.6666666666666794
42
-0.38196601125010471
10
15.509288015000141
20
10.333333333333346
42
0.38196601125010443
10
15.509288015000147
20
13.66666666666668
42
-0.38196601125010515
10
15.509288015000147
20
16.333333333333343
42
0.38196601125010532
10
15.509288015000147
20
19.666666666666679
42
-0.43664090180173698
10
15.783637391964945
20
22.587596298110512
42
0.31373969714777017
0
LWPOLYLINE
5
101
100
AcDbEntity
8
0
100
AcDbPolyline
90
8
70
1
43
0.0
10
10.000000000000002
20
-4.8619999999999957
10
10.000000000000002
20
-5.1379999999999999
42
-0.41421356237309503
10
7.1380000000000017
20
-8
10
4.8620000000000001
20
-8
42
-0.41421356237309503
10
1.9999999999999991
20
-5.1379999999999999
10
2
20
-4.8619999999999939
42
-0.41421356237309509
10
4.862000000000001
20
-1.999999999999994
10
7.1380000000000017
20
-1.9999999999999951
42
-0.41421356237309509
0
LWPOLYLINE
5
102
100
AcDbEntity
8
0
100
AcDbPolyline
90
8
70
1
43
0.0
10
10.000000000000007
20
20.138000000000005
10
10.000000000000004
20
14.861999999999998
42
-0.41421356237309503
10
7.1380000000000052
20
11.999999999999996
10
4.8620000000000037
20
11.999999999999996
42
-0.41421356237309503
10
2.0000000000000036
20
14.861999999999998
10
2.0000000000000053
20
20.138000000000005
42
-0.41421356237309515
10
4.8620000000000063
20
23.000000000000007
10
7.138000000000007
20
23.000000000000007
42
-0.41421356237309503
0
LWPOLYLINE
5
103
100
AcDbEntity
8
0
100
AcDbPolyline
90
8
70
1
43
0.0
10
-1.9999999999999982
20
5.1379999999999981
10
-1.9999999999999978
20
4.8620000000000072
42
-0.41421356237309509
10
-4.8619999999999992
20
2.0000000000000071
10
-7.1379999999999981
20
2.0000000000000084
42
-0.41421356237309515
10
-9.9999999999999982
20
4.8620000000000099
10
-9.9999999999999982
20
5.1379999999999981
42
-0.41421356237309498
10
-7.1379999999999981
20
7.9999999999999982
10
-4.8619999999999974
20
7.9999999999999973
42
-0.41421356237309503
0
LWPOLYLINE
5
104
100
AcDbEntity
8
0
100
AcDbPolyline
90
8
70
1
43
0.0
10
-1.9999999999999998
20
-4.8619999999999939
10
-2
20
-5.1379999999999999
42
-0.41421356237309509
10
-4.862000000000001
20
-8
10
-7.1379999999999999
20
-8
42
-0.41421356237309515
10
-10
20
-5.137999999999999
10
-10
20
-4.8619999999999912
42
-0.41421356237309498
10
-7.1379999999999999
20
-1.9999999999999911
10
-4.8619999999999983
20
-1.999999999999994
42
-0.41421356237309503
0
LWPOLYLINE
5
105
100
AcDbEntity
8
0
100
AcDbPolyline
90
8
70
1
43
0.0
10
-7.1379999999999955
20
23.000000000000011
10
-4.8619999999999939
20
23.000000000000011
42
-0.41421356237309498
10
-1.999999999999994
20
20.138000000000012
10
-1.9999999999999962
20
14.861999999999998
42
-0.41421356237309509
10
-4.8619999999999965
20
11.999999999999996
10
-7.1379999999999955
20
11.999999999999996
42
-0.41421356237309503
10
-9.9999999999999964
20
14.861999999999998
10
-9.9999999999999964
20
20.138000000000012
42
-0.41421356237309503
0
LWPOLYLINE
5
106
100
AcDbEntity
8
0
100
AcDbPolyline
90
8
70
1
43
0.0
10
10
20
5.1379999999999981
10
10.000000000000002
20
4.8620000000000054
42
-0.41421356237309498
10
7.1380000000000017
20
2.0000000000000062
10
4.862000000000001
20
2.0000000000000062
42
-0.41421356237309509
10
2.0000000000000018
20
4.8620000000000072
10
2.0000000000000022
20
5.1379999999999981
42
-0.41421356237309509
10
4.8620000000000028
20
7.9999999999999982
10
7.1380000000000017
20
7.9999999999999964
42
-0.41421356237309503
0
CIRCLE
5
107
100
AcDbEntity
8
0
100
AcDbCircle
10
10
20
-10
30
0
40
1.6000000000000014
210
0
220
0
230
1
0
CIRCLE
5
108
100
AcDbEntity
8
0
100
AcDbCircle
10
10
20
9.9999999999999982
30
0
40
1.6000000000000014
210
0
220
0
230
1
0
CIRCLE
5
109
100
AcDbEntity
8
0
100
AcDbCircle
10
-10
20
9.9999999999999982
30
0
40
1.6000000000000014
210
0
220
0
230
1
0
CIRCLE
5
110
100
AcDbEntity
8
0
100
AcDbCircle
10
10.000000000000028
20
27.000000000000014
30
0
40
1.6000000000000014
210
0
220
0
230
1
0
CIRCLE
5
111
100
AcDbEntity
8
0
100
AcDbCircle
10
-10.000000000000002
20
-10
30
0
40
1.5999999999999992
210
0
220
0
230
1
0
CIRCLE
5
112
100
AcDbEntity
8
0
100
AcDbCircle
10
-10.000000000000027
20
-27.000000000000011
30
0
40
1.5999999999999992
210
0
220
0
230
1
0
CIRCLE
5
113
100
AcDbEntity
8
0
100
AcDbCircle
10
10.000000000000018
20
-27.000000000000011
30
0
40
1.6000000000000014
210
0
220
0
230
1
0
CIRCLE
5
114
100
AcDbEntity
8
0
100
AcDbCircle
10
-10.000000000000016
20
27.000000000000021
30
0
40
1.5999999999999992
210
0
220
0
230
1
0
CIRCLE
5
115
100
AcDbEntity
8
0
100
AcDbCircle
10
0
20
0
30
0
40
1.6500000000000001
210
0
220
0
230
1
0
SPLINE
5
116
100
AcDbEntity
8
0
100
AcDbSpline
70
4
71
3
72
8
73
4
74
0
42
0.000000001
43
0.0000000001
44
0.0000000001
40
0
40
0
40
0
40
0
40
1
40
1
40
1
40
1
41
1
41
1
41
1
41
1
10
4.1682580224008969
20
-12.988598054498599
30
0
10
4.1607954972819616
20
-12.901109115634508
30
0
10
4.1543624755231185
20
-12.924782981230685
30
0
10
4.2130316025525421
20
-12.823140923328552
30
0
0
SPLINE
5
117
100
AcDbEntity
8
0
100
AcDbSpline
70
4
71
3
72
8
73
4
74
0
42
0.000000001
43
0.0000000001
44
0.0000000001
40
0
40
0
40
0
40
0
40
0.80496874658827033
40
0.80496874658827033
40
0.80496874658827033
40
0.80496874658827033
41
1
41
1
41
1
41
1
10
4.2130316025525421
20
-12.823140923328552
30
0
10
4.3466334649959562
20
-12.591977899010022
30
0
10
4.3458455250184747
20
-12.593413764331093
30
0
10
4.4268930243640376
20
-12.452978845989735
30
0
0
SPLINE
5
118
100
AcDbEntity
8
0
100
AcDbSpline
70
0
71
3
72
9
73
5
74
0
42
0.000000001
43
0.0000000001
44
0.0000000001
40
0
40
0
40
0
40
0
40
0.5
40
1
40
1
40
1
40
1
10
4.5202727845774398
20
-12.403193074443738
30
0
10
4.5017302599793219
20
-12.401935137983672
30
0
10
4.4639590594041385
20
-12.410035173480512
30
0
10
4.436182791024935
20
-12.436882018413716
30
0
10
4.4268930243642632
20
-12.452978845989346
30
0
0
SPLINE
5
119
100
AcDbEntity
8
0
100
AcDbSpline
70
4
71
3
72
8
73
4
74
0
42
0.000000001
43
0.0000000001
44
0.0000000001
40
0
40
0
40
0
40
0
40
1
40
1
40
1
40
1
41
1
41
1
41
1
41
1
10
4.5202727845774398
20
-12.403193074443738
30
0
10
4.5557831903312174
20
-12.576627875053255
30
0
10
4.5730232488875728
20
-12.696024350551303
30
0
10
4.5902640927249072
20
-12.892617872436462
30
0
0
SPLINE
5
120
100
AcDbEntity
8
0
100
AcDbSpline
70
4
71
3
72
8
73
4
74
0
42
0.000000001
43
0.0000000001
44
0.0000000001
40
0
40
0
40
0
40
0
40
1
40
1
40
1
40
1
41
1
41
1
41
1
41
1
10
4.5902640927249072
20
-12.892617872436462
30
0
10
4.6051883576817971
20
-13.059618866006158
30
0
10
4.6031301362425969
20
-13.020763163292823
30
0
10
4.6051883576817971
20
-13.165378152067671
30
0
0
SPLINE
5
121
100
AcDbEntity
8
0
100
AcDbSpline
70
4
71
3
72
8
73
4
74
0
42
0.000000001
43
0.0000000001
44
0.0000000001
40
0
40
0
40
0
40
0
40
1
40
1
40
1
40
1
41
1
41
1
41
1
41
1
10
4.6051883576817971
20
-13.165378152067671
30
0
10
4.6087912268016185
20
-13.231766591095315
30
0
10
4.6080192956017978
20
-13.215040891578518
30
0
10
4.611621379440642
20
-13.281429330606162
30
0
0
LINE
5
122
100
AcDbEntity
8
0
100
AcDbLine
10
4.611621379440642
20
-13.281429330606162
30
0
11
4.604931570802508
21
-13.3900187693067
31
0
0
SPLINE
5
123
100
AcDbEntity
8
0
100
AcDbSpline
70
4
71
3
72
8
73
4
74
0
42
0.000000001
43
0.0000000001
44
0.0000000001
40
0
40
0
40
0
40
0
40
1
40
1
40
1
40
1
41
1
41
1
41
1
41
1
10
4.604931570802508
20
-13.3900187693067
30
0
10
4.6041588543217093
20
-13.462841015374167
30
0
10
4.6044164264819738
20
-13.44482824033701
30
0
10
4.6031301362425969
20
-13.517649701123503
30
0
0
SPLINE
5
124
100
AcDbEntity
8
0
100
AcDbSpline
70
4
71
3
72
8
73
4
74
0
42
0.000000001
43
0.0000000001
44
0.0000000001
40
0
40
0
40
0
40
0
40
1
40
1
40
1
40
1
41
1
41
1
41
1
41
1
10
4.6031301362425969
20
-13.517649701123503
30
0
10
4.5990129080832194
20
-13.735600509724398
30
0
10
4.547034374972907
20
-14.097908734939875
30
0
10
4.4801307916247257
20
-14.374014311530633
30
0
0
SPLINE
5
125
100
AcDbEntity
8
0
100
AcDbSpline
70
4
71
3
72
8
73
4
74
0
42
0.000000001
43
0.0000000001
44
0.0000000001
40
0
40
0
40
0
40
0
40
1
40
1
40
1
40
1
41
1
41
1
41
1
41
1
10
4.4801307916247257
20
-14.374014311530633
30
0
10
4.2320730956688095
20
-15.398151061426308
30
0
10
3.625053256737949
20
-16.320388966540555
30
0
10
2.7815554751294824
20
-16.955714258266529
30
0
0
SPLINE
5
126
100
AcDbEntity
8
0
100
AcDbSpline
70
4
71
3
72
8
73
4
74
0
42
0.000000001
43
0.0000000001
44
0.0000000001
40
0
40
0
40
0
40
0
40
0.85633569288858358
40
0.85633569288858358
40
0.85633569288858358
40
0.85633569288858358
41
1
41
1
41
1
41
1
10
2.7815554751294824
20
-16.955714258266529
30
0
10
2.4397876858910443
20
-17.212866558609967
30
0
10
2.07216918823611
20
-17.418504019152042
30
0
10
1.6772442765117899
20
-17.572951116288287
30
0
0
SPLINE
5
127
100
AcDbEntity
8
0
100
AcDbSpline
70
0
71
3
72
9
73
5
74
0
42
0.000000001
43
0.0000000001
44
0.0000000001
40
-1
40
-1
40
-1
40
-1
40
-0.5
40
0
40
0
40
0
40
0
10
1.5540565054490652
20
-17.430103906865732
30
0
10
1.5336406181735831
20
-17.465734499457426
30
0
10
1.5438656932231098
20
-17.563432794493504
30
0
10
1.6389997249280506
20
-17.587907782221556
30
0
10
1.6772442765117894
20
-17.572951116288287
30
0
0
SPLINE
5
128
100
AcDbEntity
8
0
100
AcDbSpline
70
4
71
3
72
8
73
4
74
0
42
0.000000001
43
0.0000000001
44
0.0000000001
40
0.44041722418520801
40
0.44041722418520801
40
0.44041722418520801
40
0.44041722418520801
40
1
40
1
40
1
40
1
41
1
41
1
41
1
41
1
10
1.5540565054490649
20
-17.430103906865732
30
0
10
1.590010003729045
20
-17.367356477269634
30
0
10
1.6180508835309566
20
-17.318198646191984
30
0
10
1.711358069561808
20
-17.154623573751156
30
0
0
SPLINE
5
129
100
AcDbEntity
8
0
100
AcDbSpline
70
4
71
3
72
8
73
4
74
0
42
0.000000001
43
0.0000000001
44
0.0000000001
40
0
40
0
40
0
40
0
40
1
40
1
40
1
40
1
41
1
41
1
41
1
41
1
10
1.711358069561808
20
-17.154623573751156
30
0
10
1.759991305712566
20
-17.06945042848653
30
0
10
1.7340024317978975
20
-17.090293356162711
30
0
10
1.8943128314484803
20
-17.009751798097017
30
0
0
SPLINE
5
130
100
AcDbEntity
8
0
100
AcDbSpline
70
4
71
3
72
8
73
4
74
0
42
0.000000001
43
0.0000000001
44
0.0000000001
40
0
40
0
40
0
40
0
40
1
40
1
40
1
40
1
41
1
41
1
41
1
41
1
10
1.8943128314484803
20
-17.009751798097017
30
0
10
2.8358505871202389
20
-16.537310271781362
30
0
10
3.5723027924278128
20
-15.703848381051559
30
0
10
3.9394993917215126
20
-14.694892682992066
30
0
0
SPLINE
5
131
100
AcDbEntity
8
0
100
AcDbSpline
70
4
71
3
72
8
73
4
74
0
42
0.000000001
43
0.0000000001
44
0.0000000001
40
0
40
0
40
0
40
0
40
1
40
1
40
1
40
1
41
1
41
1
41
1
41
1
10
3.9394993917215126
20
-14.694892682992066
30
0
10
4.065329674259381
20
-14.34931094257437
30
0
10
4.1366072726462289
20
-14.01350752087507
30
0
10
4.1698018848005418
20
-13.608741509107416
30
0
0
LINE
5
132
100
AcDbEntity
8
0
100
AcDbLine
10
4.1698018848005418
20
-13.608741509107418
30
0
11
4.1795794182379638
21
-13.489601820488657
31
0
0
SPLINE
5
133
100
AcDbEntity
8
0
100
AcDbSpline
70
4
71
3
72
8
73
4
74
0
42
0.000000001
43
0.0000000001
44
0.0000000001
40
0
40
0
40
0
40
0
40
1
40
1
40
1
40
1
41
1
41
1
41
1
41
1
10
4.1795794182379638
20
-13.489601820488657
30
0
10
4.1839542185576084
20
-13.116486558475668
30
0
10
4.1857556531175195
20
-13.188021729022783
30
0
10
4.1682580224008969
20
-12.988598054498599
30
0
0
LINE
5
134
100
AcDbEntity
8
0
100
AcDbLine
10
-0.24428054512695474
20
-11.302374815121976
30
0
11
-0.25174305923279239
21
-11.302383880737567
31
0
0
LINE
5
135
100
AcDbEntity
8
0
100
AcDbLine
10
-0.25174305923279239
20
-11.302383880737567
30
0
11
-3.4178188863170398
21
-11.306234471121089
31
0
0
LINE
5
136
100
AcDbEntity
8
0
100
AcDbLine
10
-3.4178188863170398
20
-11.306234471121089
30
0
11
-3.4214213627963725
21
-11.306234471121087
31
0
0
LINE
5
137
100
AcDbEntity
8
0
100
AcDbLine
10
-3.4214213627963725
20
-11.306234471121087
30
0
11
-3.4252810187954843
21
-11.309836947600422
31
0
0
LINE
5
138
100
AcDbEntity
8
0
100
AcDbLine
10
-3.4252810187954843
20
-11.309836947600422
30
0
11
-3.4252810187954847
21
-11.313696996240022
31
0
0
LINE
5
139
100
AcDbEntity
8
0
100
AcDbLine
10
-3.4252810187954847
20
-11.313696996240022
30
0
11
-3.4291410674350837
21
-11.317556652239134
31
0
0
LINE
5
140
100
AcDbEntity
8
0
100
AcDbLine
10
-3.4291410674350837
20
-11.317556652239134
30
0
11
-3.4252810187954847
21
-11.325018784717575
31
0
0
LINE
5
141
100
AcDbEntity
8
0
100
AcDbLine
10
-3.4252810187954847
20
-11.325018784717575
30
0
11
-3.4214213627963734
21
-11.328621261196909
31
0
0
SPLINE
5
142
100
AcDbEntity
8
0
100
AcDbSpline
70
4
71
3
72
8
73
4
74
0
42
0.000000001
43
0.0000000001
44
0.0000000001
40
-1
40
-1
40
-1
40
-1
40
0
40
0
40
0
40
0
41
1
41
1
41
1
41
1
10
-3.421421362796373
20
-11.328621261196909
30
0
10
-3.4209066111163282
20
-11.332223737676244
30
0
10
-3.4067542773592607
20
-11.358728148551933
30
0
10
-3.3951745240809501
20
-11.3777696416682
30
0
0
LINE
5
143
100
AcDbEntity
8
0
100
AcDbLine
10
-3.3951745240809501
20
-11.377769641668202
30
0
11
-3.3913148680818384
21
-11.381372118147537
31
0
0
SPLINE
5
144
100
AcDbEntity
8
0
100
AcDbSpline
70
4
71
3
72
8
73
4
74
0
42
0.000000001
43
0.0000000001
44
0.0000000001
40
-1
40
-1
40
-1
40
-1
40
0
40
0
40
0
40
0
41
1
41
1
41
1
41
1
10
-3.3913148680818388
20
-11.381372118147535
30
0
10
-3.390028185201972
20
-11.388319891586423
30
0
10
-3.3905429368820164
20
-11.386776029186779
30
0
10
-3.3877123916025056
20
-11.39269429926558
30
0
0
LINE
5
145
100
AcDbEntity
8
0
100
AcDbLine
10
-3.3877123916025056
20
-11.392694299265582
30
0
11
-3.379992686963794
21
-11.40015682438451
31
0
0
LINE
5
146
100
AcDbEntity
8
0
100
AcDbLine
10
-3.379992686963794
20
-11.40015682438451
30
0
11
-3.379992686963794
21
-11.404016480383623
31
0
0
LINE
5
147
100
AcDbEntity
8
0
100
AcDbLine
10
-3.379992686963794
20
-11.404016480383623
30
0
11
-3.3763902104844608
21
-11.407876136382736
31
0
0
LINE
5
148
100
AcDbEntity
8
0
100
AcDbLine
10
-3.3763902104844608
20
-11.407876136382736
30
0
11
-3.3058841506569481
21
-11.532934095080297
31
0
0
SPLINE
5
149
100
AcDbEntity
8
0
100
AcDbSpline
70
4
71
3
72
8
73
4
74
0
42
0.000000001
43
0.0000000001
44
0.0000000001
40
-1
40
-1
40
-1
40
-1
40
0
40
0
40
0
40
0
41
1
41
1
41
1
41
1
10
-3.3058841506569481
20
-11.532934095080293
30
0
10
-3.2968781557788587
20
-11.548888256037761
30
0
10
-3.2901875618597476
20
-11.560210044515316
30
0
10
-3.2822106777012583
20
-11.573333660193272
30
0
0
LINE
5
150
100
AcDbEntity
8
0
100
AcDbLine
10
-3.2822106777012583
20
-11.573333660193274
30
0
11
-3.2783510217021465
21
-11.577193316192385
31
0
0
SPLINE
5
151
100
AcDbEntity
8
0
100
AcDbSpline
70
4
71
3
72
8
73
4
74
0
42
0.000000001
43
0.0000000001
44
0.0000000001
40
-1
40
-1
40
-1
40
-1
40
0
40
0
40
0
40
0
41
1
41
1
41
1
41
1
10
-3.2783510217021465
20
-11.577193316192385
30
0
10
-3.2762924076224582
20
-11.583111586271183
30
0
10
-3.2760352281026801
20
-11.583369158431452
30
0
10
-3.2747485452228133
20
-11.588515497310429
30
0
0
LINE
5
152
100
AcDbEntity
8
0
100
AcDbLine
10
-3.2747485452228138
20
-11.588515497310429
30
0
11
-3.2708884965832135
21
-11.59237515330954
31
0
0
LINE
5
153
100
AcDbEntity
8
0
100
AcDbLine
10
-3.2708884965832135
20
-11.59237515330954
30
0
11
-3.2708884965832135
21
-11.595977629788873
31
0
0
LINE
5
154
100
AcDbEntity
8
0
100
AcDbLine
10
-3.2708884965832135
20
-11.595977629788873
30
0
11
-3.2634263641047685
21
-11.603440154907808
31
0
0
SPLINE
5
155
100
AcDbEntity
8
0
100
AcDbSpline
70
4
71
3
72
8
73
4
74
0
42
0.000000001
43
0.0000000001
44
0.0000000001
40
-1
40
-1
40
-1
40
-1
40
0
40
0
40
0
40
0
41
1
41
1
41
1
41
1
10
-3.2634263641047685
20
-11.603440154907807
30
0
10
-3.2549347282662349
20
-11.623768330903941
30
0
10
-3.2564785906658802
20
-11.620680606104653
30
0
10
-3.2461859129079236
20
-11.635605263702029
30
0
0
SPLINE
5
156
100
AcDbEntity
8
0
100
AcDbSpline
70
4
71
3
72
8
73
4
74
0
42
0.000000001
43
0.0000000001
44
0.0000000001
40
-1
40
-1
40
-1
40
-1
40
0
40
0
40
0
40
0
41
1
41
1
41
1
41
1
10
-3.2461859129079236
20
-11.635605263702029
30
0
10
-3.2322903660301461
20
-11.660307847377318
30
0
10
-3.2358932351499674
20
-11.65413239777874
30
0
10
-3.2219976882721895
20
-11.678834981454031
30
0
0
LINE
5
157
100
AcDbEntity
8
0
100
AcDbLine
10
-3.2219976882721895
20
-11.678834981454031
30
0
11
-3.2181380322730786
21
-11.68269503009363
31
0
0
SPLINE
5
158
100
AcDbEntity
8
0
100
AcDbSpline
70
4
71
3
72
8
73
4
74
0
42
0.000000001
43
0.0000000001
44
0.0000000001
40
-1
40
-1
40
-1
40
-1
40
0
40
0
40
0
40
0
41
1
41
1
41
1
41
1
10
-3.2181380322730786
20
-11.68269503009363
30
0
10
-3.2163365977131675
20
-11.68681225825301
30
0
10
-3.2091316447545006
20
-11.701222164170343
30
0
10
-3.2068158511550338
20
-11.705081820169454
30
0
0
LINE
5
159
100
AcDbEntity
8
0
100
AcDbLine
10
-3.2068158511550338
20
-11.705081820169454
30
0
11
-3.2032133746757001
21
-11.708941868809056
31
0
0
LINE
5
160
100
AcDbEntity
8
0
100
AcDbLine
10
-3.2032133746757001
20
-11.708941868809056
30
0
11
-3.1617846988431215
21
-11.784336695355277
31
0
0
LINE
5
161
100
AcDbEntity
8
0
100
AcDbLine
10
-3.1617846988431215
20
-11.784336695355277
30
0
11
-3.1579246502035216
21
-11.787939564475099
31
0
0
LINE
5
162
100
AcDbEntity
8
0
100
AcDbLine
10
-3.1579246502035216
20
-11.787939564475099
30
0
11
-3.1504625177250767
21
-11.791799220474211
31
0
0
LINE
5
163
100
AcDbEntity
8
0
100
AcDbLine
10
-3.1504625177250767
20
-11.791799220474211
30
0
11
-3.1466028617259649
21
-11.795658876473322
31
0
0
LINE
5
164
100
AcDbEntity
8
0
100
AcDbLine
10
-3.1466028617259649
20
-11.795658876473322
30
0
11
-0.33269003612068027
21
-11.79516216743381
31
0
0
ARC
5
165
100
AcDbEntity
8
0
100
AcDbCircle
10
-0.33267238422232498
20
-11.895162165875862
30
0
40
0.10000000000000001
210
0
220
-0
230
1
100
AcDbArc
50
0.016275809782393166
51
90.010113792814053
0
LINE
5
166
100
AcDbEntity
8
0
100
AcDbLine
10
-0.23267238825701286
20
-11.895133759229331
30
0
11
-0.23247241968640728
21
-12.599083668704058
31
0
0
ARC
5
167
100
AcDbEntity
8
0
100
AcDbCircle
10
-0.33247241565171942
20
-12.599112075350591
30
0
40
0.10000000000000009
210
-0
220
0
230
1
100
AcDbArc
50
-90
51
0.016275809760000134
0
LINE
5
168
100
AcDbEntity
8
0
100
AcDbLine
10
-0.33247241565171942
20
-12.699112075350591
30
0
11
-2.6301596864584855
21
-12.699112075350595
31
0
0
LINE
5
169
100
AcDbEntity
8
0
100
AcDbLine
10
-2.6301596864584855
20
-12.699112075350595
30
0
11
-2.5218278199182147
21
-12.883611484917886
31
0
0
LINE
5
170
100
AcDbEntity
8
0
100
AcDbLine
10
-2.5218278199182147
20
-12.883611484917886
30
0
11
-2.5179677712786148
21
-12.887213568756732
31
0
0
SPLINE
5
171
100
AcDbEntity
8
0
100
AcDbSpline
70
4
71
3
72
8
73
4
74
0
42
0.000000001
43
0.0000000001
44
0.0000000001
40
-1
40
-1
40
-1
40
-1
40
0
40
0
40
0
40
0
41
1
41
1
41
1
41
1
10
-2.5179677712786153
20
-12.88721356875673
30
0
10
-2.5179677712786153
20
-12.889786934516465
30
0
10
-2.5159091571989265
20
-12.895705597235754
30
0
10
-2.5143652947992825
20
-12.898535749874775
30
0
0
LINE
5
172
100
AcDbEntity
8
0
100
AcDbLine
10
-2.5143652947992825
20
-12.898535749874778
30
0
11
-2.5066455901605709
21
-12.905998274993706
31
0
0
LINE
5
173
100
AcDbEntity
8
0
100
AcDbLine
10
-2.5066455901605709
20
-12.905998274993706
30
0
11
-2.5066455901605704
21
-12.909857930992821
31
0
0
LINE
5
174
100
AcDbEntity
8
0
100
AcDbLine
10
-2.5066455901605704
20
-12.909857930992821
30
0
11
-2.5030431136812363
21
-12.913718372272909
31
0
0
SPLINE
5
175
100
AcDbEntity
8
0
100
AcDbSpline
70
4
71
3
72
8
73
4
74
0
42
0.000000001
43
0.0000000001
44
0.0000000001
40
-1
40
-1
40
-1
40
-1
40
0
40
0
40
0
40
0
41
1
41
1
41
1
41
1
10
-2.5030431136812368
20
-12.913718372272909
30
0
10
-2.5012420717618147
20
-12.920408180911043
30
0
10
-2.5025287546416806
20
-12.917834815151309
30
0
10
-2.493522367123103
20
-12.930958430829264
30
0
0
LINE
5
176
100
AcDbEntity
8
0
100
AcDbLine
10
-2.4935223671231035
20
-12.930958430829268
30
0
11
-2.4716499360868358
21
-12.969814133542599
31
0
0
SPLINE
5
177
100
AcDbEntity
8
0
100
AcDbSpline
70
4
71
3
72
8
73
4
74
0
42
0.000000001
43
0.0000000001
44
0.0000000001
40
-1
40
-1
40
-1
40
-1
40
0
40
0
40
0
40
0
41
1
41
1
41
1
41
1
10
-2.4716499360868358
20
-12.969814133542599
30
0
10
-2.4706208253672357
20
-12.9718723549818
30
0
10
-2.4703636458474589
20
-12.972129927142063
30
0
10
-2.4690769629675913
20
-12.973931361701975
30
0
0
LINE
5
178
100
AcDbEntity
8
0
100
AcDbLine
10
-2.4690769629675913
20
-12.973931361701975
30
0
11
-2.4616144378486582
21
-12.981393101539933
31
0
0
LINE
5
179
100
AcDbEntity
8
0
100
AcDbLine
10
-2.4616144378486582
20
-12.981393101539933
30
0
11
-2.4616144378486586
21
-12.985253542820022
31
0
0
LINE
5
180
100
AcDbEntity
8
0
100
AcDbLine
10
-2.4616144378486586
20
-12.985253542820022
30
0
11
-2.4577547818495473
21
-12.988855626658866
31
0
0
SPLINE
5
181
100
AcDbEntity
8
0
100
AcDbSpline
70
4
71
3
72
8
73
4
74
0
42
0.000000001
43
0.0000000001
44
0.0000000001
40
-1
40
-1
40
-1
40
-1
40
0
40
0
40
0
40
0
41
1
41
1
41
1
41
1
10
-2.4577547818495473
20
-12.988855626658866
30
0
10
-2.457240030169503
20
-12.992715282657979
30
0
10
-2.4585267130493693
20
-12.990141916898246
30
0
10
-2.4487483943309698
20
-13.006610829535754
30
0
0
SPLINE
5
182
100
AcDbEntity
8
0
100
AcDbSpline
70
4
71
3
72
8
73
4
74
0
42
0.000000001
43
0.0000000001
44
0.0000000001
40
-1
40
-1
40
-1
40
-1
40
0
40
0
40
0
40
0
41
1
41
1
41
1
41
1
10
-2.4487483943309698
20
-13.006610829535754
30
0
10
-2.4451459178516357
20
-13.013558210334155
30
0
10
-2.4394848272926142
20
-13.023594101212822
30
0
10
-2.4253324935355458
20
-13.047010394648733
30
0
0
LINE
5
183
100
AcDbEntity
8
0
100
AcDbLine
10
-2.4253324935355458
20
-13.047010394648733
30
0
11
-2.4237882384954128
21
-13.049068616087936
31
0
0
LINE
5
184
100
AcDbEntity
8
0
100
AcDbLine
10
-2.4237882384954128
20
-13.049068616087936
30
0
11
-2.4201857620160796
21
-13.052928272087048
31
0
0
LINE
5
185
100
AcDbEntity
8
0
100
AcDbLine
10
-2.4201857620160796
20
-13.052928272087048
30
0
11
-2.2807178974011872
21
-13.290178145964475
31
0
0
LINE
5
186
100
AcDbEntity
8
0
100
AcDbLine
10
-2.2807178974011872
20
-13.290178145964475
30
0
11
-2.277115420921854
21
-13.293781015084296
31
0
0
SPLINE
5
187
100
AcDbEntity
8
0
100
AcDbSpline
70
4
71
3
72
8
73
4
74
0
42
0.000000001
43
0.0000000001
44
0.0000000001
40
-1
40
-1
40
-1
40
-1
40
0
40
0
40
0
40
0
41
1
41
1
41
1
41
1
10
-2.2771154209218536
20
-13.293781015084296
30
0
10
-2.2771154209218536
20
-13.296354380844029
30
0
10
-2.2750568068421648
20
-13.302272258282342
30
0
10
-2.2732557649227427
20
-13.305103196202342
30
0
0
LINE
5
188
100
AcDbEntity
8
0
100
AcDbLine
10
-2.2732557649227427
20
-13.305103196202342
30
0
11
-2.2657932398038083
21
-13.312565721321272
31
0
0
LINE
5
189
100
AcDbEntity
8
0
100
AcDbLine
10
-2.2657932398038083
20
-13.312565721321272
30
0
11
-2.2657932398038088
21
-13.316425377320385
31
0
0
LINE
5
190
100
AcDbEntity
8
0
100
AcDbLine
10
-2.2657932398038088
20
-13.316425377320385
30
0
11
-2.2619335838046974
21
-13.320285033319497
31
0
0
SPLINE
5
191
100
AcDbEntity
8
0
100
AcDbSpline
70
4
71
3
72
8
73
4
74
0
42
0.000000001
43
0.0000000001
44
0.0000000001
40
-1
40
-1
40
-1
40
-1
40
0
40
0
40
0
40
0
41
1
41
1
41
1
41
1
10
-2.261933583804697
20
-13.320285033319497
30
0
10
-2.260389721405053
20
-13.326975627238609
30
0
10
-2.2616764042849189
20
-13.324402261478877
30
0
10
-2.2526700167663414
20
-13.337525091875854
30
0
0
LINE
5
192
100
AcDbEntity
8
0
100
AcDbLine
10
-2.2526700167663414
20
-13.337525091875854
30
0
11
-2.230540406210296
21
-13.376380794589187
31
0
0
SPLINE
5
193
100
AcDbEntity
8
0
100
AcDbSpline
70
4
71
3
72
8
73
4
74
0
42
0.000000001
43
0.0000000001
44
0.0000000001
40
-1
40
-1
40
-1
40
-1
40
0
40
0
40
0
40
0
41
1
41
1
41
1
41
1
10
-2.230540406210296
20
-13.376380794589187
30
0
10
-2.229768475010474
20
-13.378439801309366
30
0
10
-2.2295112954906959
20
-13.378696588188655
30
0
10
-2.2282246126108296
20
-13.380498022748565
30
0
0
LINE
5
194
100
AcDbEntity
8
0
100
AcDbLine
10
-2.2282246126108296
20
-13.380498022748565
30
0
11
-2.2205049079721184
21
-13.387960547867497
31
0
0
LINE
5
195
100
AcDbEntity
8
0
100
AcDbLine
10
-2.2205049079721184
20
-13.387960547867497
30
0
11
-2.2205049079721189
21
-13.391820203866608
31
0
0
LINE
5
196
100
AcDbEntity
8
0
100
AcDbLine
10
-2.2205049079721189
20
-13.391820203866608
30
0
11
-2.2169024314927852
21
-13.395422287705452
31
0
0
SPLINE
5
197
100
AcDbEntity
8
0
100
AcDbSpline
70
4
71
3
72
8
73
4
74
0
42
0.000000001
43
0.0000000001
44
0.0000000001
40
-1
40
-1
40
-1
40
-1
40
0
40
0
40
0
40
0
41
1
41
1
41
1
41
1
10
-2.2169024314927857
20
-13.395422287705454
30
0
10
-2.2161305002929632
20
-13.399282728985543
30
0
10
-2.2174171831728295
20
-13.396709363225812
30
0
10
-2.2078960439742068
20
-13.413177490582344
30
0
0
SPLINE
5
198
100
AcDbEntity
8
0
100
AcDbSpline
70
4
71
3
72
8
73
4
74
0
42
0.000000001
43
0.0000000001
44
0.0000000001
40
-1
40
-1
40
-1
40
-1
40
0
40
0
40
0
40
0
41
1
41
1
41
1
41
1
10
-2.2078960439742068
20
-13.413177490582344
30
0
10
-2.204293567494874
20
-13.420125656661721
30
0
10
-2.1986324769358512
20
-13.430160762259412
30
0
10
-2.1844801431787841
20
-13.453577055695323
30
0
0
LINE
5
199
100
AcDbEntity
8
0
100
AcDbLine
10
-2.1844801431787841
20
-13.453577055695323
30
0
11
-2.1829358881386511
21
-13.455636062415499
31
0
0
LINE
5
200
100
AcDbEntity
8
0
100
AcDbLine
10
-2.1829358881386511
20
-13.455636062415499
30
0
11
-2.1790762321395394
21
-13.459495718414612
31
0
0
LINE
5
201
100
AcDbEntity
8
0
100
AcDbLine
10
-2.1790762321395394
20
-13.459495718414612
30
0
11
-2.0324034145659797
21
-13.711669857248928
31
0
0
LINE
5
202
100
AcDbEntity
8
0
100
AcDbLine
10
-2.0324034145659797
20
-13.711669857248928
30
0
11
-2.0249408894470466
21
-13.719389954528129
31
0
0
LINE
5
203
100
AcDbEntity
8
0
100
AcDbLine
10
-2.0249408894470466
20
-13.719389954528129
30
0
11
-2.0249408894470471
21
-13.722992038366971
31
0
0
LINE
5
204
100
AcDbEntity
8
0
100
AcDbLine
10
-2.0249408894470471
20
-13.722992038366971
30
0
11
-2.0210812334479358
21
-13.726851694366086
31
0
0
SPLINE
5
205
100
AcDbEntity
8
0
100
AcDbSpline
70
4
71
3
72
8
73
4
74
0
42
0.000000001
43
0.0000000001
44
0.0000000001
40
-1
40
-1
40
-1
40
-1
40
0
40
0
40
0
40
0
41
1
41
1
41
1
41
1
10
-2.0210812334479353
20
-13.726851694366085
30
0
10
-2.0192797988880251
20
-13.733542288285197
30
0
10
-2.0208240539281572
20
-13.730968922525463
30
0
10
-2.0118176664095797
20
-13.744092538203422
30
0
0
LINE
5
206
100
AcDbEntity
8
0
100
AcDbLine
10
-2.0118176664095797
20
-13.744092538203423
30
0
11
-1.9896880558535344
21
-13.782948240916753
31
0
0
SPLINE
5
207
100
AcDbEntity
8
0
100
AcDbSpline
70
4
71
3
72
8
73
4
74
0
42
0.000000001
43
0.0000000001
44
0.0000000001
40
-1
40
-1
40
-1
40
-1
40
0
40
0
40
0
40
0
41
1
41
1
41
1
41
1
10
-1.9896880558535346
20
-13.782948240916753
30
0
10
-1.9889161246537124
20
-13.785006462355955
30
0
10
-1.9886589451339343
20
-13.785264034516221
30
0
10
-1.9871146900938019
20
-13.787064683795155
30
0
0
LINE
5
208
100
AcDbEntity
8
0
100
AcDbLine
10
-1.9871146900938019
20
-13.787064683795155
30
0
11
-1.9835122136144676
21
-13.790667552914977
31
0
0
LINE
5
209
100
AcDbEntity
8
0
100
AcDbLine
10
-1.9835122136144676
20
-13.790667552914977
30
0
11
-1.9665293345778891
21
-13.819229792589381
31
0
0
SPLINE
5
210
100
AcDbEntity
8
0
100
AcDbSpline
70
4
71
3
72
8
73
4
74
0
42
0.000000001
43
0.0000000001
44
0.0000000001
40
-1
40
-1
40
-1
40
-1
40
0
40
0
40
0
40
0
41
1
41
1
41
1
41
1
10
-1.9665293345778889
20
-13.819229792589379
30
0
10
-1.9572657675395333
20
-13.838272070986621
30
0
10
-1.9593243816192218
20
-13.834926774027068
30
0
10
-1.9528913598603781
20
-13.843161230345821
30
0
0
SPLINE
5
211
100
AcDbEntity
8
0
100
AcDbSpline
70
4
71
3
72
8
73
4
74
0
42
0.000000001
43
0.0000000001
44
0.0000000001
40
-1
40
-1
40
-1
40
-1
40
0
40
0
40
0
40
0
41
1
41
1
41
1
41
1
10
-1.9528913598603781
20
-13.843161230345821
30
0
10
-1.949288883381044
20
-13.848050389705023
30
0
10
-1.9482593800209558
20
-13.850108611144222
30
0
10
-1.9433702206617554
20
-13.859886929862624
30
0
0
LINE
5
212
100
AcDbEntity
8
0
100
AcDbLine
10
-1.9433702206617554
20
-13.859886929862624
30
0
11
-1.9420835377818892
21
-13.86220272346209
31
0
0
LINE
5
213
100
AcDbEntity
8
0
100
AcDbLine
10
-1.9420835377818892
20
-13.86220272346209
30
0
11
-1.9382238817827779
21
-13.866062379461201
31
0
0
SPLINE
5
214
100
AcDbEntity
8
0
100
AcDbSpline
70
4
71
3
72
8
73
4
74
0
42
0.000000001
43
0.0000000001
44
0.0000000001
40
-1
40
-1
40
-1
40
-1
40
0
40
0
40
0
40
0
41
1
41
1
41
1
41
1
10
-1.9382238817827779
20
-13.866062379461201
30
0
10
-1.9364228398633554
20
-13.870437179780843
30
0
10
-1.9292174942642004
20
-13.884589513537913
30
0
10
-1.9269017006647327
20
-13.888706741697289
30
0
0
LINE
5
215
100
AcDbEntity
8
0
100
AcDbLine
10
-1.9269017006647324
20
-13.888706741697289
30
0
11
-1.9232992241853997
21
-13.892309610817112
31
0
0
LINE
5
216
100
AcDbEntity
8
0
100
AcDbLine
10
-1.9232992241853997
20
-13.892309610817112
30
0
11
-1.7915510642092181
21
-14.118237303576498
31
0
0
LINE
5
217
100
AcDbEntity
8
0
100
AcDbLine
10
-1.7915510642092181
20
-14.118237303576498
30
0
11
-1.7838313595705069
21
-14.125956615574719
31
0
0
LINE
5
218
100
AcDbEntity
8
0
100
AcDbLine
10
-1.7838313595705069
20
-14.125956615574719
30
0
11
-1.7838313595705073
21
-14.129559484694539
31
0
0
LINE
5
219
100
AcDbEntity
8
0
100
AcDbLine
10
-1.7838313595705073
20
-14.129559484694539
30
0
11
-1.7802288830911739
21
-14.133419140693649
31
0
0
SPLINE
5
220
100
AcDbEntity
8
0
100
AcDbSpline
70
4
71
3
72
8
73
4
74
0
42
0.000000001
43
0.0000000001
44
0.0000000001
40
-1
40
-1
40
-1
40
-1
40
0
40
0
40
0
40
0
41
1
41
1
41
1
41
1
10
-1.7802288830911739
20
-14.13341914069365
30
0
10
-1.7784274485312623
20
-14.140108949331786
30
0
10
-1.7797141314111287
20
-14.137536368853031
30
0
10
-1.7707081365330402
20
-14.150659199250008
30
0
0
LINE
5
221
100
AcDbEntity
8
0
100
AcDbLine
10
-1.7707081365330404
20
-14.150659199250008
30
0
11
-1.7488357054967729
21
-14.189514901963342
31
0
0
SPLINE
5
222
100
AcDbEntity
8
0
100
AcDbSpline
70
4
71
3
72
8
73
4
74
0
42
0.000000001
43
0.0000000001
44
0.0000000001
40
-1
40
-1
40
-1
40
-1
40
0
40
0
40
0
40
0
41
1
41
1
41
1
41
1
10
-1.7488357054967729
20
-14.189514901963342
30
0
10
-1.7478065947771726
20
-14.191573123402543
30
0
10
-1.7475490226169066
20
-14.19183069556281
30
0
10
-1.7462623397370391
20
-14.193632130122719
30
0
0
LINE
5
223
100
AcDbEntity
8
0
100
AcDbLine
10
-1.7462623397370391
20
-14.193632130122719
30
0
11
-1.7424026837379281
21
-14.197491786121832
31
0
0
LINE
5
224
100
AcDbEntity
8
0
100
AcDbLine
10
-1.7424026837379281
20
-14.197491786121832
30
0
11
-1.7256769842211275
21
-14.225797238916947
31
0
0
SPLINE
5
225
100
AcDbEntity
8
0
100
AcDbSpline
70
4
71
3
72
8
73
4
74
0
42
0.000000001
43
0.0000000001
44
0.0000000001
40
-1
40
-1
40
-1
40
-1
40
0
40
0
40
0
40
0
41
1
41
1
41
1
41
1
10
-1.7256769842211273
20
-14.225797238916943
30
0
10
-1.7164134171827716
20
-14.244838732033212
30
0
10
-1.7182144591021942
20
-14.241493435073656
30
0
10
-1.7117814373433493
20
-14.249727891392411
30
0
0
SPLINE
5
226
100
AcDbEntity
8
0
100
AcDbSpline
70
4
71
3
72
8
73
4
74
0
42
0.000000001
43
0.0000000001
44
0.0000000001
40
-1
40
-1
40
-1
40
-1
40
0
40
0
40
0
40
0
41
1
41
1
41
1
41
1
10
-1.7117814373433493
20
-14.249727891392411
30
0
10
-1.7084365330242823
20
-14.254617050751612
30
0
10
-1.707149850144416
20
-14.256675272190812
30
0
10
-1.7022606907852156
20
-14.266453590909212
30
0
0
LINE
5
227
100
AcDbEntity
8
0
100
AcDbLine
10
-1.7022606907852154
20
-14.266453590909212
30
0
11
-1.7009740079053497
21
-14.26876938450868
31
0
0
LINE
5
228
100
AcDbEntity
8
0
100
AcDbLine
10
-1.7009740079053497
20
-14.26876938450868
30
0
11
-1.6973715314260163
21
-14.272629825788767
31
0
0
SPLINE
5
229
100
AcDbEntity
8
0
100
AcDbSpline
70
4
71
3
72
8
73
4
74
0
42
0.000000001
43
0.0000000001
44
0.0000000001
40
-1
40
-1
40
-1
40
-1
40
0
40
0
40
0
40
0
41
1
41
1
41
1
41
1
10
-1.6973715314260163
20
-14.272629825788767
30
0
10
-1.6950557378265485
20
-14.278547703227078
30
0
10
-1.6950557378265485
20
-14.278805275387345
30
0
10
-1.6935118754269041
20
-14.28395200690681
30
0
0
LINE
5
230
100
AcDbEntity
8
0
100
AcDbLine
10
-1.6935118754269041
20
-14.28395200690681
30
0
11
-1.6899093989475711
21
-14.287811662905924
31
0
0
LINE
5
231
100
AcDbEntity
8
0
100
AcDbLine
10
-1.6899093989475711
20
-14.287811662905924
30
0
11
-1.6899093989475711
21
-14.291413746744766
31
0
0
LINE
5
232
100
AcDbEntity
8
0
100
AcDbLine
10
-1.6899093989475711
20
-14.291413746744766
30
0
11
-1.6821896943088597
21
-14.299133844023968
31
0
0
SPLINE
5
233
100
AcDbEntity
8
0
100
AcDbSpline
70
4
71
3
72
8
73
4
74
0
42
0.000000001
43
0.0000000001
44
0.0000000001
40
-1
40
-1
40
-1
40
-1
40
0
40
0
40
0
40
0
41
1
41
1
41
1
41
1
10
-1.6821896943088599
20
-14.299133844023967
30
0
10
-1.6780724661494817
20
-14.309168949621656
30
0
10
-1.6760138520697931
20
-14.312514246581213
30
0
10
-1.668294147431082
20
-14.322806924339169
30
0
0
SPLINE
5
234
100
AcDbEntity
8
0
100
AcDbSpline
70
4
71
3
72
8
73
4
74
0
42
0.000000001
43
0.0000000001
44
0.0000000001
40
-1
40
-1
40
-1
40
-1
40
0
40
0
40
0
40
0
41
1
41
1
41
1
41
1
10
-1.668294147431082
20
-14.322806924339169
30
0
10
-1.6654636021515712
20
-14.32666658033828
30
0
10
-1.664949243112015
20
-14.32846801489819
30
0
10
-1.6634053807123705
20
-14.336702471216947
30
0
0
LINE
5
235
100
AcDbEntity
8
0
100
AcDbLine
10
-1.6634053807123703
20
-14.336702471216947
30
0
11
-1.6672650367114816
21
-14.340304555055791
31
0
0
LINE
5
236
100
AcDbEntity
8
0
100
AcDbLine
10
-1.6672650367114816
20
-14.340304555055791
30
0
11
-1.6672650367114816
21
-14.344164996335881
31
0
0
SPLINE
5
237
100
AcDbEntity
8
0
100
AcDbSpline
70
4
71
3
72
8
73
4
74
0
42
0.000000001
43
0.0000000001
44
0.0000000001
40
-1
40
-1
40
-1
40
-1
40
-0.19710800019574778
40
-0.19710800019574778
40
-0.19710800019574778
40
-0.19710800019574778
41
1
41
1
41
1
41
1
10
-1.6672650367114816
20
-14.344164996335881
30
0
10
-1.670157436256221
20
-14.343545218951142
30
0
10
-1.6710593785855021
20
-14.34342305587027
30
0
10
-1.6733002171556635
20
-14.343531882437539
30
0
0
SPLINE
5
238
100
AcDbEntity
8
0
100
AcDbSpline
70
0
71
3
72
10
73
6
74
0
42
0.000000001
43
0.0000000001
44
0.0000000001
40
0
40
0
40
0
40
0
40
0.00024349158357220028
40
0.00024349158357220028
40
0.00048698316716292887
40
0.00048698316716292887
40
0.00048698316716292887
40
0.00048698316716292887
10
-1.6781680843264768
20
-14.343649601268247
30
0
10
-1.6773564457263992
20
-14.34364973984308
30
0
10
-1.6765448355148551
20
-14.343639997054378
30
0
10
-1.6749220327368883
20
-14.343600753081859
30
0
10
-1.6741109003041332
20
-14.343571253352236
30
0
10
-1.6733002171556626
20
-14.343531882437542
30
0
0
SPLINE
5
239
100
AcDbEntity
8
0
100
AcDbSpline
70
4
71
3
72
8
73
4
74
0
42
0.000000001
43
0.0000000001
44
0.0000000001
40
-0.98943178917405883
40
-0.98943178917405883
40
-0.98943178917405883
40
-0.98943178917405883
40
0
40
0
40
0
40
0
41
1
41
1
41
1
41
1
10
-1.6781680843265114
20
-14.343649601268245
30
0
10
-1.7683904146004072
20
-14.343634197190177
30
0
10
-1.7563526182099609
20
-14.342932312559286
30
0
10
-1.7614445694946834
20
-14.348024652334992
30
0
0
LINE
5
240
100
AcDbEntity
8
0
100
AcDbLine
10
-1.7614445694946834
20
-14.34802465233499
30
0
11
-2.6319434089965328
21
-14.355966398056591
31
0
0
ARC
5
241
100
AcDbEntity
8
0
100
AcDbCircle
10
-2.6328556922615052
20
-14.255970559446951
30
0
40
0.10000000000000039
210
0
220
0
230
1
100
AcDbArc
50
208.39889859452475
51
270.52270705868051
0
LINE
5
242
100
AcDbEntity
8
0
100
AcDbLine
10
-2.7208214638315589
20
-14.303531289383374
30
0
11
-2.7212514944423982
21
-14.302735927862811
31
0
0
LINE
5
243
100
AcDbEntity
8
0
100
AcDbLine
10
-2.7212514944423982
20
-14.302735927862811
30
0
11
-2.7251111504415091
21
-14.299133844023968
31
0
0
LINE
5
244
100
AcDbEntity
8
0
100
AcDbLine
10
-2.7251111504415091
20
-14.299133844023968
30
0
11
-2.826752815703157
21
-14.122096959575607
31
0
0
LINE
5
245
100
AcDbEntity
8
0
100
AcDbLine
10
-2.826752815703157
20
-14.122096959575607
30
0
11
-2.83421534082209
21
-14.114634434456674
31
0
0
LINE
5
246
100
AcDbEntity
8
0
100
AcDbLine
10
-2.83421534082209
20
-14.114634434456674
30
0
11
-2.83421534082209
21
-14.110774778457564
31
0
0
LINE
5
247
100
AcDbEntity
8
0
100
AcDbLine
10
-2.83421534082209
20
-14.110774778457564
30
0
11
-2.8380749968212013
21
-14.106915122458453
31
0
0
LINE
5
248
100
AcDbEntity
8
0
100
AcDbLine
10
-2.8380749968212013
20
-14.106915122458453
30
0
11
-2.9772856819163165
21
-13.866062379461201
31
0
0
LINE
5
249
100
AcDbEntity
8
0
100
AcDbLine
10
-2.9772856819163165
20
-13.866062379461201
30
0
11
-2.9811453379154278
21
-13.862202723462092
31
0
0
LINE
5
250
100
AcDbEntity
8
0
100
AcDbLine
10
-2.9811453379154278
20
-13.862202723462092
30
0
11
-2.9824320207952941
21
-13.859886929862624
31
0
0
SPLINE
5
251
100
AcDbEntity
8
0
100
AcDbSpline
70
4
71
3
72
8
73
4
74
0
42
0.000000001
43
0.0000000001
44
0.0000000001
40
-1
40
-1
40
-1
40
-1
40
0
40
0
40
0
40
0
41
1
41
1
41
1
41
1
10
-2.9824320207952941
20
-13.859886929862624
30
0
10
-3.0333814431860069
20
-13.773169922198353
30
0
10
-3.0205153996683176
20
-13.794784781074354
30
0
10
-3.0714648220590308
20
-13.708067773410084
30
0
0
LINE
5
252
100
AcDbEntity
8
0
100
AcDbLine
10
-3.0714648220590308
20
-13.708067773410084
30
0
11
-3.0750676911788521
21
-13.704207332129998
31
0
0
LINE
5
253
100
AcDbEntity
8
0
100
AcDbLine
10
-3.0750676911788521
20
-13.704207332129998
30
0
11
-3.0750676911788521
21
-13.700347676130885
31
0
0
LINE
5
254
100
AcDbEntity
8
0
100
AcDbLine
10
-3.0750676911788521
20
-13.700347676130885
30
0
11
-3.0789273471779639
21
-13.696745592292041
31
0
0
SPLINE
5
255
100
AcDbEntity
8
0
100
AcDbSpline
70
4
71
3
72
8
73
4
74
0
42
0.000000001
43
0.0000000001
44
0.0000000001
40
-1
40
-1
40
-1
40
-1
40
0
40
0
40
0
40
0
41
1
41
1
41
1
41
1
10
-3.0789273471779639
20
-13.696745592292041
30
0
10
-3.0804712095776083
20
-13.691598860772574
30
0
10
-3.0804712095776083
20
-13.691341288612309
30
0
10
-3.0827870031770748
20
-13.685423411173996
30
0
0
LINE
5
256
100
AcDbEntity
8
0
100
AcDbLine
10
-3.0827870031770748
20
-13.685423411173996
30
0
11
-3.0902495282960087
21
-13.677960886055063
31
0
0
LINE
5
257
100
AcDbEntity
8
0
100
AcDbLine
10
-3.0902495282960087
20
-13.677960886055063
30
0
11
-3.0902495282960079
21
-13.67410123005595
31
0
0
LINE
5
258
100
AcDbEntity
8
0
100
AcDbLine
10
-3.0902495282960079
20
-13.67410123005595
30
0
11
-3.0941091842951196
21
-13.670241574056838
31
0
0
SPLINE
5
259
100
AcDbEntity
8
0
100
AcDbSpline
70
4
71
3
72
8
73
4
74
0
42
0.000000001
43
0.0000000001
44
0.0000000001
40
-1
40
-1
40
-1
40
-1
40
0
40
0
40
0
40
0
41
1
41
1
41
1
41
1
10
-3.0941091842951196
20
-13.670241574056838
30
0
10
-3.0966825500548527
20
-13.663808552297994
30
0
10
-3.0964249778945869
20
-13.66432291133755
30
0
10
-3.09899834365432
20
-13.66046325533844
30
0
0
SPLINE
5
260
100
AcDbEntity
8
0
100
AcDbSpline
70
4
71
3
72
8
73
4
74
0
42
0.000000001
43
0.0000000001
44
0.0000000001
40
-1
40
-1
40
-1
40
-1
40
0
40
0
40
0
40
0
41
1
41
1
41
1
41
1
10
-3.09899834365432
20
-13.66046325533844
30
0
10
-3.10388750301352
20
-13.65377266141933
30
0
10
-3.1020860684536089
20
-13.656860386218618
30
0
10
-3.1110924559721864
20
-13.638590824302172
30
0
0
SPLINE
5
261
100
AcDbEntity
8
0
100
AcDbSpline
70
4
71
3
72
8
73
4
74
0
42
0.000000001
43
0.0000000001
44
0.0000000001
40
-1
40
-1
40
-1
40
-1
40
0
40
0
40
0
40
0
41
1
41
1
41
1
41
1
10
-3.1110924559721864
20
-13.638590824302172
30
0
10
-3.1206132025303206
20
-13.622379483824929
30
0
10
-3.1182974089308537
20
-13.626496711984304
30
0
10
-3.1278181554889875
20
-13.610028584627772
30
0
0
LINE
5
262
100
AcDbEntity
8
0
100
AcDbLine
10
-3.1278181554889875
20
-13.61002858462777
30
0
11
-3.1316782041285869
21
-13.606425715507948
31
0
0
LINE
5
263
100
AcDbEntity
8
0
100
AcDbLine
10
-3.1316782041285869
20
-13.606425715507948
30
0
11
-3.2333198693902343
21
-13.42938883105959
31
0
0
LINE
5
264
100
AcDbEntity
8
0
100
AcDbLine
10
-3.2333198693902343
20
-13.42938883105959
30
0
11
-3.2407820018686797
21
-13.421927091221633
31
0
0
LINE
5
265
100
AcDbEntity
8
0
100
AcDbLine
10
-3.2407820018686797
20
-13.421927091221633
30
0
11
-3.2407820018686797
21
-13.418066649941544
31
0
0
LINE
5
266
100
AcDbEntity
8
0
100
AcDbLine
10
-3.2407820018686797
20
-13.418066649941544
30
0
11
-3.2446420505082791
21
-13.414206993942432
31
0
0
LINE
5
267
100
AcDbEntity
8
0
100
AcDbLine
10
-3.2446420505082791
20
-13.414206993942432
30
0
11
-3.2613677500250793
21
-13.382299457308473
31
0
0
SPLINE
5
268
100
AcDbEntity
8
0
100
AcDbSpline
70
4
71
3
72
8
73
4
74
0
42
0.000000001
43
0.0000000001
44
0.0000000001
40
-1
40
-1
40
-1
40
-1
40
0
40
0
40
0
40
0
41
1
41
1
41
1
41
1
10
-3.2613677500250797
20
-13.382299457308475
30
0
10
-3.2768071593025021
20
-13.359655095072387
30
0
10
-3.2744913657030352
20
-13.363514751071497
30
0
10
-3.2783510217021465
20
-13.353994004513364
30
0
0
LINE
5
269
100
AcDbEntity
8
0
100
AcDbLine
10
-3.2783510217021465
20
-13.353994004513364
30
0
11
-3.2822106777012583
21
-13.350391135393544
31
0
0
SPLINE
5
270
100
AcDbEntity
8
0
100
AcDbSpline
70
4
71
3
72
8
73
4
74
0
42
0.000000001
43
0.0000000001
44
0.0000000001
40
-1
40
-1
40
-1
40
-1
40
0
40
0
40
0
40
0
41
1
41
1
41
1
41
1
10
-3.2822106777012583
20
-13.350391135393544
30
0
10
-3.2852987951410357
20
-13.344215685794964
30
0
10
-3.2850412229807695
20
-13.345245189155053
30
0
10
-3.2860707263408577
20
-13.339069739556475
30
0
0
LINE
5
271
100
AcDbEntity
8
0
100
AcDbLine
10
-3.2860707263408577
20
-13.339069739556475
30
0
11
-3.2896732028201918
21
-13.335209298276389
31
0
0
SPLINE
5
272
100
AcDbEntity
8
0
100
AcDbSpline
70
4
71
3
72
8
73
4
74
0
42
0.000000001
43
0.0000000001
44
0.0000000001
40
-1
40
-1
40
-1
40
-1
40
0
40
0
40
0
40
0
41
1
41
1
41
1
41
1
10
-3.2896732028201914
20
-13.335209298276387
30
0
10
-3.2976500869786807
20
-13.322343254758698
30
0
10
-3.3048550399373475
20
-13.310249142440831
30
0
10
-3.313861427455925
20
-13.295067305323673
30
0
0
LINE
5
273
100
AcDbEntity
8
0
100
AcDbLine
10
-3.313861427455925
20
-13.295067305323675
30
0
11
-3.3838527356033938
21
-13.173355036226157
31
0
0
LINE
5
274
100
AcDbEntity
8
0
100
AcDbLine
10
-3.3838527356033938
20
-13.173355036226157
30
0
11
-3.3877123916025056
21
-13.169752167106337
31
0
0
LINE
5
275
100
AcDbEntity
8
0
100
AcDbLine
10
-3.3877123916025056
20
-13.169752167106337
30
0
11
-3.3889990744823715
21
-13.167178801346605
31
0
0
SPLINE
5
276
100
AcDbEntity
8
0
100
AcDbSpline
70
4
71
3
72
8
73
4
74
0
42
0.000000001
43
0.0000000001
44
0.0000000001
40
-1
40
-1
40
-1
40
-1
40
0
40
0
40
0
40
0
41
1
41
1
41
1
41
1
10
-3.3889990744823715
20
-13.167178801346605
30
0
10
-3.4399484968730842
20
-13.080461793682336
30
0
10
-3.427082453355395
20
-13.102076652558337
30
0
10
-3.4780318757461077
20
-13.015359644894067
30
0
0
LINE
5
277
100
AcDbEntity
8
0
100
AcDbLine
10
-3.4780318757461077
20
-13.015359644894067
30
0
11
-3.4816343522254414
21
-13.011499988894958
31
0
0
LINE
5
278
100
AcDbEntity
8
0
100
AcDbLine
10
-3.4816343522254414
20
-13.011499988894958
30
0
11
-3.4816343522254418
21
-13.007640332895843
31
0
0
LINE
5
279
100
AcDbEntity
8
0
100
AcDbLine
10
-3.4816343522254418
20
-13.007640332895843
30
0
11
-3.4854944008650413
21
-13.004037463776022
31
0
0
SPLINE
5
280
100
AcDbEntity
8
0
100
AcDbSpline
70
4
71
3
72
8
73
4
74
0
42
0.000000001
43
0.0000000001
44
0.0000000001
40
-1
40
-1
40
-1
40
-1
40
0
40
0
40
0
40
0
41
1
41
1
41
1
41
1
10
-3.4854944008650413
20
-13.004037463776022
30
0
10
-3.4870382632646857
20
-12.998891517537531
30
0
10
-3.4870382632646857
20
-12.998633945377268
30
0
10
-3.4893540568641521
20
-12.992715282657979
30
0
0
LINE
5
281
100
AcDbEntity
8
0
100
AcDbLine
10
-3.4893540568641521
20
-12.992715282657979
30
0
11
-3.4968165819830856
21
-12.985253542820022
31
0
0
LINE
5
282
100
AcDbEntity
8
0
100
AcDbLine
10
-3.4968165819830856
20
-12.985253542820022
30
0
11
-3.4968165819830856
21
-12.981393101539936
31
0
0
LINE
5
283
100
AcDbEntity
8
0
100
AcDbLine
10
-3.4968165819830856
20
-12.981393101539936
30
0
11
-3.500676237982197
21
-12.977533445540823
31
0
0
SPLINE
5
284
100
AcDbEntity
8
0
100
AcDbSpline
70
4
71
3
72
8
73
4
74
0
42
0.000000001
43
0.0000000001
44
0.0000000001
40
-1
40
-1
40
-1
40
-1
40
0
40
0
40
0
40
0
41
1
41
1
41
1
41
1
10
-3.500676237982197
20
-12.977533445540823
30
0
10
-3.5032496037419305
20
-12.971100423781978
30
0
10
-3.5029920315816643
20
-12.971615568102507
30
0
10
-3.5055653973413969
20
-12.967755126822421
30
0
0
SPLINE
5
285
100
AcDbEntity
8
0
100
AcDbSpline
70
4
71
3
72
8
73
4
74
0
42
0.000000001
43
0.0000000001
44
0.0000000001
40
-1
40
-1
40
-1
40
-1
40
0
40
0
40
0
40
0
41
1
41
1
41
1
41
1
10
-3.5055653973413969
20
-12.967755126822421
30
0
10
-3.5104545567005974
20
-12.961065318184289
30
0
10
-3.5086531221406863
20
-12.964153042983577
30
0
10
-3.5176595096592638
20
-12.945883481067131
30
0
0
SPLINE
5
286
100
AcDbEntity
8
0
100
AcDbSpline
70
4
71
3
72
8
73
4
74
0
42
0.000000001
43
0.0000000001
44
0.0000000001
40
-1
40
-1
40
-1
40
-1
40
0
40
0
40
0
40
0
41
1
41
1
41
1
41
1
10
-3.5176595096592638
20
-12.945883481067131
30
0
10
-3.5271802562173975
20
-12.929672140589886
30
0
10
-3.5248644626179311
20
-12.933789368749265
30
0
10
-3.5343852091760648
20
-12.917320456111753
30
0
0
LINE
5
287
100
AcDbEntity
8
0
100
AcDbLine
10
-3.5343852091760648
20
-12.917320456111753
30
0
11
-3.5382452578156642
21
-12.913718372272909
31
0
0
LINE
5
288
100
AcDbEntity
8
0
100
AcDbLine
10
-3.5382452578156642
20
-12.913718372272909
30
0
11
-3.6398869230773117
21
-12.736681487824548
31
0
0
LINE
5
289
100
AcDbEntity
8
0
100
AcDbLine
10
-3.6398869230773117
20
-12.736681487824548
30
0
11
-3.6473490555557571
21
-12.729218962705616
31
0
0
LINE
5
290
100
AcDbEntity
8
0
100
AcDbLine
10
-3.6473490555557571
20
-12.729218962705616
30
0
11
-3.6473490555557571
21
-12.725359306706501
31
0
0
LINE
5
291
100
AcDbEntity
8
0
100
AcDbLine
10
-3.6473490555557571
20
-12.725359306706501
30
0
11
-3.6512091041953565
21
-12.721756437586681
31
0
0
LINE
5
292
100
AcDbEntity
8
0
100
AcDbLine
10
-3.6512091041953565
20
-12.721756437586681
30
0
11
-3.7453882443380704
21
-12.556041734256366
31
0
0
LINE
5
293
100
AcDbEntity
8
0
100
AcDbLine
10
-3.7453882443380704
20
-12.556041734256366
30
0
11
-3.748990720817404
21
-12.552182078257253
31
0
0
SPLINE
5
294
100
AcDbEntity
8
0
100
AcDbSpline
70
4
71
3
72
8
73
4
74
0
42
0.000000001
43
0.0000000001
44
0.0000000001
40
-1
40
-1
40
-1
40
-1
40
0
40
0
40
0
40
0
41
1
41
1
41
1
41
1
10
-3.748990720817404
20
-12.552182078257255
30
0
10
-3.7561956737760709
20
-12.540087965939385
30
0
10
-3.7543946318566483
20
-12.543175690738677
30
0
10
-3.7615995848153148
20
-12.530824791541519
30
0
0
LINE
5
295
100
AcDbEntity
8
0
100
AcDbLine
10
-3.7615995848153148
20
-12.530824791541518
30
0
11
-3.8506327787195396
21
-12.375402765969161
31
0
0
LINE
5
296
100
AcDbEntity
8
0
100
AcDbLine
10
-3.8506327787195396
20
-12.375402765969161
30
0
11
-3.8544924347186518
21
-12.371543109970048
31
0
0
SPLINE
5
297
100
AcDbEntity
8
0
100
AcDbSpline
70
4
71
3
72
8
73
4
74
0
42
0.000000001
43
0.0000000001
44
0.0000000001
40
-1
40
-1
40
-1
40
-1
40
0
40
0
40
0
40
0
41
1
41
1
41
1
41
1
10
-3.8544924347186509
20
-12.371543109970048
30
0
10
-3.8560362971182953
20
-12.369484103249873
30
0
10
-3.8575801595179406
20
-12.364594943890673
30
0
10
-3.8580949111979845
20
-12.360220928852005
30
0
0
LINE
5
298
100
AcDbEntity
8
0
100
AcDbLine
10
-3.8580949111979845
20
-12.360220928852009
30
0
11
-3.8619545671970963
21
-12.356361272852894
31
0
0
SPLINE
5
299
100
AcDbEntity
8
0
100
AcDbSpline
70
4
71
3
72
8
73
4
74
0
42
0.000000001
43
0.0000000001
44
0.0000000001
40
-1
40
-1
40
-1
40
-1
40
0
40
0
40
0
40
0
41
1
41
1
41
1
41
1
10
-3.8619545671970963
20
-12.356361272852894
30
0
10
-3.8629840705571845
20
-12.354817410453247
30
0
10
-3.8624693188771402
20
-12.35584612853236
30
0
10
-3.8660717953564738
20
-12.349413106773515
30
0
0
SPLINE
5
300
100
AcDbEntity
8
0
100
AcDbSpline
70
4
71
3
72
8
73
4
74
0
42
0.000000001
43
0.0000000001
44
0.0000000001
40
-1
40
-1
40
-1
40
-1
40
0
40
0
40
0
40
0
41
1
41
1
41
1
41
1
10
-3.8660717953564738
20
-12.349413106773515
30
0
10
-3.8851136811132299
20
-12.316991211100003
30
0
10
-3.8804817012738075
20
-12.324968095258493
30
0
10
-3.8995235870305631
20
-12.292545414304001
30
0
0
LINE
5
301
100
AcDbEntity
8
0
100
AcDbLine
10
-3.8995235870305631
20
-12.292545414304001
30
0
11
-3.9033832430296749
21
-12.288685758304894
31
0
0
LINE
5
302
100
AcDbEntity
8
0
100
AcDbLine
10
-3.9033832430296749
20
-12.288685758304894
30
0
11
-3.9033832430296749
21
-12.284826102305779
31
0
0
LINE
5
303
100
AcDbEntity
8
0
100
AcDbLine
10
-3.9033832430296749
20
-12.284826102305779
30
0
11
-3.9072432916692752
21
-12.281223233185957
31
0
0
SPLINE
5
304
100
AcDbEntity
8
0
100
AcDbSpline
70
4
71
3
72
8
73
4
74
0
42
0.000000001
43
0.0000000001
44
0.0000000001
40
-1
40
-1
40
-1
40
-1
40
0
40
0
40
0
40
0
41
1
41
1
41
1
41
1
10
-3.9072432916692748
20
-12.281223233185958
30
0
10
-3.9085299745491406
20
-12.276076501666493
30
0
10
-3.9087871540689187
20
-12.275819714787202
30
0
10
-3.910845768148608
20
-12.269901052067915
30
0
0
LINE
5
305
100
AcDbEntity
8
0
100
AcDbLine
10
-3.910845768148608
20
-12.269901052067915
30
0
11
-3.9185654727873191
21
-12.26243852694898
31
0
0
LINE
5
306
100
AcDbEntity
8
0
100
AcDbLine
10
-3.9185654727873191
20
-12.26243852694898
30
0
11
-3.9185654727873191
21
-12.25857887094987
31
0
0
LINE
5
307
100
AcDbEntity
8
0
100
AcDbLine
10
-3.9185654727873191
20
-12.25857887094987
30
0
11
-3.9221679492666528
21
-12.254719214950756
31
0
0
LINE
5
308
100
AcDbEntity
8
0
100
AcDbLine
10
-3.9221679492666528
20
-12.254719214950756
30
0
11
-4.0163470894093667
21
-12.089262083780707
31
0
0
LINE
5
309
100
AcDbEntity
8
0
100
AcDbLine
10
-4.0163470894093667
20
-12.089262083780707
30
0
11
-4.0202071380489661
21
-12.085402427781595
31
0
0
SPLINE
5
310
100
AcDbEntity
8
0
100
AcDbSpline
70
4
71
3
72
8
73
4
74
0
42
0.000000001
43
0.0000000001
44
0.0000000001
40
-1
40
-1
40
-1
40
-1
40
0
40
0
40
0
40
0
41
1
41
1
41
1
41
1
10
-4.0202071380489661
20
-12.085402427781595
30
0
10
-4.0274120910076334
20
-12.073308315463729
30
0
10
-4.0256106564477223
20
-12.076396040263017
30
0
10
-4.0325584298866115
20
-12.064044355784887
30
0
0
LINE
5
311
100
AcDbEntity
8
0
100
AcDbLine
10
-4.0325584298866115
20
-12.064044355784887
30
0
11
-4.1218488033106135
21
-11.908365543333234
31
0
0
LINE
5
312
100
AcDbEntity
8
0
100
AcDbLine
10
-4.1218488033106135
20
-11.908365543333234
30
0
11
-4.1254512797899476
21
-11.904762674213414
31
0
0
SPLINE
5
313
100
AcDbEntity
8
0
100
AcDbSpline
70
4
71
3
72
8
73
4
74
0
42
0.000000001
43
0.0000000001
44
0.0000000001
40
-1
40
-1
40
-1
40
-1
40
0
40
0
40
0
40
0
41
1
41
1
41
1
41
1
10
-4.1254512797899476
20
-11.904762674213414
30
0
10
-4.1269951421895916
20
-11.902704452774216
30
0
10
-4.1285390045892365
20
-11.897815293415015
30
0
10
-4.1293109357890589
20
-11.893440493095371
30
0
0
LINE
5
314
100
AcDbEntity
8
0
100
AcDbLine
10
-4.1293109357890589
20
-11.893440493095369
30
0
11
-4.1329134122683922
21
-11.889580837096258
31
0
0
SPLINE
5
315
100
AcDbEntity
8
0
100
AcDbSpline
70
4
71
3
72
8
73
4
74
0
42
0.000000001
43
0.0000000001
44
0.0000000001
40
-1
40
-1
40
-1
40
-1
40
0
40
0
40
0
40
0
41
1
41
1
41
1
41
1
10
-4.1329134122683922
20
-11.889580837096258
30
0
10
-4.1344576673085252
20
-11.887007471336526
30
0
10
-4.1342000951482589
20
-11.887779402536349
30
0
10
-4.1357439575479029
20
-11.884949249897325
30
0
0
LINE
5
316
100
AcDbEntity
8
0
100
AcDbLine
10
-4.1357439575479029
20
-11.884949249897325
30
0
11
-4.1668799556225258
21
-11.829367847667191
31
0
0
LINE
5
317
100
AcDbEntity
8
0
100
AcDbLine
10
-4.1668799556225258
20
-11.829367847667191
30
0
11
-4.1743420881009712
21
-11.821905322548256
31
0
0
LINE
5
318
100
AcDbEntity
8
0
100
AcDbLine
10
-4.1743420881009712
20
-11.821905322548256
30
0
11
-4.1761435226608814
21
-11.816244231989232
31
0
0
SPLINE
5
319
100
AcDbEntity
8
0
100
AcDbSpline
70
4
71
3
72
8
73
4
74
0
42
0.000000001
43
0.0000000001
44
0.0000000001
40
-1
40
-1
40
-1
40
-1
40
0
40
0
40
0
40
0
41
1
41
1
41
1
41
1
10
-4.1761435226608814
20
-11.816244231989234
30
0
10
-4.1794888196204374
20
-11.808782492151281
30
0
10
-4.1787168884206149
20
-11.810583141430213
30
0
10
-4.1820617927396819
20
-11.803121401592255
30
0
0
LINE
5
320
100
AcDbEntity
8
0
100
AcDbLine
10
-4.182061792739681
20
-11.803121401592257
30
0
11
-4.1895243178586155
21
-11.795658876473322
31
0
0
LINE
5
321
100
AcDbEntity
8
0
100
AcDbLine
10
-4.1895243178586155
20
-11.795658876473322
30
0
11
-4.1895243178586146
21
-11.791799220474211
31
0
0
LINE
5
322
100
AcDbEntity
8
0
100
AcDbLine
10
-4.1895243178586146
20
-11.791799220474211
30
0
11
-4.1931267943379495
21
-11.787939564475101
31
0
0
LINE
5
323
100
AcDbEntity
8
0
100
AcDbLine
10
-4.1931267943379495
20
-11.787939564475101
30
0
11
-4.1946706567375935
21
-11.785622985594657
31
0
0
SPLINE
5
324
100
AcDbEntity
8
0
100
AcDbSpline
70
4
71
3
72
8
73
4
74
0
42
0.000000001
43
0.0000000001
44
0.0000000001
40
-1
40
-1
40
-1
40
-1
40
0
40
0
40
0
40
0
41
1
41
1
41
1
41
1
10
-4.1946706567375935
20
-11.785622985594657
30
0
10
-4.2476786932079946
20
-11.692472956171542
30
0
10
-4.2342978980102615
20
-11.715632070087675
30
0
10
-4.2873059344806634
20
-11.622482040664561
30
0
0
LINE
5
325
100
AcDbEntity
8
0
100
AcDbLine
10
-4.2873059344806634
20
-11.622482040664561
30
0
11
-4.2911659831202629
21
-11.618621992024963
31
0
0
LINE
5
326
100
AcDbEntity
8
0
100
AcDbLine
10
-4.2911659831202629
20
-11.618621992024963
30
0
11
-4.3928076483819103
21
-11.441585107576604
31
0
0
LINE
5
327
100
AcDbEntity
8
0
100
AcDbLine
10
-4.3928076483819103
20
-11.441585107576604
30
0
11
-4.3966675007012661
21
-11.43798263109727
31
0
0
SPLINE
5
328
100
AcDbEntity
8
0
100
AcDbSpline
70
4
71
3
72
8
73
4
74
0
42
0.000000001
43
0.0000000001
44
0.0000000001
40
-1
40
-1
40
-1
40
-1
40
0
40
0
40
0
40
0
41
1
41
1
41
1
41
1
10
-4.3966675007012661
20
-11.43798263109727
30
0
10
-4.3982113631009101
20
-11.435152085817757
30
0
10
-4.4002699771805993
20
-11.429233815738957
30
0
10
-4.4002699771805993
20
-11.426660842619714
30
0
0
LINE
5
329
100
AcDbEntity
8
0
100
AcDbLine
10
-4.4002699771805984
20
-11.426660842619714
30
0
11
-4.4041298294999551
21
-11.422800793980112
31
0
0
SPLINE
5
330
100
AcDbEntity
8
0
100
AcDbSpline
70
4
71
3
72
8
73
4
74
0
42
0.000000001
43
0.0000000001
44
0.0000000001
40
-1
40
-1
40
-1
40
-1
40
0
40
0
40
0
40
0
41
1
41
1
41
1
41
1
10
-4.4041298294999551
20
-11.422800793980112
30
0
10
-4.4056736918995991
20
-11.42022782086087
30
0
10
-4.4051591365397993
20
-11.420999752060691
30
0
10
-4.4067029989394433
20
-11.41816920678118
30
0
0
LINE
5
331
100
AcDbEntity
8
0
100
AcDbLine
10
-4.4067029989394433
20
-11.41816920678118
30
0
11
-4.4378388006938225
21
-11.362587804551046
31
0
0
LINE
5
332
100
AcDbEntity
8
0
100
AcDbLine
10
-4.4378388006938225
20
-11.362587804551046
30
0
11
-4.4455585053325333
21
-11.355125672072599
31
0
0
LINE
5
333
100
AcDbEntity
8
0
100
AcDbLine
10
-4.4455585053325333
20
-11.355125672072599
30
0
11
-4.4473597435721999
21
-11.349464581513578
31
0
0
LINE
5
334
100
AcDbEntity
8
0
100
AcDbLine
10
-4.4473597435721999
20
-11.349464581513578
30
0
11
-4.4530208341312223
21
-11.336340965835621
31
0
0
LINE
5
335
100
AcDbEntity
8
0
100
AcDbLine
10
-4.4530208341312223
20
-11.336340965835621
30
0
11
-4.4604831629299113
21
-11.328621261196911
31
0
0
LINE
5
336
100
AcDbEntity
8
0
100
AcDbLine
10
-4.4604831629299113
20
-11.328621261196911
30
0
11
-4.4604831629299113
21
-11.325018784717578
31
0
0
LINE
5
337
100
AcDbEntity
8
0
100
AcDbLine
10
-4.4604831629299113
20
-11.325018784717578
30
0
11
-4.4643428189290226
21
-11.321159128718465
31
0
0
LINE
5
338
100
AcDbEntity
8
0
100
AcDbLine
10
-4.4643428189290226
20
-11.321159128718465
30
0
11
-4.4656295018088894
21
-11.318843335118999
31
0
0
SPLINE
5
339
100
AcDbEntity
8
0
100
AcDbSpline
70
4
71
3
72
8
73
4
74
0
42
0.000000001
43
0.0000000001
44
0.0000000001
40
-1
40
-1
40
-1
40
-1
40
0
40
0
40
0
40
0
41
1
41
1
41
1
41
1
10
-4.4656295018088894
20
-11.318843335118999
30
0
10
-4.5186375382792914
20
-11.225435733535619
30
0
10
-4.5055143152418236
20
-11.248852026971532
30
0
10
-4.5585223517122255
20
-11.155444425388151
30
0
0
LINE
5
340
100
AcDbEntity
8
0
100
AcDbLine
10
-4.5585223517122255
20
-11.155444425388151
30
0
11
-4.5621248281915587
21
-11.151841948908816
31
0
0
LINE
5
341
100
AcDbEntity
8
0
100
AcDbLine
10
-4.5621248281915587
20
-11.151841948908816
30
0
11
-4.6637664934532062
21
-10.974805064460458
31
0
0
LINE
5
342
100
AcDbEntity
8
0
100
AcDbLine
10
-4.6637664934532062
20
-10.974805064460458
30
0
11
-4.6676263457725611
21
-10.971202587981125
31
0
0
SPLINE
5
343
100
AcDbEntity
8
0
100
AcDbSpline
70
4
71
3
72
8
73
4
74
0
42
0.000000001
43
0.0000000001
44
0.0000000001
40
-1
40
-1
40
-1
40
-1
40
0
40
0
40
0
40
0
41
1
41
1
41
1
41
1
10
-4.6676263457725611
20
-10.971202587981123
30
0
10
-4.6694275840122286
20
-10.96837204270161
30
0
10
-4.6712288222518952
20
-10.962196593103034
30
0
10
-4.6712288222518952
20
-10.959880799503567
30
0
0
LINE
5
344
100
AcDbEntity
8
0
100
AcDbLine
10
-4.6712288222518952
20
-10.959880799503569
30
0
11
-4.675088674571251
21
-10.956020750863969
31
0
0
LINE
5
345
100
AcDbEntity
8
0
100
AcDbLine
10
-4.675088674571251
20
-10.956020750863969
30
0
11
-4.6763753574511178
21
-10.953704957264499
31
0
0
LINE
5
346
100
AcDbEntity
8
0
100
AcDbLine
10
-4.6763753574511178
20
-10.953704957264499
30
0
11
-4.6920719462483182
21
-10.92437039374979
31
0
0
LINE
5
347
100
AcDbEntity
8
0
100
AcDbLine
10
-4.6920719462483182
20
-10.92437039374979
30
0
11
-4.7090550216051401
21
-10.895807761434899
31
0
0
LINE
5
348
100
AcDbEntity
8
0
100
AcDbLine
10
-4.7090550216051401
20
-10.895807761434899
30
0
11
-4.71651735040383
21
-10.888345236315967
31
0
0
LINE
5
349
100
AcDbEntity
8
0
100
AcDbLine
10
-4.71651735040383
20
-10.888345236315967
30
0
11
-4.7183185886434966
21
-10.882684538397431
31
0
0
LINE
5
350
100
AcDbEntity
8
0
100
AcDbLine
10
-4.7183185886434966
20
-10.882684538397431
30
0
11
-4.7239796792025182
21
-10.869560922719476
31
0
0
LINE
5
351
100
AcDbEntity
8
0
100
AcDbLine
10
-4.7239796792025182
20
-10.869560922719476
30
0
11
-4.7316991875209862
21
-10.861841218080766
31
0
0
LINE
5
352
100
AcDbEntity
8
0
100
AcDbLine
10
-4.7316991875209862
20
-10.861841218080766
30
0
11
-4.7316991875209862
21
-10.858238741601433
31
0
0
LINE
5
353
100
AcDbEntity
8
0
100
AcDbLine
10
-4.7316991875209862
20
-10.858238741601433
30
0
11
-4.7353016640003194
21
-10.854379085602321
31
0
0
LINE
5
354
100
AcDbEntity
8
0
100
AcDbLine
10
-4.7353016640003194
20
-10.854379085602321
30
0
11
-4.8294811967835214
21
-10.688664382272005
31
0
0
LINE
5
355
100
AcDbEntity
8
0
100
AcDbLine
10
-4.8294811967835214
20
-10.688664382272005
30
0
11
-4.8333410491028772
21
-10.685061905792672
31
0
0
LINE
5
356
100
AcDbEntity
8
0
100
AcDbLine
10
-4.8333410491028772
20
-10.685061905792672
30
0
11
-4.8783722014147894
21
-10.606064602767111
31
0
0
LINE
5
357
100
AcDbEntity
8
0
100
AcDbLine
10
-4.8783722014147894
20
-10.606064602767111
30
0
11
-4.8822320537341453
21
-10.602204554127514
31
0
0
LINE
5
358
100
AcDbEntity
8
0
100
AcDbLine
10
-4.8822320537341453
20
-10.602204554127514
30
0
11
-4.8822320537341453
21
-10.598344898128403
31
0
0
LINE
5
359
100
AcDbEntity
8
0
100
AcDbLine
10
-4.8822320537341453
20
-10.598344898128403
30
0
11
-4.8858345302134785
21
-10.594742421649068
31
0
0
SPLINE
5
360
100
AcDbEntity
8
0
100
AcDbSpline
70
4
71
3
72
8
73
4
74
0
42
0.000000001
43
0.0000000001
44
0.0000000001
40
-1
40
-1
40
-1
40
-1
40
0
40
0
40
0
40
0
41
1
41
1
41
1
41
1
10
-4.8858345302134785
20
-10.594742421649068
30
0
10
-4.8873783926131233
20
-10.58959608277009
30
0
10
-4.8873783926131233
20
-10.589338510609824
30
0
10
-4.8896941862125898
20
-10.583420240531023
30
0
0
LINE
5
361
100
AcDbEntity
8
0
100
AcDbLine
10
-4.8896941862125898
20
-10.583420240531023
30
0
11
-4.8971565150112788
21
-10.575700535892313
31
0
0
LINE
5
362
100
AcDbEntity
8
0
100
AcDbLine
10
-4.8971565150112788
20
-10.575700535892313
30
0
11
-4.8971565150112788
21
-10.57209805941298
31
0
0
LINE
5
363
100
AcDbEntity
8
0
100
AcDbLine
10
-4.8971565150112788
20
-10.57209805941298
30
0
11
-4.9010163673306346
21
-10.568238403413869
31
0
0
SPLINE
5
364
100
AcDbEntity
8
0
100
AcDbSpline
70
4
71
3
72
8
73
4
74
0
42
0.000000001
43
0.0000000001
44
0.0000000001
40
-1
40
-1
40
-1
40
-1
40
0
40
0
40
0
40
0
41
1
41
1
41
1
41
1
10
-4.9010163673306346
20
-10.568238403413869
30
0
10
-4.9035895367701237
20
-10.561547809494755
30
0
10
-4.9033323572503456
20
-10.56231974069458
30
0
10
-4.9059055266898346
20
-10.558202905175689
30
0
0
SPLINE
5
365
100
AcDbEntity
8
0
100
AcDbSpline
70
4
71
3
72
8
73
4
74
0
42
0.000000001
43
0.0000000001
44
0.0000000001
40
-1
40
-1
40
-1
40
-1
40
0
40
0
40
0
40
0
41
1
41
1
41
1
41
1
10
-4.9059055266898346
20
-10.558202905175689
30
0
10
-4.9107946860490346
20
-10.551769883416844
30
0
10
-4.9089932514891235
20
-10.554857608216132
30
0
10
-4.917999639007701
20
-10.5365876536592
30
0
0
SPLINE
5
366
100
AcDbEntity
8
0
100
AcDbSpline
70
4
71
3
72
8
73
4
74
0
42
0.000000001
43
0.0000000001
44
0.0000000001
40
-1
40
-1
40
-1
40
-1
40
0
40
0
40
0
40
0
41
1
41
1
41
1
41
1
10
-4.917999639007701
20
-10.5365876536592
30
0
10
-4.9277777614058573
20
-10.520376705822443
30
0
10
-4.9252045919663683
20
-10.524493541341332
30
0
10
-4.9349827143645246
20
-10.508025021344311
30
0
0
LINE
5
367
100
AcDbEntity
8
0
100
AcDbLine
10
-4.9349827143645246
20
-10.508025021344311
30
0
11
-4.9385851908438569
21
-10.504422544864978
31
0
0
SPLINE
5
368
100
AcDbEntity
8
0
100
AcDbSpline
70
4
71
3
72
8
73
4
74
0
42
0.000000001
43
0.0000000001
44
0.0000000001
40
-1
40
-1
40
-1
40
-1
40
0
40
0
40
0
40
0
41
1
41
1
41
1
41
1
10
-4.9385851908438578
20
-10.504422544864978
30
0
10
-4.9403864290835244
20
-10.501334820065688
30
0
10
-4.9424450431632136
20
-10.495416549986887
30
0
10
-4.9424450431632136
20
-10.49310075638742
30
0
0
LINE
5
369
100
AcDbEntity
8
0
100
AcDbLine
10
-4.9424450431632136
20
-10.49310075638742
30
0
11
-4.9460475196425469
21
-10.48924070774782
31
0
0
ARC
5
370
100
AcDbEntity
8
0
100
AcDbCircle
10
-4.8474834240351932
20
-10.506126176562887
30
0
40
0.10000000000000009
210
0
220
0
230
1
100
AcDbArc
50
90.000000000000512
51
170.27876511108681
0
LINE
5
371
100
AcDbEntity
8
0
100
AcDbLine
10
-4.8474834240351941
20
-10.406126176562886
30
0
11
-0.33272990270224956
21
-10.406126176562886
31
0
0
ARC
5
372
100
AcDbEntity
8
0
100
AcDbCircle
10
-0.3327299027022495
20
-10.506126176562884
30
0
40
0.10000000000000003
210
-0
220
0
230
1
100
AcDbArc
50
-0.016676862992405363
51
90.000000000000043
0
LINE
5
373
100
AcDbEntity
8
0
100
AcDbLine
10
-0.23272990693822515
20
-10.506155283179282
30
0
11
-0.23295836400890976
21
-11.291052634003931
31
0
0
LINE
5
374
100
AcDbEntity
8
0
100
AcDbLine
10
-0.23295836400890976
20
-11.291052634003931
30
0
11
-0.23656123312873145
21
-11.294912290003044
31
0
0
ARC
5
375
100
AcDbEntity
8
0
100
AcDbCircle
10
-0.3098253933585291
20
-11.22685082641417
30
0
40
0.10000000000018486
210
0
220
0
230
1
100
AcDbArc
50
310.95366501120725
51
317.1083084507419
0
SPLINE
5
376
100
AcDbEntity
8
0
100
AcDbSpline
70
0
71
3
72
16
73
12
74
0
42
0.000000001
43
0.0000000001
44
0.0000000001
40
0
40
0
40
0
40
0
40
0.0039064447338691775
40
0.0039064447338691775
40
0.0078128894677384625
40
0.0078128894677384625
40
0.011719334201607744
40
0.011719334201607744
40
0.015153738813705114
40
0.015153738813705114
40
0.018588143425802364
40
0.018588143425802364
40
0.018588143425802364
40
0.018588143425802364
10
-0.7931319450876142
20
-8.1904783066717464
30
0
10
-0.80204170545013675
20
-8.1809822456262431
30
0
10
-0.81272107553058648
20
-8.173317246422501
30
0
10
-0.83641681568939963
20
-8.1625122513407806
30
0
10
-0.8492066415766707
20
-8.1594755571049635
30
0
10
-0.8752304030709861
20
-8.1584756280689881
30
0
10
-0.88821553733409853
20
-8.1605219531354187
30
0
10
-0.91119299992167613
20
-8.1689357832141631
30
0
10
-0.92118761508212621
20
-8.1746890946752551
30
0
10
-0.93879323705077633
20
-8.1893270692304672
30
0
10
-0.94627421584501714
20
-8.1981036221559584
30
0
10
-0.95210667902346202
20
-8.207954481472159
30
0
0
LINE
5
377
100
AcDbEntity
8
0
100
AcDbLine
10
-0.7931319450876142
20
-8.1904783066717464
30
0
11
-0.20851335249388647
21
-8.8135673256489326
31
0
0
SPLINE
5
378
100
AcDbEntity
8
0
100
AcDbSpline
70
4
71
3
72
8
73
4
74
0
42
0.000000001
43
0.0000000001
44
0.0000000001
40
0
40
0
40
0
40
0
40
1
40
1
40
1
40
1
41
1
41
1
41
1
41
1
10
-0.20851335249388647
20
-8.8135673256489326
30
0
10
-0.20671191793397603
20
-8.8135673256489326
30
0
10
-0.20491048337406448
20
-8.8130525739688874
30
0
10
-0.20388098001397625
20
-8.8120234632492878
30
0
0
SPLINE
5
379
100
AcDbEntity
8
0
100
AcDbSpline
70
4
71
3
72
8
73
4
74
0
42
0.000000001
43
0.0000000001
44
0.0000000001
40
0
40
0
40
0
40
0
40
1
40
1
40
1
40
1
41
1
41
1
41
1
41
1
10
-0.20388098001397625
20
-8.8120234632492878
30
0
10
-0.19667602705530918
20
-8.8055904414904429
30
0
10
-0.18097983089859659
20
-8.8678620449991996
30
0
10
-0.31324234991433442
20
-8.3750925390076532
30
0
0
LINE
5
380
100
AcDbEntity
8
0
100
AcDbLine
10
-0.31324234991433436
20
-8.3750925390076549
30
0
11
-0.56126950271528941
21
-7.4490277970625467
31
0
0
ARC
5
381
100
AcDbEntity
8
0
100
AcDbCircle
10
-0.46467402232765309
20
-7.4231567095577322
30
0
40
0.099999999999999825
210
0
220
-0
230
1
100
AcDbArc
50
64.288556063585489
51
194.99358377791856
0
LINE
5
382
100
AcDbEntity
8
0
100
AcDbLine
10
-0.42129011712893283
20
-7.3330576708852337
30
0
11
-0.41899132883442775
21
-7.334164568527096
31
0
0
SPLINE
5
383
100
AcDbEntity
8
0
100
AcDbSpline
70
0
71
3
72
16
73
12
74
0
42
0.000000001
43
0.0000000001
44
0.0000000001
40
0
40
0
40
0
40
0
40
0.0039064447338693622
40
0.0039064447338693622
40
0.0078128894677386689
40
0.0078128894677386689
40
0.011719334201608035
40
0.011719334201608035
40
0.013927816089009377
40
0.013927816089009377
40
0.0161362979764107
40
0.0161362979764107
40
0.0161362979764107
40
0.0161362979764107
10
-0.28389698577405942
20
-7.2839302459231341
30
0
10
-0.28908796277916393
20
-7.2958723044906488
30
0
10
-0.29656186080493008
20
-7.3066862772300745
30
0
10
-0.3152341322800909
20
-7.3248406788546916
30
0
10
-0.32625398863700916
20
-7.3320075417654396
30
0
10
-0.3504205932485282
20
-7.3417137893380353
30
0
10
-0.36333629559122604
20
-7.344160376982777
30
0
10
-0.38371881106443401
20
-7.34400750622674
30
0
10
-0.39105165627254906
20
-7.343139587636883
30
0
10
-0.40539342309925619
20
-7.3398099160249943
30
0
10
-0.41235859233507888
20
-7.3373583208216333
30
0
10
-0.41899132883442836
20
-7.334164568527096
30
0
0
SPLINE
5
384
100
AcDbEntity
8
0
100
AcDbSpline
70
4
71
3
72
8
73
4
74
0
42
0.000000001
43
0.0000000001
44
0.0000000001
40
0.080263788394332375
40
0.080263788394332375
40
0.080263788394332375
40
0.080263788394332375
40
0.97051926102731501
40
0.97051926102731501
40
0.97051926102731501
40
0.97051926102731501
41
1
41
1
41
1
41
1
10
-0.28389698577406108
20
-7.2839302459231341
30
0
10
-0.14585798791610716
20
-6.9663657883268302
30
0
10
-0.16601011883293534
20
-7.0126235583595555
30
0
10
-0.0088312309051953308
20
-6.6512572973507611
30
0
0
SPLINE
5
385
100
AcDbEntity
8
0
100
AcDbSpline
70
0
71
3
72
10
73
6
74
0
42
0.000000001
43
0.0000000001
44
0.0000000001
40
0
40
0
40
0
40
0
40
0.0020637013202200638
40
0.0020637013202200638
40
0.004127402640440073
40
0.004127402640440073
40
0.004127402640440073
40
0.004127402640440073
10
0.014841759786741182
20
-6.6178482918032291
30
0
10
0.0097997874767266312
20
-6.6225279517022342
30
0
10
0.005254115793716636
20
-6.6277154032774277
30
0
10
-0.0027001040063558673
20
-6.6389409631099428
30
0
10
-0.0060874655570375604
20
-6.6449491713802722
30
0
10
-0.0088312309051959831
20
-6.6512572973507611
30
0
0
LINE
5
386
100
AcDbEntity
8
0
100
AcDbLine
10
0.014841759786741182
20
-6.6178482918032291
30
0
11
0.34601359428710499
21
-7.3792606529463614
31
0
0
LINE
5
387
100
AcDbEntity
8
0
100
AcDbLine
10
0.34601359428710499
20
-7.3792606529463614
30
0
11
0.44206174907379314
21
-7.3330560225331523
31
0
0
ARC
5
388
100
AcDbEntity
8
0
100
AcDbCircle
10
0.48541224991904375
20
-7.4231711382267243
30
0
40
0.10000000000000006
210
-0
220
0
230
1
100
AcDbArc
50
-14.929079717158681
51
115.69020333568602
0
LINE
5
389
100
AcDbEntity
8
0
100
AcDbLine
10
0.58203679496936422
20
-7.4489334613715528
30
0
11
0.221212815109324
21
-8.802245144530886
31
0
0
ARC
5
390
100
AcDbEntity
8
0
100
AcDbCircle
10
0.19051424250391663
20
-8.707073732646899
30
0
40
0.10000000000000635
210
0
220
0
230
1
100
AcDbArc
50
287.87766990357585
51
316.76447726742015
0
LINE
5
391
100
AcDbEntity
8
0
100
AcDbLine
10
0.26336865009540222
20
-8.7755736253073611
30
0
11
0.81352386264253285
21
-8.190445232593472
31
0
0
ARC
5
392
100
AcDbEntity
8
0
100
AcDbCircle
10
0.88637827023401528
20
-8.2589451252539305
30
0
40
0.10000000000000059
210
0
220
-0
230
1
100
AcDbArc
50
30.436004246761652
51
136.7644772674204
0
ARC
5
393
100
AcDbEntity
8
0
100
AcDbCircle
10
1.0588173724412715
20
-8.1576299929687863
30
0
40
0.10000000000000224
210
0
220
0
230
1
100
AcDbArc
50
210.43600424676131
51
278.62314762541899
0
LINE
5
394
100
AcDbEntity
8
0
100
AcDbLine
10
1.0738108515472058
20
-8.2564995817425864
30
0
11
1.489513664301956
21
-8.1934586455495868
31
0
0
SPLINE
5
395
100
AcDbEntity
8
0
100
AcDbSpline
70
0
71
3
72
18
73
14
74
0
42
0.000000001
43
0.0000000001
44
0.0000000001
40
0
40
0
40
0
40
0
40
0.0039064447338693267
40
0.0039064447338693267
40
0.0078128894677384972
40
0.0078128894677384972
40
0.011719334201607808
40
0.011719334201607808
40
0.01562577893547714
40
0.01562577893547714
40
0.019532223669346375
40
0.019532223669346375
40
0.023065912965729431
40
0.023065912965729431
40
0.023065912965729431
40
0.023065912965729431
10
1.5882490574273018
20
-8.3469843578262939
30
0
10
1.5953660949550237
20
-8.3360799191921195
30
0
10
1.6002852103809815
20
-8.3238896172461185
30
0
10
1.6051738325153606
20
-8.2983095978165462
30
0
10
1.6050966013316721
20
-8.2851644392609103
30
0
10
1.5999077486860327
20
-8.2596436275847154
30
0
10
1.5948457354835177
20
-8.247511967333697
30
0
10
1.5803563864078096
20
-8.2258718475615638
30
0
10
1.5710675766090867
20
-8.216570279380246
30
0
10
1.5494473649907086
20
-8.2020512411901123
30
0
10
1.5373226641780509
20
-8.1969725810998835
30
0
10
1.5130262637339187
20
-8.1919979368586979
30
0
10
1.5011594778882131
20
-8.1916925689951796
30
0
10
1.4895136643019544
20
-8.1934586455495868
30
0
0
SPLINE
5
396
100
AcDbEntity
8
0
100
AcDbSpline
70
4
71
3
72
8
73
4
74
0
42
0.000000001
43
0.0000000001
44
0.0000000001
40
0.23343699971675541
40
0.23343699971675541
40
0.23343699971675541
40
0.23343699971675541
40
0.91474220997465205
40
0.91474220997465205
40
0.91474220997465205
40
0.91474220997465205
41
1
41
1
41
1
41
1
10
1.588249057426903
20
-8.3469843578269085
30
0
10
1.5011648036094805
20
-8.4804113487702892
30
0
10
1.4856543751998648
20
-8.504248838478297
30
0
10
1.3587830808995167
20
-8.6985953331272867
30
0
0
SPLINE
5
397
100
AcDbEntity
8
0
100
AcDbSpline
70
0
71
3
72
14
73
10
74
0
42
0.000000001
43
0.0000000001
44
0.0000000001
40
0
40
0
40
0
40
0
40
0.0039064447338693154
40
0.0039064447338693154
40
0.0078128894677386394
40
0.0078128894677386394
40
0.011085939501064644
40
0.011085939501064644
40
0.014358989534390788
40
0.014358989534390788
40
0.014358989534390788
40
0.014358989534390788
10
1.3767961766925074
20
-8.8286279537480645
30
0
10
1.3669820818782101
20
-8.8200697677210211
30
0
10
1.3589334191962736
20
-8.8096764916667176
30
0
10
1.3472730282728618
20
-8.7863897721918054
30
0
10
1.3437727797240178
20
-8.7737189625016203
30
0
10
1.3419840225053088
20
-8.749854256716878
30
0
10
1.342954499249732
20
-8.7389141217308346
30
0
10
1.3483902828915093
20
-8.7177817008408045
30
0
10
1.352819133180851
20
-8.7077311454462549
30
0
10
1.3587830808995172
20
-8.6985953331272867
30
0
0
ARC
5
398
100
AcDbEntity
8
0
100
AcDbCircle
10
1.3110725844488236
20
-8.9039964446616136
30
0
40
0.10000000000000044
210
-0
220
0
230
1
100
AcDbArc
50
-70.740820189538638
51
48.910592336150053
0
LINE
5
399
100
AcDbEntity
8
0
100
AcDbLine
10
1.3440567745495391
20
-8.9984000632543353
30
0
11
0.086376930333853519
21
-9.4378276157766372
31
0
0
SPLINE
5
400
100
AcDbEntity
8
0
100
AcDbSpline
70
4
71
3
72
8
73
4
74
0
42
0.000000001
43
0.0000000001
44
0.0000000001
40
0
40
0
40
0
40
0
40
1
40
1
40
1
40
1
41
1
41
1
41
1
41
1
10
0.086376930333853519
20
-9.4378276157766372
30
0
10
0.00068864074869723346
20
-9.4676769309713933
30
0
10
0.036456618662741302
20
-9.4728232698503732
30
0
10
-0.16373898706126377
20
-9.4028319617029048
30
0
0
LINE
5
401
100
AcDbEntity
8
0
100
AcDbLine
10
-0.16373898706126377
20
-9.4028319617029048
30
0
11
-1.3224308963180449
21
-8.9979532914189537
31
0
0
SPLINE
5
402
100
AcDbEntity
8
0
100
AcDbSpline
70
0
71
3
72
18
73
14
74
0
42
0.000000001
43
0.0000000001
44
0.0000000001
40
0
40
0
40
0
40
0
40
0.0039064447338693119
40
0.0039064447338693119
40
0.0078128894677384625
40
0.0078128894677384625
40
0.011719334201607805
40
0.011719334201607805
40
0.015625778935477043
40
0.015625778935477043
40
0.018929839464153692
40
0.018929839464153692
40
0.022233899992830337
40
0.022233899992830337
40
0.022233899992830337
40
0.022233899992830337
10
-1.3449497386683318
20
-8.8203693962069742
30
0
10
-1.3557811661756398
20
-8.8275970641055039
30
0
10
-1.3650973150723749
20
-8.8368712502068512
30
0
10
-1.3796502994721969
20
-8.858468626562523
30
0
10
-1.3847480005124322
20
-8.8705853341274086
30
0
10
-1.3900119516620899
20
-8.8960907617592664
30
0
10
-1.3901278755294468
20
-8.9092356360365486
30
0
10
-1.3853145698354421
20
-8.9348299343993869
30
0
10
-1.3804313580999696
20
-8.9470346630426274
30
0
10
-1.3673540514659148
20
-8.9672006274240914
30
0
10
-1.3598760312505558
20
-8.9753881323171854
30
0
10
-1.3425537937047456
20
-8.9889944509821884
30
0
10
-1.332827968467305
20
-8.9943202698081102
30
0
10
-1.3224308963180451
20
-8.9979532914189519
30
0
0
LINE
5
403
100
AcDbEntity
8
0
100
AcDbLine
10
-1.3449497386683318
20
-8.8203693962069742
30
0
11
-1.2846290281403605
21
-8.7801155339748433
31
0
0
SPLINE
5
404
100
AcDbEntity
8
0
100
AcDbSpline
70
4
71
3
72
8
73
4
74
0
42
0.000000001
43
0.0000000001
44
0.0000000001
40
0
40
0
40
0
40
0
40
0.76719254604441467
40
0.76719254604441467
40
0.76719254604441467
40
0.76719254604441467
41
1
41
1
41
1
41
1
10
-1.2846290281403605
20
-8.7801155339748433
30
0
10
-1.4621046090083112
20
-8.5084729283428544
30
0
10
-1.4693448607037427
20
-8.4973329638337702
30
0
10
-1.567440380397489
20
-8.3468682287506333
30
0
0
SPLINE
5
405
100
AcDbEntity
8
0
100
AcDbSpline
70
0
71
3
72
18
73
14
74
0
42
0.000000001
43
0.0000000001
44
0.0000000001
40
0
40
0
40
0
40
0
40
0.0039064447338692321
40
0.0039064447338692321
40
0.0078128894677384781
40
0.0078128894677384781
40
0.011719334201607725
40
0.011719334201607725
40
0.015625778935476842
40
0.015625778935476842
40
0.019532223669346108
40
0.019532223669346108
40
0.023048408341031668
40
0.023048408341031668
40
0.023048408341031668
40
0.023048408341031668
10
-1.4687988674764187
20
-8.1933666447203208
30
0
10
-1.4816755448593819
20
-8.1914301053655478
30
0
10
-1.4948073633864514
20
-8.192027181810122
30
0
10
-1.5201029813524389
20
-8.1982213510125916
30
0
10
-1.5320249408964242
20
-8.2037592241368262
30
0
10
-1.5530750583986315
20
-8.2190931268863956
30
0
10
-1.5620019657603308
20
-8.228742556043823
30
0
10
-1.575654540010095
20
-8.2509200950584347
30
0
10
-1.5802496808471038
20
-8.2632361755549493
30
0
10
-1.5844603765476684
20
-8.2889364880454082
30
0
10
-1.5840356748653202
20
-8.3020750110441917
30
0
10
-1.5784667789988063
20
-8.3261822467460664
30
0
10
-1.5738414341934923
20
-8.3370499122090038
30
0
10
-1.5674403803978993
20
-8.3468682287500009
30
0
0
LINE
5
406
100
AcDbEntity
8
0
100
AcDbLine
10
-1.4687988674764187
20
-8.1933666447203208
30
0
11
-1.0530271804865825
21
-8.2558950602820307
31
0
0
SPLINE
5
407
100
AcDbEntity
8
0
100
AcDbSpline
70
0
71
3
72
14
73
10
74
0
42
0.000000001
43
0.0000000001
44
0.0000000001
40
0.0058063769819306889
40
0.0058063769819306889
40
0.0058063769819306889
40
0.0058063769819306889
40
0.0078128894677385596
40
0.0078128894677385596
40
0.011719334201607815
40
0.011719334201607815
40
0.014705159611645065
40
0.014705159611645065
40
0.017690985021682343
40
0.017690985021682343
40
0.017690985021682343
40
0.017690985021682343
10
-0.95210667902346335
20
-8.2079544814721608
30
0
10
-0.95549825939200694
20
-8.2136827612825805
30
0
10
-0.95946140240718325
20
-8.2190716297933673
30
0
10
-0.97267252945270843
20
-8.2336984750059514
30
0
10
-0.98320459311588704
20
-8.2415646553435309
30
0
10
-1.0039236294384386
20
-8.2514912334629127
30
0
10
-1.0134913174946052
20
-8.2544275637179521
30
0
10
-1.0331769775670714
20
-8.2573777885547983
30
0
10
-1.0431851084373966
20
-8.2573752216069529
30
0
10
-1.0530271804865825
20
-8.2558950602820307
30
0
0
LINE
5
408
100
AcDbEntity
8
0
100
AcDbLine
10
3.4451862196505667
20
-11.325018784717575
30
0
11
3.4451862196505663
21
-11.309836947600422
31
0
0
LINE
5
409
100
AcDbEntity
8
0
100
AcDbLine
10
3.4451862196505663
20
-11.309836947600422
30
0
11
3.4413265636514545
21
-11.306234471121089
31
0
0
LINE
5
410
100
AcDbEntity
8
0
100
AcDbLine
10
3.4413265636514545
20
-11.306234471121089
30
0
11
3.4374661281496999
21
-11.306229748105313
31
0
0
LINE
5
411
100
AcDbEntity
8
0
100
AcDbLine
10
3.4374661281496999
20
-11.306229748105313
30
0
11
0.31698386760003194
21
-11.302412067182388
31
0
0
ARC
5
412
100
AcDbEntity
8
0
100
AcDbCircle
10
0.31710636152113958
20
-11.202412142206175
30
0
40
0.10000000000004462
210
0
220
0
230
1
100
AcDbArc
50
247.66857785676899
51
269.9298161354937
0
LINE
5
413
100
AcDbEntity
8
0
100
AcDbLine
10
0.27911001093892551
20
-11.294912290003044
30
0
11
0.27911001093892651
21
-10.506126176562884
31
0
0
ARC
5
414
100
AcDbEntity
8
0
100
AcDbCircle
10
0.37911001093892649
20
-10.506126176562884
30
0
40
0.10000000000000009
210
0
220
-0
230
1
100
AcDbArc
50
90
51
180
0
LINE
5
415
100
AcDbEntity
8
0
100
AcDbLine
10
0.37911001093892649
20
-10.406126176562884
30
0
11
4.8585047082366204
21
-10.406126176562886
31
0
0
ARC
5
416
100
AcDbEntity
8
0
100
AcDbCircle
10
4.8585047082366195
20
-10.506126176562889
30
0
40
0.10000000000000109
210
0
220
-0
230
1
100
AcDbArc
50
0.97615628453157355
51
89.999999999999503
0
LINE
5
417
100
AcDbEntity
8
0
100
AcDbLine
10
4.9584901953786948
20
-10.504422544864978
30
0
11
4.9546305393795826
21
-10.508025021344311
31
0
0
LINE
5
418
100
AcDbEntity
8
0
100
AcDbLine
10
4.9546305393795826
20
-10.508025021344311
30
0
11
4.800494804046604
21
-10.779241438575873
31
0
0
LINE
5
419
100
AcDbEntity
8
0
100
AcDbLine
10
4.800494804046604
20
-10.779241438575873
30
0
11
4.7966351480474927
21
-10.782843915055205
31
0
0
LINE
5
420
100
AcDbEntity
8
0
100
AcDbLine
10
4.7966351480474927
20
-10.782843915055205
30
0
11
4.79663514804749
21
-10.78670357105432
31
0
0
LINE
5
421
100
AcDbEntity
8
0
100
AcDbLine
10
4.79663514804749
20
-10.78670357105432
30
0
11
4.7891726229285574
21
-10.794166096173253
31
0
0
SPLINE
5
422
100
AcDbEntity
8
0
100
AcDbSpline
70
4
71
3
72
8
73
4
74
0
42
0.000000001
43
0.0000000001
44
0.0000000001
40
-1
40
-1
40
-1
40
-1
40
0
40
0
40
0
40
0
41
1
41
1
41
1
41
1
10
4.7891726229285574
20
-10.794166096173253
30
0
10
4.7871144014893563
20
-10.797253820972541
30
0
10
4.7858281112499785
20
-10.800856297451876
30
0
10
4.785312966929447
20
-10.805488277291296
30
0
0
LINE
5
423
100
AcDbEntity
8
0
100
AcDbLine
10
4.7853129669294479
20
-10.805488277291296
30
0
11
4.7814533109303348
21
-10.809347933290407
31
0
0
LINE
5
424
100
AcDbEntity
8
0
100
AcDbLine
10
4.7814533109303348
20
-10.809347933290407
30
0
11
4.7814533109303357
21
-10.812950409769741
31
0
0
LINE
5
425
100
AcDbEntity
8
0
100
AcDbLine
10
4.7814533109303357
20
-10.812950409769741
30
0
11
4.7778504418105134
21
-10.816810065768854
31
0
0
SPLINE
5
426
100
AcDbEntity
8
0
100
AcDbSpline
70
4
71
3
72
8
73
4
74
0
42
0.000000001
43
0.0000000001
44
0.0000000001
40
-1
40
-1
40
-1
40
-1
40
0
40
0
40
0
40
0
41
1
41
1
41
1
41
1
10
4.7778504418105143
20
-10.816810065768854
30
0
10
4.7727044955720244
20
-10.823500659687964
30
0
10
4.7737339989321121
20
-10.821699225128052
30
0
10
4.7639556802137122
20
-10.840226359204763
30
0
0
LINE
5
427
100
AcDbEntity
8
0
100
AcDbLine
10
4.7639556802137113
20
-10.840226359204763
30
0
11
4.7325625026193112
21
-10.895807761434897
31
0
0
LINE
5
428
100
AcDbEntity
8
0
100
AcDbLine
10
4.7325625026193112
20
-10.895807761434897
30
0
11
4.7289596334994899
21
-10.89966741743401
31
0
0
SPLINE
5
429
100
AcDbEntity
8
0
100
AcDbSpline
70
4
71
3
72
8
73
4
74
0
42
0.000000001
43
0.0000000001
44
0.0000000001
40
-1
40
-1
40
-1
40
-1
40
0
40
0
40
0
40
0
41
1
41
1
41
1
41
1
10
4.7289596334994899
20
-10.89966741743401
30
0
10
4.7256143365399339
20
-10.903784645593388
30
0
10
4.7220122527010888
20
-10.9125334609517
30
0
10
4.7212403215012682
20
-10.918452123670988
30
0
0
LINE
5
430
100
AcDbEntity
8
0
100
AcDbLine
10
4.7212403215012682
20
-10.918452123670988
30
0
11
4.7137777963823329
21
-10.925914256149433
31
0
0
SPLINE
5
431
100
AcDbEntity
8
0
100
AcDbSpline
70
4
71
3
72
8
73
4
74
0
42
0.000000001
43
0.0000000001
44
0.0000000001
40
-1
40
-1
40
-1
40
-1
40
0
40
0
40
0
40
0
41
1
41
1
41
1
41
1
10
4.7137777963823329
20
-10.925914256149433
30
0
10
4.6998822495045562
20
-10.950617232465213
30
0
10
4.7034851186243776
20
-10.944441390226146
30
0
10
4.6895895717466001
20
-10.969144366541922
30
0
0
SPLINE
5
432
100
AcDbEntity
8
0
100
AcDbSpline
70
4
71
3
72
8
73
4
74
0
42
0.000000001
43
0.0000000001
44
0.0000000001
40
-1
40
-1
40
-1
40
-1
40
0
40
0
40
0
40
0
41
1
41
1
41
1
41
1
10
4.6895895717466001
20
-10.969144366541922
30
0
10
4.6805831842280217
20
-10.983811451979033
30
0
10
4.6818702597483774
20
-10.981495658379568
30
0
10
4.6798112530281983
20
-10.986127245578503
30
0
0
LINE
5
433
100
AcDbEntity
8
0
100
AcDbLine
10
4.6798112530281992
20
-10.986127245578501
30
0
11
4.6762091691893541
21
-10.989987294218102
31
0
0
SPLINE
5
434
100
AcDbEntity
8
0
100
AcDbSpline
70
4
71
3
72
8
73
4
74
0
42
0.000000001
43
0.0000000001
44
0.0000000001
40
-1
40
-1
40
-1
40
-1
40
0
40
0
40
0
40
0
41
1
41
1
41
1
41
1
10
4.6762091691893541
20
-10.9899872942181
30
0
10
4.6746653067897093
20
-10.994876453577302
30
0
10
4.6746653067897093
20
-10.995390812616858
30
0
10
4.6723495131902437
20
-11.001309475336146
30
0
0
LINE
5
435
100
AcDbEntity
8
0
100
AcDbLine
10
4.6723495131902437
20
-11.001309475336146
30
0
11
4.6684890719101553
21
-11.00491195181548
31
0
0
SPLINE
5
436
100
AcDbEntity
8
0
100
AcDbSpline
70
4
71
3
72
8
73
4
74
0
42
0.000000001
43
0.0000000001
44
0.0000000001
40
-1
40
-1
40
-1
40
-1
40
0
40
0
40
0
40
0
41
1
41
1
41
1
41
1
10
4.6684890719101553
20
-11.00491195181548
30
0
10
4.6597402565518431
20
-11.019321857732812
30
0
10
4.6522785167138858
20
-11.03244508077028
30
0
10
4.6422426258352196
20
-11.050200283647168
30
0
0
SPLINE
5
437
100
AcDbEntity
8
0
100
AcDbSpline
70
4
71
3
72
8
73
4
74
0
42
0.000000001
43
0.0000000001
44
0.0000000001
40
-1
40
-1
40
-1
40
-1
40
0
40
0
40
0
40
0
41
1
41
1
41
1
41
1
10
4.6422426258352196
20
-11.050200283647168
30
0
10
4.603386923121886
20
-11.118904908914772
30
0
10
4.6131652418402869
20
-11.101921637237705
30
0
10
4.5745671112872177
20
-11.170626262505309
30
0
0
LINE
5
438
100
AcDbEntity
8
0
100
AcDbLine
10
4.5745671112872177
20
-11.170626262505309
30
0
11
4.5707074552881082
21
-11.174486311144904
31
0
0
LINE
5
439
100
AcDbEntity
8
0
100
AcDbLine
10
4.5707074552881082
20
-11.174486311144904
30
0
11
4.5707074552881082
21
-11.17808878762424
31
0
0
LINE
5
440
100
AcDbEntity
8
0
100
AcDbLine
10
4.5707074552881082
20
-11.17808878762424
30
0
11
4.5632449301691747
21
-11.185808492262952
31
0
0
SPLINE
5
441
100
AcDbEntity
8
0
100
AcDbSpline
70
4
71
3
72
8
73
4
74
0
42
0.000000001
43
0.0000000001
44
0.0000000001
40
-1
40
-1
40
-1
40
-1
40
0
40
0
40
0
40
0
41
1
41
1
41
1
41
1
10
4.5632449301691747
20
-11.185808492262952
30
0
10
4.5614442808902389
20
-11.188639037542462
30
0
10
4.5601572053698858
20
-11.192498693541575
30
0
10
4.5593852741700625
20
-11.196873101220728
30
0
0
LINE
5
442
100
AcDbEntity
8
0
100
AcDbLine
10
4.5593852741700625
20
-11.196873101220728
30
0
11
4.5557831903312174
21
-11.20073314986033
31
0
0
LINE
5
443
100
AcDbEntity
8
0
100
AcDbLine
10
4.5557831903312174
20
-11.20073314986033
30
0
11
4.5557831903312174
21
-11.204592805859441
31
0
0
LINE
5
444
100
AcDbEntity
8
0
100
AcDbLine
10
4.5557831903312174
20
-11.204592805859441
30
0
11
4.5519227490511298
21
-11.208195282338774
31
0
0
LINE
5
445
100
AcDbEntity
8
0
100
AcDbLine
10
4.5519227490511298
20
-11.208195282338774
30
0
11
4.5282496687359277
21
-11.248337275291489
31
0
0
SPLINE
5
446
100
AcDbEntity
8
0
100
AcDbSpline
70
4
71
3
72
8
73
4
74
0
42
0.000000001
43
0.0000000001
44
0.0000000001
40
-1
40
-1
40
-1
40
-1
40
0
40
0
40
0
40
0
41
1
41
1
41
1
41
1
10
4.5282496687359286
20
-11.248337275291487
30
0
10
4.52233100601664
20
-11.261460498328955
30
0
10
4.5231029372164606
20
-11.25965945640953
30
0
10
4.5220742191373509
20
-11.261203318809176
30
0
0
SPLINE
5
447
100
AcDbEntity
8
0
100
AcDbSpline
70
4
71
3
72
8
73
4
74
0
42
0.000000001
43
0.0000000001
44
0.0000000001
40
-1
40
-1
40
-1
40
-1
40
0
40
0
40
0
40
0
41
1
41
1
41
1
41
1
10
4.5220742191373509
20
-11.261203318809176
30
0
10
4.5092081756196611
20
-11.279987632405666
30
0
10
4.5112663970588613
20
-11.276385155926331
30
0
10
4.5066348098599285
20
-11.287450157524596
30
0
0
LINE
5
448
100
AcDbEntity
8
0
100
AcDbLine
10
4.5066348098599285
20
-11.287450157524596
30
0
11
4.5030319407401054
21
-11.291052634003933
31
0
0
SPLINE
5
449
100
AcDbEntity
8
0
100
AcDbSpline
70
4
71
3
72
8
73
4
74
0
42
0.000000001
43
0.0000000001
44
0.0000000001
40
-1
40
-1
40
-1
40
-1
40
0
40
0
40
0
40
0
41
1
41
1
41
1
41
1
10
4.5030319407401054
20
-11.291052634003931
30
0
10
4.4996866437805494
20
-11.295169862163309
30
0
10
4.4963421321019714
20
-11.30391867752162
30
0
10
4.4953126287418836
20
-11.30983694760042
30
0
0
LINE
5
450
100
AcDbEntity
8
0
100
AcDbLine
10
4.4953126287418836
20
-11.309836947600422
30
0
11
4.4878501036229501
21
-11.317556652239134
31
0
0
LINE
5
451
100
AcDbEntity
8
0
100
AcDbLine
10
4.4878501036229501
20
-11.317556652239134
30
0
11
4.4464218204308601
21
-11.392694299265578
31
0
0
LINE
5
452
100
AcDbEntity
8
0
100
AcDbLine
10
4.4464218204308601
20
-11.392694299265578
30
0
11
4.442818951311037
21
-11.39655395526469
31
0
0
LINE
5
453
100
AcDbEntity
8
0
100
AcDbLine
10
4.442818951311037
20
-11.39655395526469
30
0
11
4.2884264290987657
21
-11.667513192976475
31
0
0
LINE
5
454
100
AcDbEntity
8
0
100
AcDbLine
10
4.2884264290987657
20
-11.667513192976475
30
0
11
4.2845667730996535
21
-11.671372848975585
31
0
0
LINE
5
455
100
AcDbEntity
8
0
100
AcDbLine
10
4.2845667730996535
20
-11.671372848975585
30
0
11
4.2845667730996535
21
-11.67497532545492
31
0
0
LINE
5
456
100
AcDbEntity
8
0
100
AcDbLine
10
4.2845667730996535
20
-11.67497532545492
30
0
11
4.27710424798072
21
-11.68269503009363
31
0
0
SPLINE
5
457
100
AcDbEntity
8
0
100
AcDbSpline
70
4
71
3
72
8
73
4
74
0
42
0.000000001
43
0.0000000001
44
0.0000000001
40
-1
40
-1
40
-1
40
-1
40
0
40
0
40
0
40
0
41
1
41
1
41
1
41
1
10
4.2771042479807209
20
-11.68269503009363
30
0
10
4.2753028134208115
20
-11.685525575373141
30
0
10
4.274016523181432
20
-11.689385231372253
30
0
10
4.2732445919816104
20
-11.694017211211676
30
0
0
LINE
5
458
100
AcDbEntity
8
0
100
AcDbLine
10
4.2732445919816104
20
-11.694017211211676
30
0
11
4.2696417228617882
21
-11.697619687691008
31
0
0
LINE
5
459
100
AcDbEntity
8
0
100
AcDbLine
10
4.2696417228617882
20
-11.697619687691008
30
0
11
4.2696417228617891
21
-11.701479343690121
31
0
0
LINE
5
460
100
AcDbEntity
8
0
100
AcDbLine
10
4.2696417228617891
20
-11.701479343690121
30
0
11
4.2657820668626778
21
-11.705081820169454
31
0
0
SPLINE
5
461
100
AcDbEntity
8
0
100
AcDbSpline
70
4
71
3
72
8
73
4
74
0
42
0.000000001
43
0.0000000001
44
0.0000000001
40
-1
40
-1
40
-1
40
-1
40
0
40
0
40
0
40
0
41
1
41
1
41
1
41
1
10
4.2657820668626778
20
-11.705081820169454
30
0
10
4.2606361206241878
20
-11.711772021448077
30
0
10
4.2616648387032985
20
-11.710228159048432
30
0
10
4.2518873052658757
20
-11.728755293125143
30
0
0
LINE
5
462
100
AcDbEntity
8
0
100
AcDbLine
10
4.2518873052658757
20
-11.728755293125143
30
0
11
4.2204941276714756
21
-11.784336695355277
31
0
0
LINE
5
463
100
AcDbEntity
8
0
100
AcDbLine
10
4.2204941276714756
20
-11.784336695355277
30
0
11
4.2168912585516534
21
-11.787939564475101
31
0
0
SPLINE
5
464
100
AcDbEntity
8
0
100
AcDbSpline
70
4
71
3
72
8
73
4
74
0
42
0.000000001
43
0.0000000001
44
0.0000000001
40
-1
40
-1
40
-1
40
-1
40
0
40
0
40
0
40
0
41
1
41
1
41
1
41
1
10
4.2168912585516534
20
-11.787939564475099
30
0
10
4.2135459615920983
20
-11.7920560073535
30
0
10
4.2102006646325414
20
-11.800805607992789
30
0
10
4.2094287334327207
20
-11.806723485431101
30
0
0
LINE
5
465
100
AcDbEntity
8
0
100
AcDbLine
10
4.2094287334327216
20
-11.8067234854311
30
0
11
4.2017094214344963
21
-11.8144435827103
31
0
0
SPLINE
5
466
100
AcDbEntity
8
0
100
AcDbSpline
70
4
71
3
72
8
73
4
74
0
42
0.000000001
43
0.0000000001
44
0.0000000001
40
-1
40
-1
40
-1
40
-1
40
0
40
0
40
0
40
0
41
1
41
1
41
1
41
1
10
4.2017094214344963
20
-11.8144435827103
30
0
10
4.1880714467169859
20
-11.839146166385589
30
0
10
4.191416743676541
20
-11.832970716787013
30
0
10
4.1775211967987635
20
-11.857673300462302
30
0
0
SPLINE
5
467
100
AcDbEntity
8
0
100
AcDbSpline
70
4
71
3
72
8
73
4
74
0
42
0.000000001
43
0.0000000001
44
0.0000000001
40
-1
40
-1
40
-1
40
-1
40
0
40
0
40
0
40
0
41
1
41
1
41
1
41
1
10
4.1775211967987635
20
-11.857673300462302
30
0
10
4.168514809280186
20
-11.872340778539902
30
0
10
4.1700586716798309
20
-11.869767412780167
30
0
10
4.1680004502406298
20
-11.87465657213937
30
0
0
LINE
5
468
100
AcDbEntity
8
0
100
AcDbLine
10
4.1680004502406298
20
-11.87465657213937
30
0
11
4.1641407942415176
21
-11.878258655978218
31
0
0
SPLINE
5
469
100
AcDbEntity
8
0
100
AcDbSpline
70
4
71
3
72
8
73
4
74
0
42
0.000000001
43
0.0000000001
44
0.0000000001
40
-1
40
-1
40
-1
40
-1
40
0
40
0
40
0
40
0
41
1
41
1
41
1
41
1
10
4.1641407942415176
20
-11.878258655978215
30
0
10
4.1625969318418736
20
-11.883405387497682
30
0
10
4.1625969318418736
20
-11.883662174376969
30
0
10
4.1602803529614292
20
-11.889580837096258
30
0
0
LINE
5
470
100
AcDbEntity
8
0
100
AcDbLine
10
4.1602803529614292
20
-11.889580837096258
30
0
11
4.156678269122585
21
-11.893440493095371
31
0
0
SPLINE
5
471
100
AcDbEntity
8
0
100
AcDbSpline
70
4
71
3
72
8
73
4
74
0
42
0.000000001
43
0.0000000001
44
0.0000000001
40
-1
40
-1
40
-1
40
-1
40
0
40
0
40
0
40
0
41
1
41
1
41
1
41
1
10
4.156678269122585
20
-11.893440493095371
30
0
10
4.1479294537642737
20
-11.907850399012702
30
0
10
4.1402093564850739
20
-11.920716442530392
30
0
10
4.130174250887384
20
-11.938729217567548
30
0
0
SPLINE
5
472
100
AcDbEntity
8
0
100
AcDbSpline
70
4
71
3
72
8
73
4
74
0
42
0.000000001
43
0.0000000001
44
0.0000000001
40
-1
40
-1
40
-1
40
-1
40
0
40
0
40
0
40
0
41
1
41
1
41
1
41
1
10
4.130174250887384
20
-11.938729217567548
30
0
10
4.0913185481740495
20
-12.007434235475639
30
0
10
4.1010968668924512
20
-11.990193391638307
30
0
10
4.0624987363393821
20
-12.059155196425685
30
0
0
LINE
5
473
100
AcDbEntity
8
0
100
AcDbLine
10
4.0624987363393821
20
-12.059155196425685
30
0
11
4.0586390803402717
21
-12.062758065545507
31
0
0
LINE
5
474
100
AcDbEntity
8
0
100
AcDbLine
10
4.0586390803402717
20
-12.062758065545507
30
0
11
4.0586390803402717
21
-12.066617721544619
31
0
0
LINE
5
475
100
AcDbEntity
8
0
100
AcDbLine
10
4.0586390803402717
20
-12.066617721544619
30
0
11
4.0511765552213381
21
-12.07408024666355
31
0
0
SPLINE
5
476
100
AcDbEntity
8
0
100
AcDbSpline
70
4
71
3
72
8
73
4
74
0
42
0.000000001
43
0.0000000001
44
0.0000000001
40
-1
40
-1
40
-1
40
-1
40
0
40
0
40
0
40
0
41
1
41
1
41
1
41
1
10
4.051176555221339
20
-12.074080246663552
30
0
10
4.049375120661427
20
-12.077167971462842
30
0
10
4.0480888304220493
20
-12.080770055301686
30
0
10
4.047574471382493
20
-12.085402427781595
30
0
0
LINE
5
477
100
AcDbEntity
8
0
100
AcDbLine
10
4.047574471382493
20
-12.085402427781595
30
0
11
4.0437140301024055
21
-12.089262083780707
31
0
0
LINE
5
478
100
AcDbEntity
8
0
100
AcDbLine
10
4.0437140301024055
20
-12.089262083780707
30
0
11
4.0437140301024046
21
-12.092864167619554
31
0
0
LINE
5
479
100
AcDbEntity
8
0
100
AcDbLine
10
4.0437140301024046
20
-12.092864167619554
30
0
11
4.0398543741032942
21
-12.096724608899642
31
0
0
LINE
5
480
100
AcDbEntity
8
0
100
AcDbLine
10
4.0398543741032942
20
-12.096724608899642
30
0
11
4.0161812937880912
21
-12.136866601852354
31
0
0
LINE
5
481
100
AcDbEntity
8
0
100
AcDbLine
10
4.0161812937880912
20
-12.136866601852354
30
0
11
4.0115489213081821
21
-12.14715927961031
31
0
0
LINE
5
482
100
AcDbEntity
8
0
100
AcDbLine
10
4.0115489213081821
20
-12.14715927961031
30
0
11
3.9948232217913811
21
-12.175721519284711
31
0
0
LINE
5
483
100
AcDbEntity
8
0
100
AcDbLine
10
3.9948232217913811
20
-12.175721519284711
30
0
11
3.9909635657922697
21
-12.179581175283822
31
0
0
SPLINE
5
484
100
AcDbEntity
8
0
100
AcDbSpline
70
4
71
3
72
8
73
4
74
0
42
0.000000001
43
0.0000000001
44
0.0000000001
40
-1
40
-1
40
-1
40
-1
40
0
40
0
40
0
40
0
41
1
41
1
41
1
41
1
10
3.9909635657922693
20
-12.179581175283822
30
0
10
3.9878758409929804
20
-12.183698403443199
30
0
10
3.9842729718731595
20
-12.192447218801512
30
0
10
3.9835010406733362
20
-12.1983658815208
30
0
0
LINE
5
485
100
AcDbEntity
8
0
100
AcDbLine
10
3.9835010406733367
20
-12.1983658815208
30
0
11
3.9760393008353794
21
-12.205828406639734
31
0
0
LINE
5
486
100
AcDbEntity
8
0
100
AcDbLine
10
3.9760393008353794
20
-12.205828406639734
30
0
11
3.934610232362314
21
-12.28122323318596
31
0
0
LINE
5
487
100
AcDbEntity
8
0
100
AcDbLine
10
3.934610232362314
20
-12.28122323318596
30
0
11
3.9307505763632014
21
-12.284826102305779
31
0
0
LINE
5
488
100
AcDbEntity
8
0
100
AcDbLine
10
3.9307505763632014
20
-12.284826102305779
30
0
11
3.7763580541509305
21
-12.556041734256366
31
0
0
LINE
5
489
100
AcDbEntity
8
0
100
AcDbLine
10
3.7763580541509305
20
-12.556041734256366
30
0
11
3.7727551850311092
21
-12.559644603376189
31
0
0
LINE
5
490
100
AcDbEntity
8
0
100
AcDbLine
10
3.7727551850311092
20
-12.559644603376189
30
0
11
3.7727551850311074
21
-12.563504259375298
31
0
0
LINE
5
491
100
AcDbEntity
8
0
100
AcDbLine
10
3.7727551850311074
20
-12.563504259375298
30
0
11
3.7650358730328848
21
-12.570966784494228
31
0
0
SPLINE
5
492
100
AcDbEntity
8
0
100
AcDbSpline
70
4
71
3
72
8
73
4
74
0
42
0.000000001
43
0.0000000001
44
0.0000000001
40
-1
40
-1
40
-1
40
-1
40
0
40
0
40
0
40
0
41
1
41
1
41
1
41
1
10
3.7650358730328848
20
-12.570966784494232
30
0
10
3.7632344384729755
20
-12.574054509293521
30
0
10
3.7619481482335959
20
-12.577914165292633
30
0
10
3.7614330039130639
20
-12.582288965612278
30
0
0
LINE
5
493
100
AcDbEntity
8
0
100
AcDbLine
10
3.7614330039130643
20
-12.582288965612278
30
0
11
3.7575733479139517
21
-12.586148621611386
31
0
0
LINE
5
494
100
AcDbEntity
8
0
100
AcDbLine
10
3.7575733479139517
20
-12.586148621611386
30
0
11
3.7575733479139535
21
-12.590008277610501
31
0
0
LINE
5
495
100
AcDbEntity
8
0
100
AcDbLine
10
3.7575733479139535
20
-12.590008277610501
30
0
11
3.7537136919148413
21
-12.593611146730321
31
0
0
SPLINE
5
496
100
AcDbEntity
8
0
100
AcDbSpline
70
4
71
3
72
8
73
4
74
0
42
0.000000001
43
0.0000000001
44
0.0000000001
40
-1
40
-1
40
-1
40
-1
40
0
40
0
40
0
40
0
41
1
41
1
41
1
41
1
10
3.7537136919148417
20
-12.593611146730321
30
0
10
3.7485669603953742
20
-12.600300955368455
30
0
10
3.7495964637554624
20
-12.59875709296881
30
0
10
3.7398181450370638
20
-12.617284227045523
30
0
0
LINE
5
497
100
AcDbEntity
8
0
100
AcDbLine
10
3.7398181450370633
20
-12.617284227045523
30
0
11
3.7086825396029295
21
-12.67260805711539
31
0
0
LINE
5
498
100
AcDbEntity
8
0
100
AcDbLine
10
3.7086825396029295
20
-12.67260805711539
30
0
11
3.7048228836038173
21
-12.676468498395479
31
0
0
LINE
5
499
100
AcDbEntity
8
0
100
AcDbLine
10
3.7048228836038173
20
-12.676468498395479
30
0
11
3.7025004999705873
21
-12.680900442196776
31
0
0
SPLINE
5
500
100
AcDbEntity
8
0
100
AcDbSpline
70
0
71
3
72
9
73
5
74
0
42
0.000000001
43
0.0000000001
44
0.0000000001
40
0
40
0
40
0
40
0
40
0.5
40
1
40
1
40
1
40
1
10
3.6935007024857724
20
-12.695252419351482
30
0
10
3.695199920645301
20
-12.692993362222182
30
0
10
3.6984066649200518
20
-12.688331064052411
30
0
10
3.7012069805369157
20
-12.683413903742496
30
0
10
3.7025004999705908
20
-12.680900442196775
30
0
0
LINE
5
501
100
AcDbEntity
8
0
100
AcDbLine
10
3.6935007024857724
20
-12.695252419351482
30
0
11
1.171241813979127
21
-12.698855288471302
31
0
0
SPLINE
5
502
100
AcDbEntity
8
0
100
AcDbSpline
70
4
71
3
72
8
73
4
74
0
42
0.000000001
43
0.0000000001
44
0.0000000001
40
-1
40
-1
40
-1
40
-1
40
0
40
0
40
0
40
0
41
1
41
1
41
1
41
1
10
1.171241813979127
20
-12.698855288471302
30
0
10
1.171241813979127
20
-13.507614595525812
30
0
10
1.170984241818861
20
-13.30535998308163
30
0
10
1.1725281042185054
20
-14.114376862296407
30
0
0
SPLINE
5
503
100
AcDbEntity
8
0
100
AcDbSpline
70
4
71
3
72
8
73
4
74
0
42
0.000000001
43
0.0000000001
44
0.0000000001
40
-1
40
-1
40
-1
40
-1
40
0
40
0
40
0
40
0
41
1
41
1
41
1
41
1
10
1.1725281042185054
20
-14.114376862296407
30
0
10
1.1730424632580616
20
-14.333614746417656
30
0
10
1.178446766937794
20
-14.296560478264233
30
0
10
1.1336724015051713
20
-14.374271098409926
30
0
0
LINE
5
504
100
AcDbEntity
8
0
100
AcDbLine
10
1.1336724015051713
20
-14.374271098409926
30
0
11
1.12981274550606
21
-14.378130754409035
31
0
0
LINE
5
505
100
AcDbEntity
8
0
100
AcDbLine
10
1.12981274550606
20
-14.378130754409035
30
0
11
1.1285264552666818
21
-14.380447333289478
31
0
0
SPLINE
5
506
100
AcDbEntity
8
0
100
AcDbSpline
70
4
71
3
72
8
73
4
74
0
42
0.000000001
43
0.0000000001
44
0.0000000001
40
-1
40
-1
40
-1
40
-1
40
0
40
0
40
0
40
0
41
1
41
1
41
1
41
1
10
1.1285264552666818
20
-14.380447333289478
30
0
10
1.1238940827867716
20
-14.390482438887169
30
0
10
1.1226077925473932
20
-14.392283873447083
30
0
10
1.1192624955878372
20
-14.397173032806281
30
0
0
SPLINE
5
507
100
AcDbEntity
8
0
100
AcDbSpline
70
4
71
3
72
8
73
4
74
0
42
0.000000001
43
0.0000000001
44
0.0000000001
40
-1
40
-1
40
-1
40
-1
40
0
40
0
40
0
40
0
41
1
41
1
41
1
41
1
10
1.1192624955878372
20
-14.397173032806281
30
0
10
1.1125726869497032
20
-14.405406703844061
30
0
10
1.1146309083889039
20
-14.402062192165481
30
0
10
1.1053677339910362
20
-14.421103685281748
30
0
0
LINE
5
508
100
AcDbEntity
8
0
100
AcDbLine
10
1.1053677339910364
20
-14.42110368528175
30
0
11
1.0883844623139691
21
-14.44966592495615
31
0
0
LINE
5
509
100
AcDbEntity
8
0
100
AcDbLine
10
1.0883844623139691
20
-14.44966592495615
30
0
11
1.0847815931941471
21
-14.453268794075971
31
0
0
LINE
5
510
100
AcDbEntity
8
0
100
AcDbLine
10
1.0847815931941471
20
-14.453268794075971
30
0
11
1.0834953029547689
21
-14.455584587675439
31
0
0
SPLINE
5
511
100
AcDbEntity
8
0
100
AcDbSpline
70
4
71
3
72
8
73
4
74
0
42
0.000000001
43
0.0000000001
44
0.0000000001
40
-1
40
-1
40
-1
40
-1
40
0
40
0
40
0
40
0
41
1
41
1
41
1
41
1
10
1.0834953029547689
20
-14.455584587675439
30
0
10
1.0786061435955696
20
-14.465620478554104
30
0
10
1.0775766402354803
20
-14.467678699993307
30
0
10
1.0739745563966352
20
-14.472567859352505
30
0
0
SPLINE
5
512
100
AcDbEntity
8
0
100
AcDbSpline
70
4
71
3
72
8
73
4
74
0
42
0.000000001
43
0.0000000001
44
0.0000000001
40
-1
40
-1
40
-1
40
-1
40
0
40
0
40
0
40
0
41
1
41
1
41
1
41
1
10
1.0739745563966352
20
-14.472567859352505
30
0
10
1.0675415346377903
20
-14.480802315671259
30
0
10
1.069599756076991
20
-14.477199446551442
30
0
10
1.0600790095188573
20
-14.496241724948682
30
0
0
LINE
5
513
100
AcDbEntity
8
0
100
AcDbLine
10
1.0600790095188573
20
-14.49624172494868
30
0
11
1.0433533100020573
21
-14.524803964623082
31
0
0
LINE
5
514
100
AcDbEntity
8
0
100
AcDbLine
10
1.0433533100020573
20
-14.524803964623082
30
0
11
1.0394928687219693
21
-14.528663620622195
31
0
0
LINE
5
515
100
AcDbEntity
8
0
100
AcDbLine
10
1.0394928687219693
20
-14.528663620622195
30
0
11
1.0382065784825911
21
-14.530979414221664
31
0
0
SPLINE
5
516
100
AcDbEntity
8
0
100
AcDbSpline
70
4
71
3
72
8
73
4
74
0
42
0.000000001
43
0.0000000001
44
0.0000000001
40
-1
40
-1
40
-1
40
-1
40
0
40
0
40
0
40
0
41
1
41
1
41
1
41
1
10
1.0382065784825911
20
-14.530979414221664
30
0
10
1.0333174191233907
20
-14.541015305100329
30
0
10
1.0322879157633025
20
-14.542816739660241
30
0
10
1.0286858319244574
20
-14.547705899019441
30
0
0
SPLINE
5
517
100
AcDbEntity
8
0
100
AcDbSpline
70
4
71
3
72
8
73
4
74
0
42
0.000000001
43
0.0000000001
44
0.0000000001
40
-1
40
-1
40
-1
40
-1
40
0
40
0
40
0
40
0
41
1
41
1
41
1
41
1
10
1.0286858319244574
20
-14.547705899019441
30
0
10
1.0222528101656125
20
-14.55593957005722
30
0
10
1.0243110316048132
20
-14.552594273097665
30
0
10
1.0150478572069455
20
-14.571636551494906
30
0
0
LINE
5
518
100
AcDbEntity
8
0
100
AcDbLine
10
1.0150478572069455
20
-14.571636551494906
30
0
11
0.99806458552987842
21
-14.600198791169309
31
0
0
LINE
5
519
100
AcDbEntity
8
0
100
AcDbLine
10
0.99806458552987842
20
-14.600198791169309
30
0
11
0.99446171641005654
21
-14.60405844716842
31
0
0
SPLINE
5
520
100
AcDbEntity
8
0
100
AcDbSpline
70
4
71
3
72
8
73
4
74
0
42
0.000000001
43
0.0000000001
44
0.0000000001
40
-1
40
-1
40
-1
40
-1
40
0
40
0
40
0
40
0
41
1
41
1
41
1
41
1
10
0.99446171641005665
20
-14.60405844716842
30
0
10
0.99343299833094423
20
-14.60508795052851
30
0
10
0.99266106713112201
20
-14.606117453888597
30
0
10
0.99188913593129979
20
-14.607918888448509
30
0
0
LINE
5
521
100
AcDbEntity
8
0
100
AcDbLine
10
0.99188913593129979
20
-14.607918888448513
30
0
11
0.96975913273476655
21
-14.647031378041131
31
0
0
SPLINE
5
522
100
AcDbEntity
8
0
100
AcDbSpline
70
4
71
3
72
8
73
4
74
0
42
0.000000001
43
0.0000000001
44
0.0000000001
40
-1
40
-1
40
-1
40
-1
40
0
40
0
40
0
40
0
41
1
41
1
41
1
41
1
10
0.96975913273476655
20
-14.647031378041131
30
0
10
0.95998081401636681
20
-14.6611837117982
30
0
10
0.96126788953672215
20
-14.658611131319443
30
0
10
0.96049595833689883
20
-14.664272221878466
30
0
0
LINE
5
523
100
AcDbEntity
8
0
100
AcDbLine
10
0.96049595833689883
20
-14.664272221878466
30
0
11
0.95663551705681193
21
-14.66787430571731
31
0
0
LINE
5
524
100
AcDbEntity
8
0
100
AcDbLine
10
0.95663551705681193
20
-14.66787430571731
30
0
11
0.95663551705681138
21
-14.671733961716422
31
0
0
LINE
5
525
100
AcDbEntity
8
0
100
AcDbLine
10
0.95663551705681138
20
-14.671733961716422
30
0
11
0.94917377721885465
21
-14.679196486835355
31
0
0
SPLINE
5
526
100
AcDbEntity
8
0
100
AcDbSpline
70
4
71
3
72
8
73
4
74
0
42
0.000000001
43
0.0000000001
44
0.0000000001
40
-1
40
-1
40
-1
40
-1
40
0
40
0
40
0
40
0
41
1
41
1
41
1
41
1
10
0.94917377721885465
20
-14.679196486835355
30
0
10
0.94814427385876643
20
-14.680482777074735
30
0
10
0.94762991481921022
20
-14.68151228043482
30
0
10
0.94660041145912199
20
-14.683313714994735
30
0
0
LINE
5
527
100
AcDbEntity
8
0
100
AcDbLine
10
0.94660041145912199
20
-14.683313714994735
30
0
11
0.92472798042285476
21
-14.722169417708066
31
0
0
SPLINE
5
528
100
AcDbEntity
8
0
100
AcDbSpline
70
4
71
3
72
8
73
4
74
0
42
0.000000001
43
0.0000000001
44
0.0000000001
40
-1
40
-1
40
-1
40
-1
40
0
40
0
40
0
40
0
41
1
41
1
41
1
41
1
10
0.92472798042285476
20
-14.722169417708066
30
0
10
0.91494966170445502
20
-14.736321751465136
30
0
10
0.91623673722480925
20
-14.734005957865667
30
0
10
0.91520723386472103
20
-14.739409476264424
30
0
0
LINE
5
529
100
AcDbEntity
8
0
100
AcDbLine
10
0.91520723386472103
20
-14.739409476264424
30
0
11
0.91160436474489903
21
-14.743269132263537
31
0
0
LINE
5
530
100
AcDbEntity
8
0
100
AcDbLine
10
0.91160436474489903
20
-14.743269132263537
30
0
11
0.91160436474489881
21
-14.746872001383357
31
0
0
LINE
5
531
100
AcDbEntity
8
0
100
AcDbLine
10
0.91160436474489881
20
-14.746872001383357
30
0
11
0.90388505274667574
21
-14.75459131338158
31
0
0
SPLINE
5
532
100
AcDbEntity
8
0
100
AcDbSpline
70
4
71
3
72
8
73
4
74
0
42
0.000000001
43
0.0000000001
44
0.0000000001
40
-1
40
-1
40
-1
40
-1
40
0
40
0
40
0
40
0
41
1
41
1
41
1
41
1
10
0.90388505274667574
20
-14.75459131338158
30
0
10
0.90285554938658752
20
-14.75562081674167
30
0
10
0.90234119034703131
20
-14.756650320101755
30
0
10
0.90156925914720909
20
-14.758708541540958
30
0
0
LINE
5
533
100
AcDbEntity
8
0
100
AcDbLine
10
0.90156925914720909
20
-14.758708541540962
30
0
11
0.87943925595067574
21
-14.797564244254291
31
0
0
SPLINE
5
534
100
AcDbEntity
8
0
100
AcDbSpline
70
4
71
3
72
8
73
4
74
0
42
0.000000001
43
0.0000000001
44
0.0000000001
40
-1
40
-1
40
-1
40
-1
40
0
40
0
40
0
40
0
41
1
41
1
41
1
41
1
10
0.87943925595067585
20
-14.797564244254291
30
0
10
0.86966172251325191
20
-14.81171657801136
30
0
10
0.87094801275263034
20
-14.809143212251627
30
0
10
0.87017608155280812
20
-14.81480430281065
30
0
0
LINE
5
535
100
AcDbEntity
8
0
100
AcDbLine
10
0.87017608155280812
20
-14.81480430281065
30
0
11
0.86631642555369703
21
-14.81840717193047
31
0
0
LINE
5
536
100
AcDbEntity
8
0
100
AcDbLine
10
0.86631642555369703
20
-14.81840717193047
30
0
11
0.86631642555369703
21
-14.822266827929582
31
0
0
LINE
5
537
100
AcDbEntity
8
0
100
AcDbLine
10
0.86631642555369703
20
-14.822266827929582
30
0
11
0.85885390043476384
21
-14.829729353048515
31
0
0
SPLINE
5
538
100
AcDbEntity
8
0
100
AcDbSpline
70
4
71
3
72
8
73
4
74
0
42
0.000000001
43
0.0000000001
44
0.0000000001
40
-1
40
-1
40
-1
40
-1
40
0
40
0
40
0
40
0
41
1
41
1
41
1
41
1
10
0.85885390043476395
20
-14.829729353048515
30
0
10
0.85782439707467573
20
-14.831015643287895
30
0
10
0.85705246587485351
20
-14.832045146647982
30
0
10
0.85628053467503018
20
-14.833846581207892
30
0
0
LINE
5
539
100
AcDbEntity
8
0
100
AcDbLine
10
0.85628053467503018
20
-14.833846581207892
30
0
11
0.83415131675947374
21
-14.87270149864025
31
0
0
SPLINE
5
540
100
AcDbEntity
8
0
100
AcDbSpline
70
4
71
3
72
8
73
4
74
0
42
0.000000001
43
0.0000000001
44
0.0000000001
40
-1
40
-1
40
-1
40
-1
40
0
40
0
40
0
40
0
41
1
41
1
41
1
41
1
10
0.83415131675947385
20
-14.87270149864025
30
0
10
0.82463057020134012
20
-14.887111404557585
30
0
10
0.82591686044071855
20
-14.884538824078826
30
0
10
0.82488735708063032
20
-14.889942342477585
30
0
0
LINE
5
541
100
AcDbEntity
8
0
100
AcDbLine
10
0.82488735708063032
20
-14.889942342477585
30
0
11
0.82128527324178413
21
-14.893801998476695
31
0
0
LINE
5
542
100
AcDbEntity
8
0
100
AcDbLine
10
0.82128527324178413
20
-14.893801998476695
30
0
11
0.82128527324178435
21
-14.897661654475806
31
0
0
LINE
5
543
100
AcDbEntity
8
0
100
AcDbLine
10
0.82128527324178435
20
-14.897661654475806
30
0
11
0.81356517596258493
21
-14.905124179594742
31
0
0
SPLINE
5
544
100
AcDbEntity
8
0
100
AcDbSpline
70
4
71
3
72
8
73
4
74
0
42
0.000000001
43
0.0000000001
44
0.0000000001
40
-1
40
-1
40
-1
40
-1
40
0
40
0
40
0
40
0
41
1
41
1
41
1
41
1
10
0.81356517596258504
20
-14.90512417959474
30
0
10
0.81253645788347262
20
-14.906153682954828
30
0
10
0.81202131356294061
20
-14.907182401033941
30
0
10
0.81124938236311839
20
-14.909241407754116
30
0
0
LINE
5
545
100
AcDbEntity
8
0
100
AcDbLine
10
0.81124938236311828
20
-14.90924140775412
30
0
11
0.78912016444756194
21
-14.948097110467451
31
0
0
SPLINE
5
546
100
AcDbEntity
8
0
100
AcDbSpline
70
4
71
3
72
8
73
4
74
0
42
0.000000001
43
0.0000000001
44
0.0000000001
40
-1
40
-1
40
-1
40
-1
40
0
40
0
40
0
40
0
41
1
41
1
41
1
41
1
10
0.78912016444756206
20
-14.948097110467451
30
0
10
0.77934184572916121
20
-14.96224944422452
30
0
10
0.78062813596853964
20
-14.95993365062505
30
0
10
0.77985620476871742
20
-14.965337169023808
30
0
0
LINE
5
547
100
AcDbEntity
8
0
100
AcDbLine
10
0.77985620476871731
20
-14.965337169023808
30
0
11
0.77599654876960633
21
-14.969196825022919
31
0
0
LINE
5
548
100
AcDbEntity
8
0
100
AcDbLine
10
0.77599654876960633
20
-14.969196825022919
30
0
11
0.77599654876960633
21
-14.972799694142742
31
0
0
LINE
5
549
100
AcDbEntity
8
0
100
AcDbLine
10
0.77599654876960633
20
-14.972799694142742
30
0
11
0.76853402365067314
21
-14.980519006140964
31
0
0
SPLINE
5
550
100
AcDbEntity
8
0
100
AcDbSpline
70
4
71
3
72
8
73
4
74
0
42
0.000000001
43
0.0000000001
44
0.0000000001
40
-1
40
-1
40
-1
40
-1
40
0
40
0
40
0
40
0
41
1
41
1
41
1
41
1
10
0.76853402365067325
20
-14.980519006140964
30
0
10
0.76750530557156083
20
-14.981548509501053
30
0
10
0.76673337437173861
20
-14.98257801286114
30
0
10
0.76596144317191639
20
-14.984378662140077
30
0
0
LINE
5
551
100
AcDbEntity
8
0
100
AcDbLine
10
0.76596144317191639
20
-14.984378662140079
30
0
11
0.74383143997538315
21
-15.023491937013675
31
0
0
SPLINE
5
552
100
AcDbEntity
8
0
100
AcDbSpline
70
4
71
3
72
8
73
4
74
0
42
0.000000001
43
0.0000000001
44
0.0000000001
40
-1
40
-1
40
-1
40
-1
40
0
40
0
40
0
40
0
41
1
41
1
41
1
41
1
10
0.74383143997538315
20
-15.023491937013675
30
0
10
0.73405312125698341
20
-15.037644270770745
30
0
10
0.73559698365662785
20
-15.035070905011009
30
0
10
0.73456826557751542
20
-15.040731995570034
30
0
0
LINE
5
553
100
AcDbEntity
8
0
100
AcDbLine
10
0.73456826557751542
20
-15.040731995570034
30
0
11
0.73096539645769343
21
-15.044334864689851
31
0
0
LINE
5
554
100
AcDbEntity
8
0
100
AcDbLine
10
0.73096539645769343
20
-15.044334864689851
30
0
11
0.73096539645769432
21
-15.048194520688966
31
0
0
LINE
5
555
100
AcDbEntity
8
0
100
AcDbLine
10
0.73096539645769432
20
-15.048194520688966
30
0
11
0.72324608445947036
21
-15.055657045807898
31
0
0
LINE
5
556
100
AcDbEntity
8
0
100
AcDbLine
10
0.72324608445947036
20
-15.055657045807898
30
0
11
0.30175437317501541
21
-15.763547011441073
31
0
0
LINE
5
557
100
AcDbEntity
8
0
100
AcDbLine
10
0.30175437317501541
20
-15.763547011441073
30
0
11
0.29789471717590388
21
-15.767149095279917
31
0
0
LINE
5
558
100
AcDbEntity
8
0
100
AcDbLine
10
0.29789471717590388
20
-15.767149095279917
30
0
11
0.29789471717590377
21
-15.77100875127903
31
0
0
LINE
5
559
100
AcDbEntity
8
0
100
AcDbLine
10
0.29789471717590377
20
-15.77100875127903
30
0
11
0.29403427589581588
21
-15.774611620398851
31
0
0
LINE
5
560
100
AcDbEntity
8
0
100
AcDbLine
10
0.29403427589581588
20
-15.774611620398851
30
0
11
0.29403427589581604
21
-15.778471276397962
31
0
0
ARC
5
561
100
AcDbEntity
8
0
100
AcDbCircle
10
0.2420048229084506
20
-15.693072587755486
30
0
40
0.10000000000009633
210
0
220
0
230
1
100
AcDbArc
50
291.78050409588178
51
301.35201005207637
0
LINE
5
562
100
AcDbEntity
8
0
100
AcDbLine
10
0.27911001093892557
20
-15.785933801516896
30
0
11
0.27525035493981442
21
-11.8144435827103
31
0
0
ARC
5
563
100
AcDbEntity
8
0
100
AcDbCircle
10
0.37379978098042971
20
-11.831414458558498
30
0
40
0.099999999999947992
210
0
220
0
230
1
100
AcDbArc
50
161.24422045651059
51
170.22911390306709
0
LINE
5
564
100
AcDbEntity
8
0
100
AcDbLine
10
0.27911001093892601
20
-11.799260960312168
30
0
11
3.1739698024190028
21
-11.791799220474212
31
0
0
LINE
5
565
100
AcDbEntity
8
0
100
AcDbLine
10
3.1739698024190028
20
-11.791799220474212
30
0
11
3.1816891144172255
21
-11.784336695355279
31
0
0
SPLINE
5
566
100
AcDbEntity
8
0
100
AcDbSpline
70
4
71
3
72
8
73
4
74
0
42
0.000000001
43
0.0000000001
44
0.0000000001
40
-1
40
-1
40
-1
40
-1
40
0
40
0
40
0
40
0
41
1
41
1
41
1
41
1
10
3.1816891144172255
20
-11.784336695355279
30
0
10
3.1832337620978479
20
-11.7802194671959
30
0
10
3.1804028241778481
20
-11.785366198715366
30
0
10
3.2015033240142921
20
-11.74753999936212
30
0
0
SPLINE
5
567
100
AcDbEntity
8
0
100
AcDbSpline
70
4
71
3
72
8
73
4
74
0
42
0.000000001
43
0.0000000001
44
0.0000000001
40
-1
40
-1
40
-1
40
-1
40
0
40
0
40
0
40
0
41
1
41
1
41
1
41
1
10
3.2015033240142921
20
-11.74753999936212
30
0
10
3.2138542232114498
20
-11.725410388806077
30
0
10
3.2107664984121609
20
-11.731071086724612
30
0
10
3.2231181828902944
20
-11.708941868809056
30
0
0
LINE
5
568
100
AcDbEntity
8
0
100
AcDbLine
10
3.2231181828902939
20
-11.708941868809056
30
0
11
3.2267202667291395
21
-11.705081820169454
31
0
0
SPLINE
5
569
100
AcDbEntity
8
0
100
AcDbSpline
70
4
71
3
72
8
73
4
74
0
42
0.000000001
43
0.0000000001
44
0.0000000001
40
-1
40
-1
40
-1
40
-1
40
0
40
0
40
0
40
0
41
1
41
1
41
1
41
1
10
3.2267202667291395
20
-11.705081820169454
30
0
10
3.2285217012890488
20
-11.700964592010074
30
0
10
3.235726654247717
20
-11.686554686092743
30
0
10
3.2380424478471825
20
-11.68269503009363
30
0
0
LINE
5
570
100
AcDbEntity
8
0
100
AcDbLine
10
3.2380424478471825
20
-11.68269503009363
30
0
11
3.2419028891272719
21
-11.678834981454031
31
0
0
LINE
5
571
100
AcDbEntity
8
0
100
AcDbLine
10
3.2419028891272719
20
-11.678834981454031
30
0
11
3.2586285886440711
21
-11.650272349139142
31
0
0
LINE
5
572
100
AcDbEntity
8
0
100
AcDbLine
10
3.2586285886440711
20
-11.650272349139142
30
0
11
3.2833311723193614
21
-11.603440154907807
31
0
0
LINE
5
573
100
AcDbEntity
8
0
100
AcDbLine
10
3.2833311723193614
20
-11.603440154907807
30
0
11
3.2907936974382945
21
-11.595977629788873
31
0
0
LINE
5
574
100
AcDbEntity
8
0
100
AcDbLine
10
3.2907936974382945
20
-11.595977629788873
30
0
11
3.290793697438295
21
-11.59237515330954
31
0
0
LINE
5
575
100
AcDbEntity
8
0
100
AcDbLine
10
3.290793697438295
20
-11.59237515330954
30
0
11
3.2946533534374067
21
-11.588515497310425
31
0
0
SPLINE
5
576
100
AcDbEntity
8
0
100
AcDbSpline
70
4
71
3
72
8
73
4
74
0
42
0.000000001
43
0.0000000001
44
0.0000000001
40
-1
40
-1
40
-1
40
-1
40
0
40
0
40
0
40
0
41
1
41
1
41
1
41
1
10
3.2946533534374067
20
-11.588515497310429
30
0
10
3.2951677124769629
20
-11.583883910111494
30
0
10
3.2964547879973183
20
-11.580281433632162
30
0
10
3.2982554372762518
20
-11.577193316192385
30
0
0
LINE
5
577
100
AcDbEntity
8
0
100
AcDbLine
10
3.2982554372762518
20
-11.577193316192385
30
0
11
3.3021158785563403
21
-11.573333660193272
31
0
0
LINE
5
578
100
AcDbEntity
8
0
100
AcDbLine
10
3.3021158785563403
20
-11.573333660193272
30
0
11
3.3893472452601658
21
-11.419713069180823
31
0
0
SPLINE
5
579
100
AcDbEntity
8
0
100
AcDbSpline
70
4
71
3
72
8
73
4
74
0
42
0.000000001
43
0.0000000001
44
0.0000000001
40
-1
40
-1
40
-1
40
-1
40
0
40
0
40
0
40
0
41
1
41
1
41
1
41
1
10
3.3893472452601658
20
-11.419713069180823
30
0
10
3.3932069012592758
20
-11.4130228679022
30
0
10
3.3921781831801634
20
-11.414566730301846
30
0
10
3.3962954113395427
20
-11.407876136382736
30
0
0
LINE
5
580
100
AcDbEntity
8
0
100
AcDbLine
10
3.3962954113395427
20
-11.407876136382736
30
0
11
3.3998974951783878
21
-11.404016480383623
31
0
0
LINE
5
581
100
AcDbEntity
8
0
100
AcDbLine
10
3.3998974951783878
20
-11.404016480383623
30
0
11
3.3998974951783878
21
-11.400156824384513
31
0
0
LINE
5
582
100
AcDbEntity
8
0
100
AcDbLine
10
3.3998974951783878
20
-11.400156824384513
30
0
11
3.4073600202973209
21
-11.39269429926558
31
0
0
SPLINE
5
583
100
AcDbEntity
8
0
100
AcDbSpline
70
4
71
3
72
8
73
4
74
0
42
0.000000001
43
0.0000000001
44
0.0000000001
40
-1
40
-1
40
-1
40
-1
40
0
40
0
40
0
40
0
41
1
41
1
41
1
41
1
10
3.4073600202973209
20
-11.39269429926558
30
0
10
3.4096758138967864
20
-11.386776029186779
30
0
10
3.4096758138967864
20
-11.386518457026513
30
0
10
3.4112196762964309
20
-11.381372118147535
30
0
0
LINE
5
584
100
AcDbEntity
8
0
100
AcDbLine
10
3.4112196762964309
20
-11.381372118147535
30
0
11
3.4150793322955431
21
-11.377769641668202
31
0
0
SPLINE
5
585
100
AcDbEntity
8
0
100
AcDbSpline
70
4
71
3
72
8
73
4
74
0
42
0.000000001
43
0.0000000001
44
0.0000000001
40
-1
40
-1
40
-1
40
-1
40
0
40
0
40
0
40
0
41
1
41
1
41
1
41
1
10
3.4150793322955431
20
-11.3777696416682
30
0
10
3.4161088356556313
20
-11.371851371589401
30
0
10
3.414822545416254
20
-11.374167165188869
30
0
10
3.4243432919743877
20
-11.360529190471356
30
0
0
SPLINE
5
586
100
AcDbEntity
8
0
100
AcDbSpline
70
4
71
3
72
8
73
4
74
0
42
0.000000001
43
0.0000000001
44
0.0000000001
40
-1
40
-1
40
-1
40
-1
40
0
40
0
40
0
40
0
41
1
41
1
41
1
41
1
10
3.4243432919743877
20
-11.360529190471356
30
0
10
3.4366941911715432
20
-11.337112897035444
30
0
10
3.4405546324516312
20
-11.329907944076778
30
0
10
3.4413265636514545
20
-11.328621261196909
30
0
0
LINE
5
587
100
AcDbEntity
8
0
100
AcDbLine
10
3.4413265636514545
20
-11.328621261196911
30
0
11
3.4451862196505667
21
-11.325018784717575
31
0
0
LWPOLYLINE
5
588
100
AcDbEntity
8
0
100
AcDbPolyline
90
12
70
1
43
0.0
10
0.0012037850692292462
20
-19.061628167008184
10
-2.3192469824244895
20
-15.017279411968437
42
-0.57587272968363334
10
-2.2326828005073156
20
-14.867513861958688
10
-1.4235293370766524
20
-14.86611232770108
42
-0.26942097487876249
10
-1.3365662669200669
20
-14.916438038353611
10
-1.3196246822140945
20
-14.946038103747274
10
0.0156136909865634
20
-17.283284008928046
10
2.3476676315005145
20
-13.242666921513898
42
-0.26798885638240527
10
2.4342775722507977
20
-13.192654101502693
10
3.2441969416946357
20
-13.192654101502693
42
-0.57733877464271588
10
3.3308012062122065
20
-13.342651115087214
10
0.054853261325549858
20
-19.017211294269472
42
-0.17975110288477253
0
SPLINE
5
589
100
AcDbEntity
8
0
100
AcDbSpline
70
4
71
3
72
8
73
4
74
0
42
0.000000001
43
0.0000000001
44
0.0000000001
40
-1
40
-1
40
-1
40
-1
40
-0.25338413191410802
40
-0.25338413191410802
40
-0.25338413191410802
40
-0.25338413191410802
41
1
41
1
41
1
41
1
10
2.3181203363324032
20
-9.3158577745188573
30
0
10
2.5085111730796377
20
-9.4269030214743044
30
0
10
2.7182664602300228
20
-9.5723737148446286
30
0
10
2.8918038643496287
20
-9.7118953930308134
30
0
0
SPLINE
5
590
100
AcDbEntity
8
0
100
AcDbSpline
70
0
71
3
72
9
73
5
74
0
42
0.000000001
43
0.0000000001
44
0.0000000001
40
-1
40
-1
40
-1
40
-1
40
-0.5
40
0
40
0
40
0
40
0
10
2.8289125653947513
20
-9.8898302299289185
30
0
10
2.8700249760099092
20
-9.8899258363410052
30
0
10
2.9499231206455971
20
-9.8325196436281619
30
0
10
2.9238449523104832
20
-9.7376559856009965
30
0
10
2.8918038643506412
20
-9.711895393031627
30
0
0
LINE
5
591
100
AcDbEntity
8
0
100
AcDbLine
10
2.8289125653947513
20
-9.8898302299289185
30
0
11
2.4406695752594061
21
-9.8889273755657232
31
0
0
SPLINE
5
592
100
AcDbEntity
8
0
100
AcDbSpline
70
0
71
3
72
10
73
6
74
0
42
0.000000001
43
0.0000000001
44
0.0000000001
40
0
40
0
40
0
40
0
40
0.00057033766907070441
40
0.00057033766907070441
40
0.0011406753381413789
40
0.0011406753381413789
40
0.0011406753381413789
40
0.0011406753381413789
10
2.4292898516943033
20
-9.8882511333398462
30
0
10
2.4311781159035224
20
-9.8884718972060845
30
0
10
2.4330722917005914
20
-9.8886387687776676
30
0
10
2.4368678470108165
20
-9.8888643203700877
30
0
10
2.4387684548363588
20
-9.8889229545332462
30
0
10
2.4406695752594061
20
-9.888927375565725
30
0
0
SPLINE
5
593
100
AcDbEntity
8
0
100
AcDbSpline
70
4
71
3
72
8
73
4
74
0
42
0.000000001
43
0.0000000001
44
0.0000000001
40
0.10376845945477511
40
0.10376845945477511
40
0.10376845945477511
40
0.10376845945477511
40
1
40
1
40
1
40
1
41
1
41
1
41
1
41
1
10
2.4292898516943029
20
-9.8882511333398462
30
0
10
2.4189251277517303
20
-9.8870393556029832
30
0
10
2.4219064955274123
20
-9.8882321058417997
30
0
10
2.2893005244977358
20
-9.8001354483516252
30
0
0
SPLINE
5
594
100
AcDbEntity
8
0
100
AcDbSpline
70
4
71
3
72
8
73
4
74
0
42
0.000000001
43
0.0000000001
44
0.0000000001
40
0
40
0
40
0
40
0
40
0.61432757266905291
40
0.61432757266905291
40
0.61432757266905291
40
0.61432757266905291
41
1
41
1
41
1
41
1
10
2.2893005244977358
20
-9.8001354483516252
30
0
10
2.1781707919004116
20
-9.7264704340136632
30
0
10
2.0344114095717805
20
-9.6429000537995009
30
0
10
1.9049139812505866
20
-9.5750774587028875
30
0
0
SPLINE
5
595
100
AcDbEntity
8
0
100
AcDbSpline
70
0
71
3
72
18
73
14
74
0
42
0.000000001
43
0.0000000001
44
0.0000000001
40
0
40
0
40
0
40
0
40
0.0039064447338693162
40
0.0039064447338693162
40
0.0078128894677386498
40
0.0078128894677386498
40
0.011719334201607914
40
0.011719334201607914
40
0.015625778935477196
40
0.015625778935477196
40
0.019532223669346531
40
0.019532223669346531
40
0.023291934750706001
40
0.023291934750706001
40
0.023291934750706001
40
0.023291934750706001
10
1.9182280929414899
20
-9.3921221184164434
30
0
10
1.9059397790317854
20
-9.3964298262006434
30
0
10
1.8946103392201379
20
-9.4030965309085808
30
0
10
1.8751446081826664
20
-9.4203974365370975
30
0
10
1.8671944199552037
20
-9.4308662313701461
30
0
10
1.8557543825950447
20
-9.4542619909343948
30
0
10
1.852373906454813
20
-9.4669652794524879
30
0
10
1.8506725929847112
20
-9.4929526139226947
30
0
10
1.8523680211389024
20
-9.5059882067930843
30
0
10
1.8606601860918968
20
-9.5306757749354176
30
0
10
1.8671776452741706
20
-9.5420917236001568
30
0
10
1.8839015181713585
20
-9.5614129933312793
30
0
10
1.8938120815425521
20
-9.5692629830143634
30
0
10
1.9049139812489846
20
-9.5750774587020508
30
0
0
LINE
5
596
100
AcDbEntity
8
0
100
AcDbLine
10
1.9182280929414899
20
-9.3921221184164434
30
0
11
2.247357096985112
21
-9.2767448922857447
31
0
0
LINE
5
597
100
AcDbEntity
8
0
100
AcDbLine
10
2.247357096985112
20
-9.2767448922857447
30
0
11
2.3181203363324032
21
-9.3158577745188573
31
0
0
SPLINE
5
598
100
AcDbEntity
8
0
100
AcDbSpline
70
4
71
3
72
8
73
4
74
0
42
0.000000001
43
0.0000000001
44
0.0000000001
40
0
40
0
40
0
40
0
40
1
40
1
40
1
40
1
41
1
41
1
41
1
41
1
10
-3.0583415990215634
20
-9.8814489376171384
30
0
10
-3.0604002131012518
20
-9.8729573017786052
30
0
10
-3.0560258054220961
20
-9.8688400736192268
30
0
10
-2.964162066238361
20
-9.7900999501134471
30
0
0
SPLINE
5
599
100
AcDbEntity
8
0
100
AcDbSpline
70
4
71
3
72
8
73
4
74
0
42
0.000000001
43
0.0000000001
44
0.0000000001
40
0
40
0
40
0
40
0
40
0.94766456571356072
40
0.94766456571356072
40
0.94766456571356072
40
0.94766456571356072
41
1
41
1
41
1
41
1
10
-2.964162066238361
20
-9.7900999501134471
30
0
10
-2.7427427068529915
20
-9.6006253882751658
30
0
10
-2.5072270939510348
20
-9.4347222757770695
30
0
10
-2.2668124094679349
20
-9.298522512794122
30
0
0
SPLINE
5
600
100
AcDbEntity
8
0
100
AcDbSpline
70
0
71
3
72
12
73
8
74
0
42
0.000000001
43
0.0000000001
44
0.0000000001
40
0
40
0
40
0
40
0
40
0.0039064447338692564
40
0.0039064447338692564
40
0.0062283757216423773
40
0.0062283757216423773
40
0.0085503067094155095
40
0.0085503067094155095
40
0.0085503067094155095
40
0.0085503067094155095
10
-2.1843751254430437
20
-9.2911831580682751
30
0
10
-2.1966605088061755
20
-9.2868670995980516
30
0
10
-2.2096714594024078
20
-9.284991913556361
30
0
10
-2.2304051098012976
20
-9.2860621203496674
30
0
10
-2.2380622032652884
20
-9.2873571125984622
30
0
10
-2.2529238157114042
20
-9.2916870816040706
30
0
10
-2.2600782147148841
20
-9.2947074557762104
30
0
10
-2.2668124094679389
20
-9.2985225127941256
30
0
0
LINE
5
601
100
AcDbEntity
8
0
100
AcDbLine
10
-2.1843751254430437
20
-9.2911831580682751
30
0
11
-1.826289146122686
21
-9.4169846881004595
31
0
0
SPLINE
5
602
100
AcDbEntity
8
0
100
AcDbSpline
70
0
71
3
72
9
73
5
74
0
42
0.000000001
43
0.0000000001
44
0.0000000001
40
-1
40
-1
40
-1
40
-1
40
-0.5
40
0
40
0
40
0
40
0
10
-1.8646682023590111
20
-9.5626588929332428
30
0
10
-1.8391949197449211
20
-9.5500305654168098
30
0
10
-1.7999986264859982
20
-9.5018038796754478
30
0
10
-1.8103447446354819
20
-9.440524841970273
30
0
10
-1.826289146122686
20
-9.4169846881004595
30
0
0
SPLINE
5
603
100
AcDbEntity
8
0
100
AcDbSpline
70
4
71
3
72
8
73
4
74
0
42
0.000000001
43
0.0000000001
44
0.0000000001
40
0.46230635477137372
40
0.46230635477137372
40
0.46230635477137372
40
0.46230635477137372
40
1
40
1
40
1
40
1
41
1
41
1
41
1
41
1
10
-1.8646682023590104
20
-9.562658892933241
30
0
10
-1.9074967541631802
20
-9.5838910594910942
30
0
10
-1.9349296211954541
20
-9.6003104121751335
30
0
10
-2.0259703928071349
20
-9.6519187683784207
30
0
0
SPLINE
5
604
100
AcDbEntity
8
0
100
AcDbSpline
70
4
71
3
72
8
73
4
74
0
42
0.000000001
43
0.0000000001
44
0.0000000001
40
0
40
0
40
0
40
0
40
1
40
1
40
1
40
1
41
1
41
1
41
1
41
1
10
-2.0259703928071349
20
-9.6519187683784207
30
0
10
-2.1811348462192282
20
-9.7399224589225568
30
0
10
-2.1319864657479384
20
-9.7090440330082011
30
0
10
-2.3700082708251893
20
-9.869354825299272
30
0
0
SPLINE
5
605
100
AcDbEntity
8
0
100
AcDbSpline
70
4
71
3
72
8
73
4
74
0
42
0.000000001
43
0.0000000001
44
0.0000000001
40
0
40
0
40
0
40
0
40
1
40
1
40
1
40
1
41
1
41
1
41
1
41
1
10
-2.3700082708251893
20
-9.869354825299272
30
0
10
-2.4057758560987463
20
-9.8932854777747394
30
0
10
-2.3260066218733657
20
-9.8904549324952278
30
0
10
-2.9281373014450263
20
-9.8901977529754497
30
0
0
SPLINE
5
606
100
AcDbEntity
8
0
100
AcDbSpline
70
4
71
3
72
8
73
4
74
0
42
0.000000001
43
0.0000000001
44
0.0000000001
40
0
40
0
40
0
40
0
40
1
40
1
40
1
40
1
41
1
41
1
41
1
41
1
10
-2.9281373014450263
20
-9.8901977529754497
30
0
10
-3.0745529394988083
20
-9.8901977529754497
30
0
10
-3.0560258054220961
20
-9.8914844358553164
30
0
10
-3.0583415990215634
20
-9.8814489376171384
30
0
0
SPLINE
5
607
100
AcDbEntity
8
0
100
AcDbSpline
70
4
71
3
72
8
73
4
74
0
42
0.000000001
43
0.0000000001
44
0.0000000001
40
0
40
0
40
0
40
0
40
1
40
1
40
1
40
1
41
1
41
1
41
1
41
1
10
-4.5490014088338473
20
-13.804563099792752
30
0
10
-4.5767921099489142
20
-13.543896932479413
30
0
10
-4.5850263699474256
20
-13.305875127402164
30
0
10
-4.5731896334695818
20
-13.117258489675493
30
0
0
LINE
5
608
100
AcDbEntity
8
0
100
AcDbLine
10
-4.5731896334695818
20
-13.117258489675494
30
0
11
-4.5577504205124031
21
-12.874605097399307
31
0
0
SPLINE
5
609
100
AcDbEntity
8
0
100
AcDbSpline
70
4
71
3
72
8
73
4
74
0
42
0.000000001
43
0.0000000001
44
0.0000000001
40
0
40
0
40
0
40
0
40
0.54049062369671308
40
0.54049062369671308
40
0.54049062369671308
40
0.54049062369671308
41
1
41
1
41
1
41
1
10
-4.5577504205124031
20
-12.874605097399307
30
0
10
-4.5430079194810959
20
-12.739698219885046
30
0
10
-4.5325502304971508
20
-12.652825374673426
30
0
10
-4.5208517331879214
20
-12.576892348933377
30
0
0
SPLINE
5
610
100
AcDbEntity
8
0
100
AcDbSpline
70
0
71
3
72
9
73
5
74
0
42
0.000000001
43
0.0000000001
44
0.0000000001
40
-1
40
-1
40
-1
40
-1
40
-0.5
40
0
40
0
40
0
40
0
10
-4.335203617183403
20
-12.542487404718424
30
0
10
-4.3556301835373805
20
-12.506757863403754
30
0
10
-4.4453721349585509
20
-12.466099657355372
30
0
10
-4.5145849843796979
20
-12.536215911098409
30
0
10
-4.5208517331879277
20
-12.576892348933411
30
0
0
LINE
5
611
100
AcDbEntity
8
0
100
AcDbLine
10
-4.335203617183403
20
-12.542487404718424
30
0
11
-4.3140675248761298
21
-12.579458027692279
31
0
0
SPLINE
5
612
100
AcDbEntity
8
0
100
AcDbSpline
70
4
71
3
72
8
73
4
74
0
42
0.000000001
43
0.0000000001
44
0.0000000001
40
0
40
0
40
0
40
0
40
1
40
1
40
1
40
1
41
1
41
1
41
1
41
1
10
-4.3140675248761298
20
-12.579458027692279
30
0
10
-4.1038364209139466
20
-12.947427343466774
30
0
10
-4.1295685079493252
20
-12.895963169396019
30
0
10
-4.1329134122683922
20
-12.940736749547664
30
0
0
LINE
5
613
100
AcDbEntity
8
0
100
AcDbLine
10
-4.1329134122683922
20
-12.940736749547666
30
0
11
-4.1411478685871481
21
-13.034401138010335
31
0
0
SPLINE
5
614
100
AcDbEntity
8
0
100
AcDbSpline
70
4
71
3
72
8
73
4
74
0
42
0.000000001
43
0.0000000001
44
0.0000000001
40
0
40
0
40
0
40
0
40
1
40
1
40
1
40
1
41
1
41
1
41
1
41
1
10
-4.1411478685871481
20
-13.034401138010335
30
0
10
-4.1596750026638594
20
-13.243346344373627
30
0
10
-4.1511833668253253
20
-13.558306838396748
30
0
10
-4.1203049409109695
20
-13.810224190351777
30
0
0
SPLINE
5
615
100
AcDbEntity
8
0
100
AcDbSpline
70
4
71
3
72
8
73
4
74
0
42
0.000000001
43
0.0000000001
44
0.0000000001
40
0
40
0
40
0
40
0
40
1
40
1
40
1
40
1
41
1
41
1
41
1
41
1
10
-4.1203049409109695
20
-13.810224190351777
30
0
10
-3.9885567809347879
20
-14.886082686478472
30
0
10
-3.41473116151775
20
-15.896581461656634
30
0
10
-2.5545072877519948
20
-16.567674731296648
30
0
0
SPLINE
5
616
100
AcDbEntity
8
0
100
AcDbSpline
70
4
71
3
72
8
73
4
74
0
42
0.000000001
43
0.0000000001
44
0.0000000001
40
0
40
0
40
0
40
0
40
1
40
1
40
1
40
1
41
1
41
1
41
1
41
1
10
-2.5545072877519948
20
-16.567674731296648
30
0
10
-2.2858642362801653
20
-16.777391083578792
30
0
10
-2.0658552062400695
20
-16.912998899554083
30
0
10
-1.7393149589386392
20
-17.06970721536582
30
0
0
SPLINE
5
617
100
AcDbEntity
8
0
100
AcDbSpline
70
4
71
3
72
8
73
4
74
0
42
0.000000001
43
0.0000000001
44
0.0000000001
40
0
40
0
40
0
40
0
40
1
40
1
40
1
40
1
41
1
41
1
41
1
41
1
10
-1.7393149589386392
20
-17.06970721536582
30
0
10
-1.7148695547831272
20
-17.082058899843954
30
0
10
-1.7588712037349508
20
-17.009751798097017
30
0
10
-1.4315590252336974
20
-17.575600140715078
30
0
0
ARC
5
618
100
AcDbEntity
8
0
100
AcDbCircle
10
-1.5143669019060504
20
-17.5195389637651
30
0
40
0.10000000000000084
210
0
220
0
230
1
100
AcDbArc
50
266.43084807899328
51
325.901883756301
0
SPLINE
5
619
100
AcDbEntity
8
0
100
AcDbSpline
70
4
71
3
72
8
73
4
74
0
42
0.000000001
43
0.0000000001
44
0.0000000001
40
0
40
0
40
0
40
0
40
1
40
1
40
1
40
1
41
1
41
1
41
1
41
1
10
-1.5205922191379218
20
-17.619345002787611
30
0
10
-2.5653147171899948
20
-17.243913947175155
30
0
10
-3.4286263157550394
20
-16.519040709864917
30
0
10
-3.9800651450962543
20
-15.554087446038222
30
0
0
SPLINE
5
620
100
AcDbEntity
8
0
100
AcDbSpline
70
4
71
3
72
8
73
4
74
0
42
0.000000001
43
0.0000000001
44
0.0000000001
40
0
40
0
40
0
40
0
40
1
40
1
40
1
40
1
41
1
41
1
41
1
41
1
10
-3.9800651450962543
20
-15.554087446038222
30
0
10
-4.2837034580013293
20
-15.022976792693143
30
0
10
-4.4851859429254457
20
-14.403348482404859
30
0
10
-4.5490014088338473
20
-13.804563099792752
30
0
0
ENDSEC
0
SECTION
2
OBJECTS
0
DICTIONARY
5
C
100
AcDbDictionary
3
ACAD_GROUP
350
D
3
ACAD_MLINESTYLE
350
17
0
DICTIONARY
5
D
100
AcDbDictionary
0
DICTIONARY
5
1A
330
C
100
AcDbDictionary
0
DICTIONARY
5
17
100
AcDbDictionary
0
ENDSEC
0
EOF
