0
SECTION
2
HEADER
9
$INSUNITS
70
4
9
$ACADVER
1
AC1014
9
$HANDSEED
5
FFFF
0
ENDSEC
0
SECTION
2
TABLES
0
TABLE
2
VPORT
5
8
100
AcDbSymbolTable
0
ENDTAB
0
TABLE
2
LTYPE
5
5
100
AcDbSymbolTable
0
LTYPE
5
14
100
AcDbSymbolTableRecord
100
AcDbLinetypeTableRecord
2
BYBLOCK
70
0
0
LTYPE
5
15
100
AcDbSymbolTableRecord
100
AcDbLinetypeTableRecord
2
BYLAYER
70
0
0
ENDTAB
0
TABLE
2
LAYER
5
2
100
AcDbSymbolTable
70
2
0
LAYER
5
50
100
AcDbSymbolTableRecord
100
AcDbLayerTableRecord
2
0
70
0
6
CONTINUOUS
0
ENDTAB
0
TABLE
2
STYLE
5
3
100
AcDbSymbolTable
70
1
0
STYLE
5
11
100
AcDbSymbolTableRecord
100
AcDbTextStyleTableRecord
2
STANDARD
70
0
0
ENDTAB
0
TABLE
2
VIEW
5
6
100
AcDbSymbolTable
70
0
0
ENDTAB
0
TABLE
2
UCS
5
7
100
AcDbSymbolTable
70
0
0
ENDTAB
0
TABLE
2
APPID
5
9
100
AcDbSymbolTable
70
2
0
APPID
5
12
100
AcDbSymbolTableRecord
100
AcDbRegAppTableRecord
2
ACAD
70
0
0
ENDTAB
0
TABLE
2
DIMSTYLE
5
A
100
AcDbSymbolTable
70
1
0
ENDTAB
0
TABLE
2
BLOCK_RECORD
5
1
100
AcDbSymbolTable
70
1
0
BLOCK_RECORD
5
1F
100
AcDbSymbolTableRecord
100
AcDbBlockTableRecord
2
*MODEL_SPACE
0
BLOCK_RECORD
5
1B
100
AcDbSymbolTableRecord
100
AcDbBlockTableRecord
2
*PAPER_SPACE
0
ENDTAB
0
ENDSEC
0
SECTION
2
BLOCKS
0
BLOCK
5
20
100
AcDbEntity
100
AcDbBlockBegin
2
*MODEL_SPACE
0
ENDBLK
5
21
100
AcDbEntity
100
AcDbBlockEnd
0
BLOCK
5
1C
100
AcDbEntity
100
AcDbBlockBegin
2
*PAPER_SPACE
0
ENDBLK
5
1D
100
AcDbEntity
100
AcDbBlockEnd
0
ENDSEC
0
SECTION
2
ENTITIES
0
CIRCLE
5
100
100
AcDbEntity
8
0
100
AcDbCircle
10
9.9999999999999947
20
26.999999999999986
30
0
40
1.6000000000000003
210
0
220
0
230
1
0
CIRCLE
5
101
100
AcDbEntity
8
0
100
AcDbCircle
10
70.710678118654769
20
70.710678118654769
30
0
40
3.5000000000000053
210
0
220
0
230
1
0
CIRCLE
5
102
100
AcDbEntity
8
0
100
AcDbCircle
10
70.710678118654755
20
78.710678118654755
30
0
40
1.6999999999999993
210
0
220
0
230
1
0
CIRCLE
5
103
100
AcDbEntity
8
0
100
AcDbCircle
10
62.710678118654776
20
70.710678118654741
30
0
40
1.6999999999999993
210
0
220
0
230
1
0
CIRCLE
5
104
100
AcDbEntity
8
0
100
AcDbCircle
10
70.710678118654741
20
62.710678118654783
30
0
40
1.6999999999999993
210
0
220
0
230
1
0
LINE
5
105
100
AcDbEntity
8
0
100
AcDbLine
10
1.000000014901159
20
3.2627417146981186
30
0
11
8.8686291501015297
21
11.131370849898474
31
0
0
ARC
5
106
100
AcDbEntity
8
0
100
AcDbCircle
10
10.000000000000004
20
9.9999999999999982
30
0
40
1.6000000000000014
210
-0
220
0
230
1
100
AcDbArc
50
-45.000000000000156
51
134.99999999999994
0
LINE
5
107
100
AcDbEntity
8
0
100
AcDbLine
10
11.131370849898479
20
8.8686291501015173
30
0
11
3.2627417146981132
21
1.0000000149011679
31
0
0
LINE
5
108
100
AcDbEntity
8
0
100
AcDbLine
10
3.2627417146981132
20
1.0000000149011679
30
0
11
10.650911585735363
21
1.0000000149011674
31
0
0
ARC
5
109
100
AcDbEntity
8
0
100
AcDbCircle
10
19.091883092037797
20
2.4424906541753444e-14
30
0
40
8.5000000000007017
210
0
220
0
230
1
100
AcDbArc
50
135.00000000000006
51
173.24367286826649
0
LINE
5
110
100
AcDbEntity
8
0
100
AcDbLine
10
13.081475451951645
20
6.0104076400861715
30
0
11
63.107936863807495
21
56.036869051942055
31
0
0
ARC
5
111
100
AcDbEntity
8
0
100
AcDbCircle
10
71.413530042230747
20
47.731275873518811
30
0
40
11.74588251647962
210
0
220
0
230
1
100
AcDbArc
50
92.686417922579693
51
135.00000000000006
0
ARC
5
112
100
AcDbEntity
8
0
100
AcDbCircle
10
70.710678118654741
20
62.710678118654783
30
0
40
3.2499999999999938
210
0
220
0
230
1
100
AcDbArc
50
272.68641792257989
51
354.9207362046277
0
ARC
5
113
100
AcDbEntity
8
0
100
AcDbCircle
10
77.973047618342846
20
62.065178118654735
30
0
40
4.0410000000000048
210
0
220
0
230
1
100
AcDbArc
50
130.03084015923824
51
174.92073620462764
0
ARC
5
114
100
AcDbEntity
8
0
100
AcDbCircle
10
70.710678118654769
20
70.710678118654769
30
0
40
7.2499999999999964
210
0
220
0
230
1
100
AcDbArc
50
-49.969159840761868
51
42.751760138496557
0
SPLINE
5
115
100
AcDbEntity
8
0
100
AcDbSpline
70
0
71
3
72
10
73
6
74
0
42
0.000000001
43
0.0000000001
44
0.0000000001
40
0
40
0
40
0
40
0
40
0.15217918896393462
40
0.15217918896393462
40
0.30435837792787557
40
0.30435837792787557
40
0.30435837792787557
40
0.30435837792787557
10
74.960678118654741
20
78.375272041361995
30
0
10
74.960678118654741
20
77.868008078148875
30
0
10
75.047418518248477
20
77.371947992127957
30
0
10
75.416978999246965
20
76.427770986550058
30
0
10
75.690022526621149
20
76.004631839195639
30
0
10
76.034365126005738
20
75.632147070884628
30
0
0
LINE
5
116
100
AcDbEntity
8
0
100
AcDbLine
10
74.960678118654741
20
78.375272041361995
30
0
11
74.960678118654741
21
80.210678118654783
31
0
0
ARC
5
117
100
AcDbEntity
8
0
100
AcDbCircle
10
72.460678118654741
20
80.210678118654783
30
0
40
2.5000000000000089
210
0
220
0
230
1
100
AcDbArc
50
0
51
90
0
LINE
5
118
100
AcDbEntity
8
0
100
AcDbLine
10
72.460678118654741
20
82.710678118654783
30
0
11
71.150017946874996
21
82.710678118654783
31
0
0
ARC
5
119
100
AcDbEntity
8
0
100
AcDbCircle
10
71.150017946874982
20
80.210678118654812
30
0
40
2.4999999999999645
210
0
220
-0
230
1
100
AcDbArc
50
89.999999999999673
51
135.00000000000026
0
LINE
5
120
100
AcDbEntity
8
0
100
AcDbLine
10
69.382250993908627
20
81.978445071621152
30
0
11
68.401561198890022
21
80.997755276602547
31
0
0
ARC
5
121
100
AcDbEntity
8
0
100
AcDbCircle
10
73.754359532472066
20
75.644956943020446
30
0
40
7.5699999999998653
210
0
220
0
230
1
100
AcDbArc
50
134.99999999999969
51
159.96136299239117
0
ARC
5
122
100
AcDbEntity
8
0
100
AcDbCircle
10
62.019022145602818
20
79.925234639530927
30
0
40
4.9215539763033123
210
0
220
0
230
1
100
AcDbArc
50
290.03863700760871
51
339.96136299239117
0
ARC
5
123
100
AcDbEntity
8
0
100
AcDbCircle
10
66.299299842113456
20
68.189897252661382
30
0
40
7.5700000000002152
210
0
220
0
230
1
100
AcDbArc
50
110.03863700760924
51
134.99999999999966
0
LINE
5
124
100
AcDbEntity
8
0
100
AcDbLine
10
60.946501508531171
20
73.542695586243738
30
0
11
60.412581079798485
21
73.008775157511025
31
0
0
ARC
5
125
100
AcDbEntity
8
0
100
AcDbCircle
10
62.710678118654776
20
70.710678118654741
30
0
40
3.2500000000000124
210
0
220
0
230
1
100
AcDbArc
50
135.00000000000011
51
177.31359786313016
0
ARC
5
126
100
AcDbEntity
8
0
100
AcDbCircle
10
47.731286343793116
20
71.413525414855258
30
0
40
11.745871840829057
210
-0
220
0
230
1
100
AcDbArc
50
315
51
357.31359786313038
0
LINE
5
127
100
AcDbEntity
8
0
100
AcDbLine
10
56.036871973391456
20
63.107939785256917
30
0
11
19.464493649538454
21
26.53556146140394
31
0
0
ARC
5
128
100
AcDbEntity
8
0
100
AcDbCircle
10
17.616116523516801
20
28.383938587425561
30
0
40
2.6139999999999999
210
0
220
0
230
1
100
AcDbArc
50
225.00000000000011
51
315.00000000000051
0
LINE
5
129
100
AcDbEntity
8
0
100
AcDbLine
10
15.76773939749517
20
26.535561461403923
30
0
11
12.651650429449543
21
29.651650429449539
31
0
0
ARC
5
130
100
AcDbEntity
8
0
100
AcDbCircle
10
9.9999999999999947
20
26.999999999999986
30
0
40
3.7499999999999996
210
0
220
-0
230
1
100
AcDbArc
50
45.00000000000005
51
225.00000000000011
0
LINE
5
131
100
AcDbEntity
8
0
100
AcDbLine
10
7.3483495705504449
20
24.348349570550425
30
0
11
10.464438538596053
21
21.232260602504823
31
0
0
ARC
5
132
100
AcDbEntity
8
0
100
AcDbCircle
10
8.6160614125744228
20
19.383883476483181
30
0
40
2.6140000000000003
210
-0
220
0
230
1
100
AcDbArc
50
-44.999999999999595
51
45.000000000000199
0
LINE
5
133
100
AcDbEntity
8
0
100
AcDbLine
10
10.46443853859607
20
17.53550635046156
30
0
11
6.0104076400861377
21
13.081475451951643
31
0
0
ARC
5
134
100
AcDbEntity
8
0
100
AcDbCircle
10
-1.7208456881689926e-14
20
19.091883092037811
30
0
40
8.5000000000007212
210
-0
220
0
230
1
100
AcDbArc
50
276.75632713173371
51
314.99999999999994
0
LINE
5
135
100
AcDbEntity
8
0
100
AcDbLine
10
1.0000000149011594
20
10.650911585735358
30
0
11
1.000000014901159
21
3.2627417146981186
31
0
0
ENDSEC
0
SECTION
2
OBJECTS
0
DICTIONARY
5
C
100
AcDbDictionary
3
ACAD_GROUP
350
D
3
ACAD_MLINESTYLE
350
17
0
DICTIONARY
5
D
100
AcDbDictionary
0
DICTIONARY
5
1A
330
C
100
AcDbDictionary
0
DICTIONARY
5
17
100
AcDbDictionary
0
ENDSEC
0
EOF
