0
SECTION
2
HEADER
9
$INSUNITS
70
4
9
$ACADVER
1
AC1014
9
$HANDSEED
5
FFFF
0
ENDSEC
0
SECTION
2
TABLES
0
TABLE
2
VPORT
5
8
100
AcDbSymbolTable
0
ENDTAB
0
TABLE
2
LTYPE
5
5
100
AcDbSymbolTable
0
LTYPE
5
14
100
AcDbSymbolTableRecord
100
AcDbLinetypeTableRecord
2
BYBLOCK
70
0
0
LTYPE
5
15
100
AcDbSymbolTableRecord
100
AcDbLinetypeTableRecord
2
BYLAYER
70
0
0
ENDTAB
0
TABLE
2
LAYER
5
2
100
AcDbSymbolTable
70
2
0
LAYER
5
50
100
AcDbSymbolTableRecord
100
AcDbLayerTableRecord
2
0
70
0
6
CONTINUOUS
0
ENDTAB
0
TABLE
2
STYLE
5
3
100
AcDbSymbolTable
70
1
0
STYLE
5
11
100
AcDbSymbolTableRecord
100
AcDbTextStyleTableRecord
2
STANDARD
70
0
0
ENDTAB
0
TABLE
2
VIEW
5
6
100
AcDbSymbolTable
70
0
0
ENDTAB
0
TABLE
2
UCS
5
7
100
AcDbSymbolTable
70
0
0
ENDTAB
0
TABLE
2
APPID
5
9
100
AcDbSymbolTable
70
2
0
APPID
5
12
100
AcDbSymbolTableRecord
100
AcDbRegAppTableRecord
2
ACAD
70
0
0
ENDTAB
0
TABLE
2
DIMSTYLE
5
A
100
AcDbSymbolTable
70
1
0
ENDTAB
0
TABLE
2
BLOCK_RECORD
5
1
100
AcDbSymbolTable
70
1
0
BLOCK_RECORD
5
1F
100
AcDbSymbolTableRecord
100
AcDbBlockTableRecord
2
*MODEL_SPACE
0
BLOCK_RECORD
5
1B
100
AcDbSymbolTableRecord
100
AcDbBlockTableRecord
2
*PAPER_SPACE
0
ENDTAB
0
ENDSEC
0
SECTION
2
BLOCKS
0
BLOCK
5
20
100
AcDbEntity
100
AcDbBlockBegin
2
*MODEL_SPACE
0
ENDBLK
5
21
100
AcDbEntity
100
AcDbBlockEnd
0
BLOCK
5
1C
100
AcDbEntity
100
AcDbBlockBegin
2
*PAPER_SPACE
0
ENDBLK
5
1D
100
AcDbEntity
100
AcDbBlockEnd
0
ENDSEC
0
SECTION
2
ENTITIES
0
CIRCLE
5
100
100
AcDbEntity
8
0
100
AcDbCircle
10
0
20
0
30
0
40
1.6500000000000001
210
0
220
-0
230
1
0
LWPOLYLINE
5
101
100
AcDbEntity
8
0
100
AcDbPolyline
90
56
70
1
43
0.0
10
-11.361054457755246
20
29.951276124496783
42
0.14505632464684895
10
-16.652243364893181
20
25.30856704803627
42
0.31373969714776839
10
-15.783637391964948
20
22.587596298110508
42
-0.43664090180173948
10
-15.509288015000147
20
19.666666666666679
42
0.38196601125010515
10
-15.509288015000147
20
16.333333333333343
42
-0.38196601125010471
10
-15.509288015000145
20
13.66666666666668
42
0.38196601125010532
10
-15.509288015000141
20
10.333333333333346
42
-0.38196601125010499
10
-15.509288015000141
20
7.6666666666666803
42
0.38196601125010476
10
-15.509288015000145
20
4.3333333333333455
42
-0.38196601125010515
10
-15.509288015000145
20
1.6666666666666787
42
0.38196601125010748
10
-15.509288015000145
20
-1.6666666666666687
42
-0.38196601125010526
10
-15.50928801500014
20
-4.3333333333333393
42
0.3819660112501051
10
-15.50928801500014
20
-7.6666666666666732
42
-0.38196601125010515
10
-15.509288015000138
20
-10.333333333333341
42
0.38196601125010465
10
-15.509288015000141
20
-13.666666666666675
42
-0.38196601125010482
10
-15.509288015000141
20
-16.333333333333336
42
0.38196601125010643
10
-15.50928801500014
20
-19.666666666666679
42
-0.43664090180173654
10
-15.783637391964936
20
-22.587596298110508
42
0.31373969714776867
10
-16.652243364893174
20
-25.30856704803627
42
0.27288798079741933
10
-10.767647058823581
20
-30.670588235294129
42
0.059530635913176935
10
-9.8812250081548498
20
-30.748118528183475
42
0.27638648861645149
10
-5.3437465144327607
20
-27.833407692101222
42
-0.20806321472040926
10
-4.4285714285714368
20
-27.062527728750148
42
0.33167926656827829
10
-2.9999999999999982
20
-25.145898033750321
10
-2.9999999999999973
20
-24.000000000000014
42
-0.99999999999999989
10
3.0000000000000036
20
-24.000000000000014
10
3.0000000000000044
20
-25.145898033750321
42
0.33167926656828017
10
4.4285714285714404
20
-27.062527728750148
42
-0.20806321472040856
10
5.3437465144327678
20
-27.833407692101222
42
0.27638648861645032
10
9.8812250081548605
20
-30.748118528183479
42
0.059530635913176817
10
10.767647058823595
20
-30.670588235294119
42
0.27288798079741822
10
16.652243364893174
20
-25.308567048036259
42
0.31373969714776828
10
15.783637391964941
20
-22.587596298110498
42
-0.43664090180173848
10
15.509288015000145
20
-19.666666666666671
42
0.38196601125010554
10
15.509288015000145
20
-16.333333333333336
42
-0.3819660112501056
10
15.509288015000141
20
-13.666666666666668
42
0.38196601125010621
10
15.509288015000141
20
-10.333333333333332
42
-0.38196601125010471
10
15.509288015000141
20
-7.6666666666666661
42
0.38196601125010571
10
15.509288015000141
20
-4.3333333333333339
42
-0.38196601125010543
10
15.509288015000145
20
-1.6666666666666619
42
0.38196601125010743
10
15.509288015000141
20
1.6666666666666785
42
-0.38196601125010526
10
15.509288015000138
20
4.333333333333349
42
0.38196601125010571
10
15.50928801500014
20
7.6666666666666838
42
-0.38196601125010482
10
15.509288015000138
20
10.33333333333335
42
0.38196601125010621
10
15.509288015000138
20
13.666666666666686
42
-0.38196601125010471
10
15.509288015000138
20
16.33333333333335
42
0.38196601125010604
10
15.509288015000136
20
19.666666666666682
42
-0.43664090180173598
10
15.783637391964936
20
22.587596298110519
42
0.31373969714776934
10
16.65224336489317
20
25.308567048036274
42
0.14505632464684859
10
11.361054457755252
20
29.951276124496779
42
0.41297683427884951
10
7.0544996921309036
20
28.373509350657294
10
6.7742791793773858
20
27.772574521788638
42
-0.29147341958608791
10
3.2070517296011269
20
25.500000000000025
10
-3.2070517296011269
20
25.500000000000025
42
-0.29147341958608791
10
-6.7742791793773849
20
27.772574521788638
10
-7.0544996921309009
20
28.373509350657294
42
0.41297683427884796
0
CIRCLE
5
102
100
AcDbEntity
8
0
100
AcDbCircle
10
10.000000000000016
20
27.000000000000021
30
0
40
1.5999999999999992
210
0
220
0
230
1
0
CIRCLE
5
103
100
AcDbEntity
8
0
100
AcDbCircle
10
-10.000000000000039
20
-27.000000000000242
30
0
40
1.6000000000000014
210
0
220
0
230
1
0
CIRCLE
5
104
100
AcDbEntity
8
0
100
AcDbCircle
10
10.00000000000005
20
-27.000000000000203
30
0
40
1.5999999999999992
210
0
220
0
230
1
0
CIRCLE
5
105
100
AcDbEntity
8
0
100
AcDbCircle
10
10.000000000000002
20
-10
30
0
40
1.5999999999999992
210
0
220
0
230
1
0
CIRCLE
5
106
100
AcDbEntity
8
0
100
AcDbCircle
10
-10.000000000000028
20
27.000000000000014
30
0
40
1.6000000000000014
210
0
220
0
230
1
0
CIRCLE
5
107
100
AcDbEntity
8
0
100
AcDbCircle
10
10
20
9.9999999999999982
30
0
40
1.6000000000000014
210
0
220
0
230
1
0
CIRCLE
5
108
100
AcDbEntity
8
0
100
AcDbCircle
10
-10
20
9.9999999999999982
30
0
40
1.6000000000000014
210
0
220
0
230
1
0
CIRCLE
5
109
100
AcDbEntity
8
0
100
AcDbCircle
10
-10
20
-10
30
0
40
1.6000000000000014
210
0
220
0
230
1
0
LWPOLYLINE
5
110
100
AcDbEntity
8
0
100
AcDbPolyline
90
8
70
1
43
0.0
10
-10
20
4.8620000000000054
10
-10.000000000000002
20
5.1379999999999981
42
-0.41421356237309503
10
-7.1380000000000017
20
7.9999999999999982
10
-4.8620000000000028
20
7.9999999999999982
42
-0.41421356237309503
10
-2.0000000000000022
20
5.1379999999999981
10
-2.0000000000000018
20
4.8620000000000072
42
-0.41421356237309509
10
-4.8620000000000019
20
2.0000000000000062
10
-7.1380000000000017
20
2.0000000000000084
42
-0.41421356237309498
0
LWPOLYLINE
5
111
100
AcDbEntity
8
0
100
AcDbPolyline
90
8
70
1
43
0.0
10
4.8619999999999939
20
23.000000000000011
10
7.1379999999999955
20
23.000000000000011
42
-0.41421356237309503
10
9.9999999999999964
20
20.138000000000012
10
9.9999999999999964
20
14.861999999999998
42
-0.41421356237309503
10
7.1379999999999955
20
11.999999999999996
10
4.8619999999999965
20
11.999999999999996
42
-0.41421356237309503
10
1.9999999999999956
20
14.861999999999998
10
1.9999999999999947
20
20.138000000000012
42
-0.41421356237309498
0
LWPOLYLINE
5
112
100
AcDbEntity
8
0
100
AcDbPolyline
90
8
70
1
43
0.0
10
1.9999999999999998
20
-5.1379999999999999
10
1.9999999999999991
20
-4.8619999999999939
42
-0.41421356237309509
10
4.8619999999999992
20
-1.9999999999999929
10
7.1379999999999999
20
-1.9999999999999918
42
-0.41421356237309503
10
10
20
-4.8619999999999921
10
10
20
-5.137999999999999
42
-0.41421356237309515
10
7.1379999999999999
20
-8
10
4.8620000000000001
20
-8
42
-0.41421356237309503
0
LWPOLYLINE
5
113
100
AcDbEntity
8
0
100
AcDbPolyline
90
8
70
1
43
0.0
10
1.9999999999999982
20
4.8620000000000072
10
1.9999999999999973
20
5.1379999999999981
42
-0.41421356237309509
10
4.8619999999999983
20
7.9999999999999982
10
7.1379999999999963
20
7.9999999999999982
42
-0.41421356237309498
10
9.9999999999999982
20
5.137999999999999
10
9.9999999999999982
20
4.862000000000009
42
-0.41421356237309509
10
7.1379999999999981
20
2.000000000000008
10
4.8619999999999983
20
2.0000000000000071
42
-0.41421356237309503
0
LWPOLYLINE
5
114
100
AcDbEntity
8
0
100
AcDbPolyline
90
8
70
1
43
0.0
10
-10.000000000000004
20
14.861999999999998
10
-10.000000000000007
20
20.138000000000005
42
-0.41421356237309503
10
-7.138000000000007
20
23.000000000000007
10
-4.8620000000000054
20
23.000000000000007
42
-0.41421356237309509
10
-2.0000000000000044
20
20.138000000000005
10
-2.000000000000004
20
14.861999999999998
42
-0.41421356237309509
10
-4.8620000000000045
20
11.999999999999996
10
-7.1380000000000052
20
11.999999999999996
42
-0.41421356237309503
0
LWPOLYLINE
5
115
100
AcDbEntity
8
0
100
AcDbPolyline
90
8
70
1
43
0.0
10
-10.000000000000002
20
-5.1379999999999999
10
-10.000000000000002
20
-4.8619999999999957
42
-0.41421356237309509
10
-7.1380000000000017
20
-1.9999999999999947
10
-4.862000000000001
20
-1.999999999999994
42
-0.41421356237309503
10
-2
20
-4.8619999999999939
10
-1.9999999999999996
20
-5.1379999999999999
42
-0.41421356237309509
10
-4.8620000000000001
20
-8
10
-7.1380000000000017
20
-8
42
-0.41421356237309503
0
ENDSEC
0
SECTION
2
OBJECTS
0
DICTIONARY
5
C
100
AcDbDictionary
3
ACAD_GROUP
350
D
3
ACAD_MLINESTYLE
350
17
0
DICTIONARY
5
D
100
AcDbDictionary
0
DICTIONARY
5
1A
330
C
100
AcDbDictionary
0
DICTIONARY
5
17
100
AcDbDictionary
0
ENDSEC
0
EOF
