0
SECTION
2
HEADER
9
$INSUNITS
70
4
9
$ACADVER
1
AC1014
9
$HANDSEED
5
FFFF
0
ENDSEC
0
SECTION
2
TABLES
0
TABLE
2
VPORT
5
8
100
AcDbSymbolTable
0
ENDTAB
0
TABLE
2
LTYPE
5
5
100
AcDbSymbolTable
0
LTYPE
5
14
100
AcDbSymbolTableRecord
100
AcDbLinetypeTableRecord
2
BYBLOCK
70
0
0
LTYPE
5
15
100
AcDbSymbolTableRecord
100
AcDbLinetypeTableRecord
2
BYLAYER
70
0
0
ENDTAB
0
TABLE
2
LAYER
5
2
100
AcDbSymbolTable
70
2
0
LAYER
5
50
100
AcDbSymbolTableRecord
100
AcDbLayerTableRecord
2
0
70
0
6
CONTINUOUS
0
ENDTAB
0
TABLE
2
STYLE
5
3
100
AcDbSymbolTable
70
1
0
STYLE
5
11
100
AcDbSymbolTableRecord
100
AcDbTextStyleTableRecord
2
STANDARD
70
0
0
ENDTAB
0
TABLE
2
VIEW
5
6
100
AcDbSymbolTable
70
0
0
ENDTAB
0
TABLE
2
UCS
5
7
100
AcDbSymbolTable
70
0
0
ENDTAB
0
TABLE
2
APPID
5
9
100
AcDbSymbolTable
70
2
0
APPID
5
12
100
AcDbSymbolTableRecord
100
AcDbRegAppTableRecord
2
ACAD
70
0
0
ENDTAB
0
TABLE
2
DIMSTYLE
5
A
100
AcDbSymbolTable
70
1
0
ENDTAB
0
TABLE
2
BLOCK_RECORD
5
1
100
AcDbSymbolTable
70
1
0
BLOCK_RECORD
5
1F
100
AcDbSymbolTableRecord
100
AcDbBlockTableRecord
2
*MODEL_SPACE
0
BLOCK_RECORD
5
1B
100
AcDbSymbolTableRecord
100
AcDbBlockTableRecord
2
*PAPER_SPACE
0
ENDTAB
0
ENDSEC
0
SECTION
2
BLOCKS
0
BLOCK
5
20
100
AcDbEntity
100
AcDbBlockBegin
2
*MODEL_SPACE
0
ENDBLK
5
21
100
AcDbEntity
100
AcDbBlockEnd
0
BLOCK
5
1C
100
AcDbEntity
100
AcDbBlockBegin
2
*PAPER_SPACE
0
ENDBLK
5
1D
100
AcDbEntity
100
AcDbBlockEnd
0
ENDSEC
0
SECTION
2
ENTITIES
0
LWPOLYLINE
5
100
100
AcDbEntity
8
0
100
AcDbPolyline
90
10
70
1
43
0.0
10
2.4999999999948166
20
-6.4999999999948184
10
2.4999999999971299
20
-3.4999999999953841
42
-0.4142135623729824
10
3.4999999999975162
20
-2.4999999999961551
10
6.5000000000021396
20
-2.4999999999973137
42
-0.41421356237320772
10
7.5000000000017542
20
-3.4999999999980846
10
7.5000000000004992
20
-5.1266028275959261
42
-0.24153136105869499
10
7.0833333333337478
20
-5.9388356896626284
42
0.081465292110670481
10
5.9388356896648151
20
-7.0833333333307023
42
-0.24153136105890424
10
5.1266028275970088
20
-7.4999999999968425
10
3.4999999999940457
20
-7.4999999999955893
42
-0.41421356237309503
0
LWPOLYLINE
5
101
100
AcDbEntity
8
0
100
AcDbPolyline
90
10
70
1
43
0.0
10
-6.4999999999948175
20
-2.4999999999948166
10
-3.4999999999953824
20
-2.4999999999971294
42
-0.4142135623729824
10
-2.4999999999961533
20
-3.4999999999975158
10
-2.4999999999973128
20
-6.5000000000021396
42
-0.41421356237320772
10
-3.4999999999980833
20
-7.5000000000017542
10
-5.1266028275959252
20
-7.5000000000004983
42
-0.24153136105869533
10
-5.9388356896626293
20
-7.0833333333337478
42
0.081465292110670232
10
-7.0833333333307005
20
-5.9388356896648187
42
-0.24153136105890413
10
-7.4999999999968399
20
-5.1266028275970124
10
-7.4999999999955875
20
-3.4999999999940457
42
-0.41421356237309503
0
LWPOLYLINE
5
102
100
AcDbEntity
8
0
100
AcDbPolyline
90
10
70
1
43
0.0
10
-2.4999999999948175
20
6.4999999999948175
10
-2.4999999999971303
20
3.4999999999953824
42
-0.4142135623729824
10
-3.4999999999975167
20
2.4999999999961533
10
-6.5000000000021396
20
2.4999999999973128
42
-0.41421356237320772
10
-7.5000000000017542
20
3.4999999999980833
10
-7.5000000000004992
20
5.1266028275959226
42
-0.24153136105869558
10
-7.0833333333337478
20
5.9388356896626266
42
0.081465292110670481
10
-5.9388356896648169
20
7.0833333333307005
42
-0.24153136105890449
10
-5.1266028275970088
20
7.4999999999968425
10
-3.4999999999940465
20
7.4999999999955875
42
-0.41421356237309503
0
LWPOLYLINE
5
103
100
AcDbEntity
8
0
100
AcDbPolyline
90
10
70
1
43
0.0
10
6.4999999999948175
20
2.4999999999948179
10
3.4999999999953824
20
2.4999999999971299
42
-0.4142135623729824
10
2.4999999999961533
20
3.4999999999975162
10
2.4999999999973124
20
6.5000000000021396
42
-0.41421356237320772
10
3.4999999999980829
20
7.5000000000017542
10
5.1266028275959226
20
7.5000000000005009
42
-0.24153136105869533
10
5.9388356896626258
20
7.0833333333337496
42
0.081465292110670481
10
7.0833333333307005
20
5.9388356896648169
42
-0.2415313610589046
10
7.4999999999968416
20
5.1266028275970097
10
7.4999999999955875
20
3.4999999999940465
42
-0.41421356237309503
0
LWPOLYLINE
5
104
100
AcDbEntity
8
0
100
AcDbPolyline
90
8
70
1
43
0.0
10
0.17677669529214374
20
1.8229212818988478
10
1.8229212818937892
20
0.17677669529593165
42
-0.41421356237309459
10
1.8229212818936527
20
-0.17677669529734208
10
0.17677669529073195
20
-1.8229212818989935
42
-0.41421356237309431
10
-0.17677669530254148
20
-1.8229212818988572
10
-1.8229212819041918
20
-0.17677669529594287
42
-0.41421356237309592
10
-1.8229212819040554
20
0.17677669529733148
10
-0.17677669530113019
20
1.8229212818989842
42
-0.41421356237309481
0
LWPOLYLINE
5
105
100
AcDbEntity
8
0
100
AcDbPolyline
90
16
70
1
43
0.0
10
4.2306846160051297
20
13.500000000000007
10
-4.2306846160050977
20
13.499999999999993
42
-0.12787244738709277
10
-7.564662142678392
20
14.366821443647106
42
0.75558127913980089
10
-14.366821443648332
20
7.5646621426805805
42
-0.12787244738678485
10
-13.50000000000289
20
4.2306846160151474
10
-13.499999999996884
20
-4.2306846159946794
42
-0.12787244738740952
10
-14.366821443645794
20
-7.5646621426760401
42
0.75558127914001016
10
-7.5646621426806053
20
-14.366821443648352
42
-0.12787244738677989
10
-4.2306846160153002
20
-13.500000000002936
10
4.2306846159944778
20
-13.499999999996831
42
-0.12787244738741538
10
7.5646621426759868
20
-14.366821443645774
42
0.75558127914001105
10
14.366821443648368
20
-7.5646621426806462
42
-0.12787244738677447
10
13.500000000002984
20
-4.2306846160154779
10
13.499999999996779
20
4.2306846159943214
42
-0.12787244738742023
10
14.366821443645749
20
7.5646621426759539
42
0.75558127914021667
10
7.5646621426783938
20
14.366821443647115
42
-0.12787244738709166
0
CIRCLE
5
106
100
AcDbEntity
8
0
100
AcDbCircle
10
9.9999999999999964
20
-10.000000000000002
30
0
40
1.5999999999999988
210
0
220
-0
230
1
0
CIRCLE
5
107
100
AcDbEntity
8
0
100
AcDbCircle
10
-9.9999999999999964
20
10
30
0
40
1.600000000000001
210
0
220
-0
230
1
0
CIRCLE
5
108
100
AcDbEntity
8
0
100
AcDbCircle
10
10
20
9.9999999999999982
30
0
40
1.600000000000001
210
0
220
-0
230
1
0
CIRCLE
5
109
100
AcDbEntity
8
0
100
AcDbCircle
10
-10.000000000000002
20
-9.9999999999999964
30
0
40
1.600000000000001
210
0
220
-0
230
1
0
ENDSEC
0
SECTION
2
OBJECTS
0
DICTIONARY
5
C
100
AcDbDictionary
3
ACAD_GROUP
350
D
3
ACAD_MLINESTYLE
350
17
0
DICTIONARY
5
D
100
AcDbDictionary
0
DICTIONARY
5
1A
330
C
100
AcDbDictionary
0
DICTIONARY
5
17
100
AcDbDictionary
0
ENDSEC
0
EOF
